<svg id="mission-icon" xmlns="http://www.w3.org/2000/svg" xmlns:xlink="http://www.w3.org/1999/xlink" width="160" height="159.922" viewBox="0 0 160 159.922">
  <defs>
    <clipPath id="clip-path">
      <rect id="Rectangle_2463" data-name="Rectangle 2463" width="160" height="159.922" fill="none"/>
    </clipPath>
  </defs>
  <g id="Group_5870" data-name="Group 5870" clip-path="url(#clip-path)">
    <path id="Path_4400" data-name="Path 4400" d="M78.532,0c9.843.133,17.632,1.093,25.162,3.667,2.264.774,3.309,2.265,3.059,4.313a3.658,3.658,0,0,1-3.361,3.368,11.325,11.325,0,0,1-3.14-.482c-5.707-.921-11.4-2.493-17.126-2.642C55.28,7.5,33.405,18.939,18.673,42.487a71.219,71.219,0,0,0,5.837,83.27c11.377,13.7,25.867,22.443,43.457,25.15,26.043,4.009,48.305-3.775,66.014-23.408,13.663-15.148,19.2-33.267,17.788-53.484-.321-4.6-1.633-9.137-2.5-13.7-.12-.63-.356-1.24-.456-1.873-.417-2.647.768-4.548,3.112-5.05,2.049-.439,4,.751,4.586,3.218a122.54,122.54,0,0,1,2.93,14.275c2.226,19.7-2.186,37.889-13.433,54.232-12.443,18.081-29.588,29.363-51.139,33.4-42.3,7.914-82.9-18.227-92.518-60.189-6.952-30.332,1.6-56.612,24.4-77.8A76.281,76.281,0,0,1,78.532,0" transform="translate(0 0.001)" fill="#006fb0"/>
    <path id="Path_4401" data-name="Path 4401" d="M121.551,167.67a47.75,47.75,0,0,0,45.6-33.733,44.771,44.771,0,0,0,1.9-16.747c-.234-2.969,1.275-4.961,3.87-5.213,2.031-.2,3.877,1.559,4.123,4.342a49.548,49.548,0,0,1-2.52,20.529c-5.968,17.468-17.5,29.583-34.986,35.825-24.156,8.622-52.215-1.477-65.5-23.414-6.408-10.585-9.35-22.018-8.169-34.269,1.542-16,8.628-29.216,21.426-39.133a55.833,55.833,0,0,1,34.521-11.712,15.655,15.655,0,0,1,3.62.333,4.293,4.293,0,0,1,3.5,4.683c-.29,1.943-2.272,3.374-4.691,3.181a46.974,46.974,0,0,0-19.193,2.71c-17.094,5.866-30.131,23.025-31.226,41.071-.965,15.9,4.288,29.312,16.248,39.813a46.149,46.149,0,0,0,31.462,11.736" transform="translate(-41.128 -40.199)" fill="#006fb0"/>
    <path id="Path_4402" data-name="Path 4402" d="M264.277,37.372c4,0,7.71-.012,11.419,0,1.726.007,3.275.359,4.044,2.2.7,1.665.709,3.218-.635,4.563-7.945,7.953-15.854,15.941-23.91,23.78a6.759,6.759,0,0,1-4.107,1.4c-3.714.19-7.449-.043-11.165.13a5.472,5.472,0,0,0-3.308,1.384c-8.132,7.968-16.167,16.035-24.238,24.066a10.941,10.941,0,0,1-1.785,1.529,3.882,3.882,0,0,1-5.082-.533,3.793,3.793,0,0,1-.074-5.109,29.967,29.967,0,0,1,2.359-2.5c7.688-7.7,15.361-15.425,23.1-23.08a4.693,4.693,0,0,0,1.524-3.778c-.093-3.65-.209-7.316.055-10.949a7.752,7.752,0,0,1,1.824-4.546c7.431-7.653,15.047-15.127,22.576-22.686,1.443-1.448,3.032-2.2,5.012-1.369,1.927.806,2.411,2.472,2.4,4.4-.024,3.573-.007,7.146-.007,11.091M266.4,45.39c-2.128,0-3.623.019-5.116,0-3.511-.053-4.915-1.435-5.011-4.961-.041-1.527-.007-3.057-.007-4.889a8.209,8.209,0,0,0-1.087.69q-7.005,6.964-13.988,13.95c-.295.3-.7.682-.707,1.031-.054,3.322-.032,6.646-.032,10.1,3.076,0,5.868.1,8.646-.054a4.661,4.661,0,0,0,2.772-1.157c4.374-4.229,8.646-8.562,12.943-12.869.433-.434.807-.928,1.587-1.833" transform="translate(-128.155 -13.496)" fill="#b09d6d"/>
    <path id="Path_4403" data-name="Path 4403" d="M161.649,183.875a23.817,23.817,0,0,0,23.872-22.793c.073-1.786.271-3.641,2.078-4.371a5.832,5.832,0,0,1,3.812-.1c1.722.608,2.229,2.308,2.155,4.073a31.852,31.852,0,0,1-44.409,28.522c-12.5-5.6-19.018-15.574-19.321-29.2-.373-16.782,13.455-31.179,30.219-31.926,1.113-.05,2.554-.095,3.291.52a6.376,6.376,0,0,1,2.193,3.589A3.253,3.253,0,0,1,163,135.728a10.722,10.722,0,0,1-2.524.4,23.887,23.887,0,0,0,1.173,47.743" transform="translate(-81.367 -80.258)" fill="#006fb0"/>
  </g>
</svg>
