<svg id="Vision-icon" xmlns="http://www.w3.org/2000/svg" xmlns:xlink="http://www.w3.org/1999/xlink" width="160" height="172.252" viewBox="0 0 160 172.252">
  <defs>
    <clipPath id="clip-path">
      <rect id="Rectangle_2462" data-name="Rectangle 2462" width="160" height="172.252" fill="#006fb0"/>
    </clipPath>
  </defs>
  <g id="Group_5868" data-name="Group 5868" clip-path="url(#clip-path)">
    <path id="Path_4392" data-name="Path 4392" d="M83.079,204.329a81.75,81.75,0,0,1-25.823-3.954c-17.945-5.749-34.664-13.965-49.605-25.563a58.4,58.4,0,0,1-5.868-5.441c-2.364-2.424-2.4-4.779.046-7.191a72.026,72.026,0,0,1,8.16-7.212,157.945,157.945,0,0,1,55.732-25.941c12.217-2.955,24.153-1.691,35.989,1.969,18.608,5.754,35.849,14.175,51.173,26.3a54.047,54.047,0,0,1,5.465,5.224c2.147,2.255,2.287,4.58-.084,6.611-5.055,4.331-10.067,8.813-15.608,12.457A147.259,147.259,0,0,1,98.4,201.494c-6,1.545-12.206,2.274-15.321,2.835M49.363,165.877c.025,16.419,13.692,29.706,30.564,29.713,16.952.007,30.87-13.529,30.708-29.866-.164-16.461-13.812-29.71-30.641-29.746-16.934-.037-30.655,13.356-30.63,29.9M47.3,187.166a36.907,36.907,0,0,1-6.659-21.275,39.12,39.12,0,0,1,6.334-21.436c-13.181,5.469-25.618,11.984-36.5,21.293C17.8,172.706,39.747,185.5,47.3,187.166M149.3,166.007c-5.511-6.157-30.255-20.663-36.43-21.436,8.663,14.158,8.641,28.351-.3,42.973,13.414-5.861,25.833-12.228,36.726-21.537" transform="translate(0 -79.818)" fill="#006fb0"/>
    <path id="Path_4393" data-name="Path 4393" d="M212.848,396.885c0,3.264.028,6.529-.007,9.793-.034,3.12-1.762,5.013-4.454,4.971-2.6-.041-4.272-1.9-4.288-4.914q-.053-9.9,0-19.808c.018-3,1.729-4.843,4.341-4.858s4.354,1.834,4.4,4.8c.048,3.338.011,6.677.012,10.015" transform="translate(-127.867 -239.397)" fill="#006fb0"/>
    <path id="Path_4394" data-name="Path 4394" d="M209.444,14.733c0,3.339.024,6.678-.007,10.017-.028,2.971-1.728,4.838-4.342,4.852-2.6.014-4.36-1.846-4.38-4.822q-.067-9.905,0-19.811c.02-3.139,1.781-5.025,4.462-4.968,2.637.056,4.25,1.989,4.266,5.161.016,3.19,0,6.381,0,9.572" transform="translate(-125.743 0)" fill="#006fb0"/>
    <path id="Path_4395" data-name="Path 4395" d="M352.507,371.868c-1.083,1.255-1.891,2.763-3.149,3.507a3.922,3.922,0,0,1-4.879-.893q-5.732-5.574-11.48-11.133c-1.169-1.134-2.376-2.232-3.491-3.418-1.934-2.056-1.979-4.56-.188-6.334a4.2,4.2,0,0,1,6.152.107q7.564,7.193,14.965,14.554c.833.832,1.228,2.1,2.07,3.609" transform="translate(-205.528 -220.752)" fill="#006fb0"/>
    <path id="Path_4396" data-name="Path 4396" d="M34.73,371.821c.844-1.507,1.237-2.773,2.067-3.6,4.926-4.911,9.928-9.747,14.958-14.552a4.261,4.261,0,0,1,6.166-.027,4.193,4.193,0,0,1-.119,6.15c-4.987,4.956-10.047,9.838-15.1,14.731-1.419,1.375-3.25,1.863-4.881.838-1.236-.777-2.024-2.267-3.1-3.54" transform="translate(-21.761 -220.767)" fill="#006fb0"/>
    <path id="Path_4397" data-name="Path 4397" d="M40.083,44.563a20.2,20.2,0,0,1,3.585,2.1c4.842,4.573,9.61,9.226,14.377,13.879,2.265,2.21,2.538,4.771.793,6.657-1.776,1.919-4.343,1.9-6.639-.281-4.935-4.689-9.784-9.47-14.669-14.213-1.5-1.454-2.037-3.31-.993-5.037.75-1.24,2.26-2.022,3.544-3.1" transform="translate(-22.555 -27.922)" fill="#006fb0"/>
    <path id="Path_4398" data-name="Path 4398" d="M352.536,50a19.089,19.089,0,0,1-2.1,3.457q-7.3,7.308-14.75,14.463c-2.072,2-4.808,1.971-6.515.105s-1.566-4.293.483-6.313c4.85-4.783,9.752-9.513,14.617-14.28,1.475-1.445,3.315-2.09,5.038-1.062,1.3.776,2.13,2.348,3.224,3.63" transform="translate(-205.518 -28.742)" fill="#006fb0"/>
    <path id="Path_4399" data-name="Path 4399" d="M203.662,204.937a15.38,15.38,0,0,1-30.753-.041,15.378,15.378,0,0,1,30.753.041M188.3,198.5a6.375,6.375,0,1,0,6.655,6.3,6.467,6.467,0,0,0-6.655-6.3" transform="translate(-108.342 -118.877)" fill="#b09d6d"/>
  </g>
</svg>
