<svg id="riyadah-footer" xmlns="http://www.w3.org/2000/svg" xmlns:xlink="http://www.w3.org/1999/xlink" width="123.756" height="302.406" viewBox="0 0 123.756 302.406">
  <defs>
    <clipPath id="clip-path">
      <rect id="Rectangle_1" data-name="Rectangle 1" width="123.756" height="302.406" fill="none"/>
    </clipPath>
  </defs>
  <g id="Group_1" data-name="Group 1" clip-path="url(#clip-path)">
    <path id="Path_1" data-name="Path 1" d="M78.06,48.266c-.213-.951-.837-1.258-.96-.447a14.725,14.725,0,0,1-6.467,10.414c-7.949,4.59-13.8,6.381-18.946,8.294-3.09,1.151-8.678,2.925-12.5,6.582a14.108,14.108,0,0,0-4.235,11.343c.046.578.47,1.013,1.106.374,11.619-10.3,28.914-11.889,39.666-23.552.449-.491.774-.3.479.3C69.359,75.354,54.34,81.929,42.958,91.465c-7.4,6.042-11.762,14.832-9.141,24.8.58,1.057,1.083,1.243,1.61.636a8.706,8.706,0,0,0,.929-2.015c6.4-13.888,20.513-23.388,31.631-33.736C76.638,72.5,80.788,60.53,78.06,48.266" transform="translate(-2.112 -3.026)" fill="#957e4d"/>
    <path id="Path_2" data-name="Path 2" d="M66.49,42.407l1.38-.662c-2.5,8.882-13.354,6.286-19.208,11.062,2.631-6.992,11.466-7.891,17.828-10.4m-11.9,14.36c2.1-.537,7.785-1.47,9.359-2.362,4.6-2.608,4.843-9.274,6.028-14.075,5.54-5.038,4.761-13.255,3.6-18.235-.19-.684-.476-.852-.7-.771a.509.509,0,0,0-.291.4,3.009,3.009,0,0,0,.131,1.134c1.049,4.359-1.4,9.328-4.771,11.584A13.961,13.961,0,0,1,64.1,35.913c-4.446,1.236-9.434,3.068-13.006,6.172C44.632,47,44.4,56.317,44.56,63.634c1.708-4.03,5.769-5.766,10.035-6.867" transform="translate(-2.845 -1.361)" fill="#957e4d"/>
    <path id="Path_3" data-name="Path 3" d="M48.17,164.457c1.7-14.162,14.2-23.652,20.932-35.632A16.284,16.284,0,0,0,67,111.589s-.17-.19-.315-.2-.258.157-.218.42c.079.523.113.757.154,1.126,1.273,12.3-10.755,20.441-17.4,29.579a32.033,32.033,0,0,0-4.857,12.364c-.119.672-.652.388-.831-.253-5.325-18.964,5.887-34.307,20.7-50.47,7.582-8.121,15.545-16.616,20.056-26.514,4.855-13.518,1.6-29.18-4.12-41.185-1.4-2.512-3.212-7.559-4.4-7.215-.2.205-.2.6-.077,1.116.246,1.009,3.908,7.781,4.418,8.8,5.78,11.479,5.252,26.734-1.376,36.219-10.588,18.273-33.16,30.34-39.626,50.553-5.03,14.872.266,30.64,8.624,42.678,1.484,1.28.265-2.787.436-4.147" transform="translate(-2.374 -1.867)" fill="#957e4d"/>
    <path id="Path_4" data-name="Path 4" d="M92.023,108.491c6.4-14.5,6.062-34.8-1.89-48.385l-.6-.157c9.266,17.139,1.09,36.381-6.977,52.078-3.187,6.462-11.606,21.264-17.694,38.531a123.026,123.026,0,0,0-7.1,29.589,93.6,93.6,0,0,0,5.388,38.907c1.485,4.136,3.233,5.722,2.435,2.486a103.121,103.121,0,0,1-2.331-38.695c5-26.66,19.1-49.394,28.764-74.355" transform="translate(-3.673 -3.83)" fill="#957e4d"/>
    <path id="Path_5" data-name="Path 5" d="M71.307,7.858c.331-.925.28-1.88.543-2.823C73.393,1.151,68.268,1.85,66.667,0c-1.251,1.69-1.256,4.271-1.833,6.071l4.123,2.077-1.448,5.239c1.264.669,2.732,1.141,3.963,1.916a6.667,6.667,0,0,1,.865.662c.327.274.862.746,1.729,1.573a52.328,52.328,0,0,1,1.067-5.96c.216-2.209-2.614-2.443-3.825-3.719" transform="translate(-4.143 0)" fill="#006bb7"/>
    <path id="Path_6" data-name="Path 6" d="M49.154,190.78a18.281,18.281,0,0,1,3.178,5.361c-.652,2.409-3.186,3.185-4.818,4.75l-2.962-4.479c-1.109-1.361,1.2-1.77,1.861-2.557,5.555-2.369-1.2-5.218-1.643-7.982a19.96,19.96,0,0,0,4.335-3.861c1.092,1.6,2.567,2.866,3.308,4.625.228,2.2-2.484,2.553-3.26,4.143" transform="translate(-2.828 -11.63)" fill="#006bb7"/>
    <path id="Path_7" data-name="Path 7" d="M48.4,291.215v-1.2l-5.142.066c-.077.175-7.819,17.57-10.517,22.1-2.134,3.587-5.2,7.7-9.94,7.7h0a12.473,12.473,0,0,1-5.686-1.638l-.489.479.078.077a9.176,9.176,0,0,0,6.187,2.132l.256,0c4.052-.081,9.885-2.325,14.665-12.6,4.64-9.968,8.016-17.059,7.977-17.12Z" transform="translate(-1.063 -18.531)" fill="#957e4d"/>
    <path id="Path_8" data-name="Path 8" d="M30.595,291.164c1.118,0,1.526,1.276,1.532,1.3,0,0,2.2,4.955,4.367,9.833l.091.208,1.074-2.172c-.911-2.121-1.191-2.761-1.448-3.361-.382-.877-.726-1.664-3.061-6.955H28.774v1.166l.114,0s.727-.019,1.707-.019" transform="translate(-1.839 -18.531)" fill="#957e4d"/>
    <path id="Path_9" data-name="Path 9" d="M55.9,293.625c.627,1.433,1.753,4,2.87,6.535H53.033c1.113-2.531,2.241-5.1,2.866-6.535m8.514,12.254c-.735-1.7-2.821-6.568-4.487-10.447l-1.9-4.421h0l0,0-.491-.987h-5.5v1.166l.113,0s.742-.019,1.7-.019a1.584,1.584,0,0,1,1.253.652c-.534,1.253-5.229,12.289-6.04,14.063-1.073,2.319-2.319,3.265-4.309,3.265h-.108v1.141h8.33v-1.038H51.407a1.939,1.939,0,0,1-1.378-.765,2.1,2.1,0,0,1,.167-1.949c.453-.973,1.389-3.079,2.3-5.3l6.719-.066.842,1.89c.668,1.5,1.236,2.779,1.56,3.474a2.1,2.1,0,0,1,.162,1.953,1.9,1.9,0,0,1-1.362.761h-1.6v1.038H68.821v-1.141h-.108c-2.2,0-3.019-.252-4.3-3.265" transform="translate(-2.853 -18.531)" fill="#957e4d"/>
    <path id="Path_10" data-name="Path 10" d="M77.637,290.02H68.59v1.306h1.373c.077,0,1.882.083,1.882,3.616v15.343h2.8V291.369h2.909c.071,0,7.134.136,7.134,8.334,0,7.9-5.791,8.132-6.493,8.132h-.9v1.427h1.1c2.146,0,9.158-.666,9.158-9.211,0-9.547-8.262-10.03-9.92-10.03" transform="translate(-4.383 -18.531)" fill="#957e4d"/>
    <path id="Path_11" data-name="Path 11" d="M98,293.635c.627,1.434,1.753,4,2.871,6.524H95.143Zm29.922-2.479H129.3V290.02H123.23l.006,10.139h-8.264l0-10.139h-6v1.3h1.369c.067,0,1.654.069,1.854,2.969v12.147c0,2.352-1.14,2.662-1.988,2.691-1.794-.077-2.535-.534-3.7-3.254l-6.378-14.868-.008,0,.007-.015-.5-.979H94.142v1.165l.114,0s.74-.018,1.707-.018a1.585,1.585,0,0,1,1.251.654l-.227.537c-1.665,3.913-5.135,12.049-5.811,13.523-1.077,2.318-2.326,3.265-4.314,3.265h-.109v1.141h8.341v-1.039H93.5a1.916,1.916,0,0,1-1.365-.756,2.128,2.128,0,0,1,.162-1.96c.369-.79,1.061-2.352,1.86-4.147l.436-1.148,6.717-.066.575,1.3c.781,1.759,1.457,3.284,1.82,4.066a2.1,2.1,0,0,1,.169,1.953,1.905,1.905,0,0,1-1.363.76h-1.59v1.039h16.331v-.794h-.112a1.94,1.94,0,0,1-1.691-.666,4.168,4.168,0,0,1-.492-2.406l.011-5.185h8.264l.01,5.207a4.273,4.273,0,0,1-.49,2.413,1.914,1.914,0,0,1-1.689.654h-.11v.776H129.3v-1.061H127.92c-.077,0-1.885-.092-1.885-3.624l.009-10.813c0-3.529,1.807-3.627,1.881-3.631" transform="translate(-5.543 -18.531)" fill="#957e4d"/>
    <path id="Path_12" data-name="Path 12" d="M6.06,291.01H8.053a5.169,5.169,0,0,1,3.6,1.233,4.114,4.114,0,0,1,1.354,3.2,4.395,4.395,0,0,1-1.218,3.273,4.585,4.585,0,0,1-3.381,1.228l-2.349-.007Zm21.333,19.274v-.83h-.11A1.922,1.922,0,0,1,25.6,308.8a4.28,4.28,0,0,1-.49-2.417l.008-16.359H19.051V291.1h1.372c.018,0,1.885.092,1.885,3.624l.006,10.813c0,3.536-1.808,3.627-1.883,3.627h-.212v-.015l-.115,0c-.154.011-.281.011-.4.011v.106h0l-.161-.106a1.449,1.449,0,0,1-1.107-.5,17.843,17.843,0,0,1-2.507-3.472,26.544,26.544,0,0,0-2.278-3.381,8.378,8.378,0,0,0-1.6-1.488c2.642-.856,3.982-2.519,3.982-4.951a4.779,4.779,0,0,0-1.852-3.839,7.6,7.6,0,0,0-4.93-1.514H0V291.1H1.382c.075,0,1.877.095,1.877,3.62v10.813c0,3.536-1.8,3.624-1.874,3.624H0v1.126H8.347v-.83h-.11a1.931,1.931,0,0,1-1.692-.669,4.25,4.25,0,0,1-.485-2.406v-5.39H7.574a3.671,3.671,0,0,1,2.333.838,16.807,16.807,0,0,1,2.967,3.916,34.963,34.963,0,0,0,3.138,4.542Z" transform="translate(0 -18.531)" fill="#957e4d"/>
    <path id="Path_13" data-name="Path 13" d="M124.685,254.926l-.057.128c-.079.175-7.743,17.468-10.443,21.991-2.119,3.551-5.149,7.631-9.823,7.631a11.225,11.225,0,0,1-5.48-1.646l-.147-.08-.684.687.154.154a9.06,9.06,0,0,0,6.247,2.146h.248c4.085-.092,9.95-2.355,14.735-12.626,4.312-9.27,7.406-15.786,7.863-16.748l2.724-.019v-1.619Z" transform="translate(-6.265 -16.289)" fill="#006bb7"/>
    <path id="Path_14" data-name="Path 14" d="M100.8,279.81l-2.325-2.329L96.459,279.5l-2.015-2.018L92.12,279.81l2.324,2.329,2.015-2.011,2.019,2.011Z" transform="translate(-5.886 -17.73)" fill="#006bb7"/>
    <path id="Path_15" data-name="Path 15" d="M9.572,251.147l2.036,2.037,2.348-2.352L11.608,248.5l-2.036,2.029L7.53,248.5l-2.337,2.337,2.337,2.352Z" transform="translate(-0.332 -15.878)" fill="#006bb7"/>
    <path id="Path_16" data-name="Path 16" d="M45.354,269.912,45.34,262.9a7.856,7.856,0,0,0-2.251-5.2c-1.806-1.821-4.512-2.742-8.047-2.742l-7.865-.011v4.8h1.064v-2.056a1.059,1.059,0,0,1,.272-.712,1.509,1.509,0,0,1,1.121-.4h5.684c.27,0,6.617.069,6.617,6.311l.012,6.961c0,.77-.125,3.271-1.756,3.271l-12.065,0a2.84,2.84,0,0,1-1.461-.447,3.2,3.2,0,0,1-1.276-2.9v-.219H23.806v5.028H48.527v-1.444H46.545c-.011,0-1.124-.146-1.191-3.236" transform="translate(-1.521 -16.29)" fill="#006bb7"/>
    <path id="Path_17" data-name="Path 17" d="M9.49,272.784a6.424,6.424,0,0,1-3.374-1.06c-1.994-1.331-3-3.69-3-7.014,0-8.136,6.77-8.282,7.059-8.285H16.9l.012,16.357ZM14,252.285v1.075h1.886c.238,0,1.01.1,1.01,1.459l-6.807.062C8.4,254.881,0,255.375,0,265.051c0,8.709,7.139,9.386,9.325,9.386H19.959l0-22.152Z" transform="translate(0 -16.12)" fill="#006bb7"/>
    <path id="Path_18" data-name="Path 18" d="M108.593,272.945h-.218a3.269,3.269,0,0,1-2.407-.762,1.661,1.661,0,0,1-.5-1.129V258.87H99.146v1.067l2.079,0c.236,0,1.015.11,1.015,1.473l.031,11.522H61.691a6.829,6.829,0,0,1-5.118-1.842c-2.113-2.173-2.015-5.632-1.979-6.93.006-.168.01-.3.007-.384l-.027-8.981c0-1.353.8-1.5,1.131-1.451h2.044V252.27H51.422l0,11.5c-.135,3.9.62,6.637,2.3,8.381,2.194,2.267,5.54,2.267,7.983,2.267h46.889Z" transform="translate(-3.284 -16.119)" fill="#006bb7"/>
  </g>
</svg>
