<svg xmlns="http://www.w3.org/2000/svg" xmlns:xlink="http://www.w3.org/1999/xlink" width="32" height="32" viewBox="0 0 32 32">
  <defs>
    <clipPath id="clip-path">
      <rect id="Rectangle_2746" data-name="Rectangle 2746" width="32" height="32" transform="translate(1708 1020)" fill="#f5f9fc" stroke="#707070" stroke-width="1"/>
    </clipPath>
  </defs>
  <g id="Approval-icon" transform="translate(-1708 -1009)">
    <g id="Mask_Group_69" data-name="Mask Group 69" transform="translate(0 -11)" clip-path="url(#clip-path)">
      <g id="approval" transform="translate(1707.484 1019.484)">
        <path id="Path_4926" data-name="Path 4926" d="M18.065,23.226H13.419v-3.1a2.067,2.067,0,0,0-2.065-2.065h-.516a.516.516,0,0,0-.516.516v2.883L8.561,23.226h-3.4V1.548H23.742V5.161a.516.516,0,0,0,.516.516h3.613V16.516H28.9V5.161a.513.513,0,0,0-.152-.365L24.623.668a.513.513,0,0,0-.365-.152H4.645a.516.516,0,0,0-.516.516V23.226H.516v1.032H6.71v6.194H.516v1.032H8.652l1.956.978a.517.517,0,0,0,.231.054h6.194a1.55,1.55,0,0,0,1.548-1.548V23.742A.516.516,0,0,0,18.065,23.226Zm6.71-20.948,2.367,2.367H24.774Zm-7.226,28.69a.517.517,0,0,1-.516.516H10.961L9,30.506a.517.517,0,0,0-.231-.054H7.742V24.258H8.774a.515.515,0,0,0,.365-.151L11.2,22.042a.514.514,0,0,0,.151-.365V19.1a1.033,1.033,0,0,1,1.032,1.032v3.613a.516.516,0,0,0,.516.516h4.645V25.29H13.419v1.032h4.129v1.032H13.419v1.032h4.129v1.032H13.419v1.032h4.129Z" fill="#f5f9fc"/>
        <path id="Path_4927" data-name="Path 4927" d="M30.968,27.355h-.516v-.516A1.55,1.55,0,0,0,28.9,25.29H27.871v-.9a8.823,8.823,0,0,1,.926-3.924l.052-.1a.517.517,0,0,0,.054-.231v-.516a2.581,2.581,0,1,0-5.161,0v.516a.517.517,0,0,0,.054.231l.052.1a8.823,8.823,0,0,1,.926,3.924v.9H23.742a1.55,1.55,0,0,0-1.548,1.548v.516h-.516A1.55,1.55,0,0,0,20.129,28.9v1.032a.516.516,0,0,0,.516.516h.516V32a.516.516,0,0,0,.516.516h9.29A.516.516,0,0,0,31.484,32V30.452H32a.516.516,0,0,0,.516-.516V28.9a1.55,1.55,0,0,0-1.548-1.548Zm-6.194-7.348v-.394a1.548,1.548,0,0,1,3.1,0v.394a9.854,9.854,0,0,0-1.032,4.379v.9H25.806v-.9A9.853,9.853,0,0,0,24.774,20.007Zm-1.548,6.831a.517.517,0,0,1,.516-.516H28.9a.517.517,0,0,1,.516.516v.516H23.226Zm7.226,4.645H22.194V30.452h8.258Zm1.032-2.065H21.161V28.9a.517.517,0,0,1,.516-.516h9.29a.517.517,0,0,1,.516.516Z" fill="#f5f9fc"/>
        <path id="Path_4928" data-name="Path 4928" d="M6.194,2.581H22.71V3.613H6.194Z" fill="#f5f9fc"/>
        <path id="Path_4929" data-name="Path 4929" d="M6.194,4.645H22.71V5.677H6.194Z" fill="#f5f9fc"/>
        <path id="Path_4930" data-name="Path 4930" d="M6.194,6.71H22.71V7.742H6.194Z" fill="#f5f9fc"/>
        <path id="Path_4931" data-name="Path 4931" d="M24.258,14.452a5.677,5.677,0,1,0-5.677,5.677A5.684,5.684,0,0,0,24.258,14.452ZM18.581,19.1a4.645,4.645,0,1,1,4.645-4.645A4.65,4.65,0,0,1,18.581,19.1Z" fill="#f5f9fc"/>
        <path id="Path_4932" data-name="Path 4932" d="M18.392,16.114,16.881,14.6l-.73.73L18.216,17.4a.516.516,0,0,0,.365.151.506.506,0,0,0,.1-.011.516.516,0,0,0,.376-.314l2.065-5.161-.958-.383Z" fill="#f5f9fc"/>
      </g>
    </g>
  </g>
</svg>
