<svg xmlns="http://www.w3.org/2000/svg" xmlns:xlink="http://www.w3.org/1999/xlink" width="32" height="32" viewBox="0 0 32 32">
  <defs>
    <clipPath id="clip-path">
      <rect id="Rectangle_2741" data-name="Rectangle 2741" width="32" height="32" transform="translate(1708 941)" fill="#f5f9fc" stroke="#707070" stroke-width="1"/>
    </clipPath>
  </defs>
  <g id="Attend-icon" transform="translate(-1708 -930)">
    <g id="Mask_Group_68" data-name="Mask Group 68" transform="translate(0 -11)" clip-path="url(#clip-path)">
      <g id="verified-user" transform="translate(1707.5 940.5)">
        <path id="Path_4920" data-name="Path 4920" d="M10.9,27.7l-2.3-.45v-.3a5.372,5.372,0,0,0,1.8-2.65h0c.05-.2.1-.4.15-.55,1.15-3.9-1.1-6.55-3.9-6.55-2.85,0-4.95,2.65-3.9,6.45a5.68,5.68,0,0,0,2,3.3v.3l-2.3.45A2.411,2.411,0,0,0,.5,30.05V32a.5.5,0,0,0,.5.5H12.45a.5.5,0,0,0,.5-.5V30.05A2.407,2.407,0,0,0,10.9,27.7Zm-5.1-.25a3.083,3.083,0,0,0,1.9,0v.15a.949.949,0,0,1-.95.95.919.919,0,0,1-.95-.95Zm.9-9.3A3.18,3.18,0,0,1,9.9,21.3v.25c-.8-1.4-1.5-1.35-2.45-1.05a2.02,2.02,0,0,1-1.7,0,1.829,1.829,0,0,0-2.25.45,3.238,3.238,0,0,1,3.2-2.8Zm-2.9,5.4a3.075,3.075,0,0,0,.05-.65c.1-.85.1-1.05.65-1.5.25-.2.55-.1,1,.05a2.922,2.922,0,0,0,2.25,0c.35-.1.6-.2.75-.05a3.27,3.27,0,0,1,.95,2.65c-.45,1.3-1.55,2.6-2.8,2.6C5.35,26.65,4.15,25.05,3.8,23.55Zm8.15,8h-1.4v-1.3a.5.5,0,1,0-1,0v1.3H3.85v-1.3a.5.5,0,0,0-.5-.5.472.472,0,0,0-.5.5v1.3H1.45V30.1A1.491,1.491,0,0,1,2.7,28.65l2.2-.45a1.938,1.938,0,0,0,1.8,1.35A1.875,1.875,0,0,0,8.5,28.2l2.25.45a1.4,1.4,0,0,1,1.2,1.4Z" fill="#f5f9fc"/>
        <path id="Path_4921" data-name="Path 4921" d="M1,15.8H12.45a.5.5,0,0,0,.5-.5V13.35a2.421,2.421,0,0,0-2-2.4l-2.3-.45v-.3a5.372,5.372,0,0,0,1.8-2.65c.05-.2.1-.4.15-.55C11.75,3.15,9.5.5,6.7.5S1.75,3.05,2.8,6.95a5.68,5.68,0,0,0,2,3.3v.3L2.55,11A2.419,2.419,0,0,0,.5,13.4v1.95a.462.462,0,0,0,.5.45Zm4.8-5a3.083,3.083,0,0,0,1.9,0v.15a.949.949,0,0,1-.95.95.919.919,0,0,1-.95-.95Zm.9-9.35A3.18,3.18,0,0,1,9.9,4.6v.25c-.75-1.3-1.4-1.3-2.4-1a2.02,2.02,0,0,1-1.7,0,1.829,1.829,0,0,0-2.25.45A3.154,3.154,0,0,1,6.7,1.45ZM3.8,6.85c.15-1.4.05-1.55.7-2.15.25-.2.55-.1,1,.05a2.922,2.922,0,0,0,2.25,0c.35-.1.6-.2.75-.05a3.27,3.27,0,0,1,.95,2.65C9,8.65,7.9,9.95,6.65,9.95c-1.3.05-2.5-1.6-2.85-3.1ZM1.45,13.4A1.491,1.491,0,0,1,2.7,11.95l2.2-.45a1.938,1.938,0,0,0,1.8,1.35A1.875,1.875,0,0,0,8.5,11.5l2.25.45a1.4,1.4,0,0,1,1.2,1.4V14.8h-1.4V13.5a.5.5,0,1,0-1,0v1.3H3.85V13.5a.5.5,0,0,0-.5-.5.472.472,0,0,0-.5.5v1.3H1.45Z" fill="#f5f9fc"/>
        <path id="Path_4922" data-name="Path 4922" d="M30.5,27.7l-2.3-.45v-.3c3.15-2.4,3.45-9.75-1.9-9.75a4.14,4.14,0,0,0-4.15,4.15c.1,2.2.4,4.2,2.25,5.6v.3l-2.3.45a2.465,2.465,0,0,0-2.05,2.4V32a.5.5,0,0,0,.5.5H32a.5.5,0,0,0,.5-.5V30.05a2.408,2.408,0,0,0-2-2.35Zm-5.15-.25a3.083,3.083,0,0,0,1.9,0v.15a.95.95,0,1,1-1.9,0Zm.95-9.3a3.18,3.18,0,0,1,3.2,3.15v.25c-.8-1.45-1.55-1.35-2.45-1.05a2.02,2.02,0,0,1-1.7,0,1.829,1.829,0,0,0-2.25.45,3.2,3.2,0,0,1,3.2-2.8ZM23.35,23.5a2.869,2.869,0,0,0,.05-.6c.1-.85.1-1.05.65-1.5.25-.2.55-.1,1,.05a2.922,2.922,0,0,0,2.25,0c.35-.1.6-.2.75-.1a3.317,3.317,0,0,1,.95,2.7c-.45,1.3-1.55,2.6-2.8,2.6C24.9,26.65,23.7,25.05,23.35,23.5Zm8.2,8.05h-1.4v-1.3a.5.5,0,0,0-.5-.5.472.472,0,0,0-.5.5v1.3H23.4v-1.3a.5.5,0,0,0-.5-.5.472.472,0,0,0-.5.5v1.3H21V30.1a1.491,1.491,0,0,1,1.25-1.45l2.2-.45a1.938,1.938,0,0,0,1.8,1.35,1.875,1.875,0,0,0,1.8-1.35l2.25.45a1.4,1.4,0,0,1,1.2,1.4v1.5Z" fill="#f5f9fc"/>
        <path id="Path_4923" data-name="Path 4923" d="M30.5,11l-2.3-.45v-.3A5.372,5.372,0,0,0,30,7.6C31.4,2.8,28.95.5,26.3.5,23.5.5,21.35,3.1,22.4,7a5.557,5.557,0,0,0,2,3.25v.3L22.1,11a2.465,2.465,0,0,0-2.05,2.4v1.95a.5.5,0,0,0,.5.5H32a.5.5,0,0,0,.5-.5V13.4A2.421,2.421,0,0,0,30.5,11Zm-5.15-.2a3.083,3.083,0,0,0,1.9,0v.15a.95.95,0,0,1-1.9,0Zm.95-9.35A3.18,3.18,0,0,1,29.5,4.6v.25c-.8-1.35-1.5-1.3-2.45-1a2.02,2.02,0,0,1-1.7,0,1.829,1.829,0,0,0-2.25.45A3.24,3.24,0,0,1,26.3,1.45Zm-2.95,5.4a2.869,2.869,0,0,0,.05-.6c.1-.85.1-1.05.65-1.5.25-.2.55-.1,1,.05a2.922,2.922,0,0,0,2.25,0c.35-.1.6-.2.75-.1A3.317,3.317,0,0,1,29,7.4c-.4,1.3-1.5,2.6-2.7,2.6-1.4,0-2.6-1.65-2.95-3.15Zm8.2,8h-1.4v-1.3a.5.5,0,0,0-.5-.5.472.472,0,0,0-.5.5v1.3H23.4v-1.3a.5.5,0,0,0-.5-.5.472.472,0,0,0-.5.5v1.3H21V13.4a1.491,1.491,0,0,1,1.25-1.45l2.2-.45a1.938,1.938,0,0,0,1.8,1.35,1.875,1.875,0,0,0,1.8-1.35l2.25.45a1.4,1.4,0,0,1,1.2,1.4v1.5Z" fill="#f5f9fc"/>
        <path id="Path_4924" data-name="Path 4924" d="M16.5,16.05a4.65,4.65,0,1,0,4.65,4.65A4.673,4.673,0,0,0,16.5,16.05Zm0,8.3a3.65,3.65,0,1,1,3.65-3.65A3.67,3.67,0,0,1,16.5,24.35Z" fill="#f5f9fc"/>
        <path id="Path_4925" data-name="Path 4925" d="M18.1,19.15,16.05,21.2,14.9,20a.495.495,0,0,0-.7.7l1.5,1.5a.454.454,0,0,0,.35.15.54.54,0,0,0,.35-.15l2.4-2.4a.479.479,0,1,0-.7-.65Z" fill="#f5f9fc"/>
      </g>
    </g>
  </g>
</svg>
