<svg xmlns="http://www.w3.org/2000/svg" xmlns:xlink="http://www.w3.org/1999/xlink" width="32" height="32" viewBox="0 0 32 32">
  <defs>
    <clipPath id="clip-path">
      <rect id="Rectangle_2683" data-name="Rectangle 2683" width="32" height="32" transform="translate(1709 389)" fill="#f5f9fc" stroke="#707070" stroke-width="1"/>
    </clipPath>
  </defs>
  <g id="bank-account-icon" transform="translate(-1709 -377)">
    <g id="Mask_Group_43" data-name="Mask Group 43" transform="translate(0 -12)" clip-path="url(#clip-path)">
      <g id="bank-account" transform="translate(1709 389)">
        <g id="Group_6073" data-name="Group 6073">
          <path id="Path_4739" data-name="Path 4739" d="M30.377,20.888a.793.793,0,0,0,.793-.793V18.69a.793.793,0,0,0-.469-.723l-6.528-2.922V1.719A1.721,1.721,0,0,0,22.455,0H2.549A1.721,1.721,0,0,0,.83,1.719V29.591A1.721,1.721,0,0,0,2.549,31.31H13.695a.793.793,0,0,0,.785.69h15.9a.794.794,0,0,0,.793-.793V29.916a.794.794,0,0,0-.793-.793h-.24V20.888Zm-4.42,8.235V20.888h1.3v8.235Zm-10.3-8.235h1v8.235h-1Zm1.94,0h1.3v8.235H17.6Zm3.242,8.235h-1V20.888h1Zm.938-8.235h1.3v8.235h-1.3Zm3.242,8.235h-1V20.888h1Zm5.213-9.172H14.625V18.784l7.8-3.493,7.8,3.493ZM5.938.938H22.455a.782.782,0,0,1,.781.781V3.651H5.938Zm-4.17.781A.782.782,0,0,1,2.549.938H5V3.651H1.768Zm11.92,28.2v.457H2.549a.782.782,0,0,1-.781-.781v-25H23.236V14.626l-.484-.216a.794.794,0,0,0-.648,0l-7.948,3.557a.794.794,0,0,0-.469.723V20.1a.794.794,0,0,0,.793.793h.24v8.235h-.24A.794.794,0,0,0,13.688,29.916Zm16.545,1.147H14.625v-1H30.232ZM29.2,29.123h-1V20.888h1Z" fill="#f5f9fc"/>
          <path id="Path_4740" data-name="Path 4740" d="M20.908,17.8a1.52,1.52,0,1,0,1.52-1.52A1.522,1.522,0,0,0,20.908,17.8Zm2.1,0a.583.583,0,1,1-.583-.583A.584.584,0,0,1,23.012,17.8Z" fill="#f5f9fc"/>
          <path id="Path_4741" data-name="Path 4741" d="M8.768,5.815a4.94,4.94,0,1,0,4.94,4.94A4.945,4.945,0,0,0,8.768,5.815Zm0,8.942a3.977,3.977,0,0,1-2.024-.552,2.476,2.476,0,0,1,1.348-.943,2.591,2.591,0,0,0,1.352,0,2.476,2.476,0,0,1,1.348.943A3.977,3.977,0,0,1,8.768,14.757Zm-1.66-4a1.66,1.66,0,1,1,1.66,1.66A1.662,1.662,0,0,1,7.107,10.755Zm4.431,2.884a3.413,3.413,0,0,0-1.046-.943,2.6,2.6,0,1,0-3.449,0A3.411,3.411,0,0,0,6,13.639a4,4,0,1,1,5.542,0Z" fill="#f5f9fc"/>
          <path id="Path_4742" data-name="Path 4742" d="M6.672,23.575H5.3a.532.532,0,0,1-.531-.532.469.469,0,0,0-.937,0A1.471,1.471,0,0,0,5.3,24.513h.219v.448a.469.469,0,0,0,.938,0v-.448h.219a1.471,1.471,0,0,0,1.469-1.469v-.292a1.471,1.471,0,0,0-1.469-1.469H5.3a.532.532,0,0,1-.531-.531V20.46a.532.532,0,0,1,.531-.531H6.672a.532.532,0,0,1,.531.531.469.469,0,0,0,.938,0,1.471,1.471,0,0,0-1.469-1.469H6.453v-.448a.469.469,0,0,0-.937,0v.448H5.3A1.471,1.471,0,0,0,3.828,20.46v.292A1.471,1.471,0,0,0,5.3,22.22H6.672a.532.532,0,0,1,.531.531v.292A.532.532,0,0,1,6.672,23.575Z" fill="#f5f9fc"/>
          <path id="Path_4743" data-name="Path 4743" d="M12.376,18.457H9.438a.469.469,0,0,0,0,.938h2.939a.469.469,0,1,0,0-.937Z" fill="#f5f9fc"/>
          <path id="Path_4744" data-name="Path 4744" d="M12.376,20.448H9.438a.469.469,0,0,0,0,.938h2.939a.469.469,0,1,0,0-.937Z" fill="#f5f9fc"/>
          <path id="Path_4745" data-name="Path 4745" d="M12.376,22.439H9.438a.469.469,0,1,0,0,.938h2.939a.469.469,0,1,0,0-.937Z" fill="#f5f9fc"/>
          <path id="Path_4746" data-name="Path 4746" d="M12.376,24.429H9.438a.469.469,0,1,0,0,.938h2.939a.469.469,0,1,0,0-.937Z" fill="#f5f9fc"/>
          <path id="Path_4747" data-name="Path 4747" d="M12.376,26.894H4.3a.469.469,0,1,0,0,.938h8.08a.469.469,0,1,0,0-.937Z" fill="#f5f9fc"/>
          <path id="Path_4748" data-name="Path 4748" d="M15.156,8.133h5.551a.469.469,0,0,0,0-.937H15.156a.469.469,0,0,0,0,.938Z" fill="#f5f9fc"/>
          <path id="Path_4749" data-name="Path 4749" d="M15.156,10.505h1.271a.469.469,0,0,0,0-.937H15.156a.469.469,0,0,0,0,.938Z" fill="#f5f9fc"/>
          <path id="Path_4750" data-name="Path 4750" d="M20.707,9.568H17.96a.469.469,0,0,0,0,.938h2.747a.469.469,0,0,0,0-.937Z" fill="#f5f9fc"/>
          <path id="Path_4751" data-name="Path 4751" d="M15.156,12.878h5.551a.469.469,0,0,0,0-.937H15.156a.469.469,0,0,0,0,.938Z" fill="#f5f9fc"/>
        </g>
      </g>
    </g>
  </g>
</svg>
