<svg xmlns="http://www.w3.org/2000/svg" xmlns:xlink="http://www.w3.org/1999/xlink" width="32" height="32" viewBox="0 0 32 32">
  <defs>
    <clipPath id="clip-path">
      <rect id="Rectangle_2735" data-name="Rectangle 2735" width="32" height="32" transform="translate(1708 467)" fill="#f5f9fc" stroke="#707070" stroke-width="1"/>
    </clipPath>
  </defs>
  <g id="conditions-icon" transform="translate(-1708 -456)">
    <g id="Mask_Group_62" data-name="Mask Group 62" transform="translate(0 -11)" clip-path="url(#clip-path)">
      <g id="Layer_2" data-name="Layer 2" transform="translate(1706.14 465.14)">
        <path id="Path_4875" data-name="Path 4875" d="M25.3,33.86H4.465a2.608,2.608,0,0,1-2.6-2.6V4.465a2.608,2.608,0,0,1,2.6-2.6H25.3a2.608,2.608,0,0,1,2.6,2.6V20.837a1.116,1.116,0,1,1-2.233,0V4.465a.377.377,0,0,0-.372-.372H4.465a.377.377,0,0,0-.372.372V31.256a.377.377,0,0,0,.372.372H25.3a1.156,1.156,0,0,1,1.489.617,1.093,1.093,0,0,1-.584,1.446,2.418,2.418,0,0,1-.906.169Z" fill="#f5f9fc"/>
        <path id="Path_4876" data-name="Path 4876" d="M21.581,10.046H8.186a1.116,1.116,0,0,1,0-2.233h13.4a1.116,1.116,0,0,1,0,2.233Z" fill="#f5f9fc"/>
        <path id="Path_4877" data-name="Path 4877" d="M21.581,16H8.186a1.116,1.116,0,0,1,0-2.233h13.4a1.116,1.116,0,0,1,0,2.233Z" fill="#f5f9fc"/>
        <path id="Path_4878" data-name="Path 4878" d="M17.86,21.953H8.186a1.116,1.116,0,1,1,0-2.233H17.86a1.116,1.116,0,0,1,0,2.233Z" fill="#f5f9fc"/>
        <path id="Path_4879" data-name="Path 4879" d="M16.372,27.907H8.186a1.116,1.116,0,1,1,0-2.233h8.186a1.116,1.116,0,1,1,0,2.233Z" fill="#f5f9fc"/>
        <path id="Path_4880" data-name="Path 4880" d="M26.791,33.86a7.07,7.07,0,1,1,7.07-7.07,7.07,7.07,0,0,1-7.07,7.07Zm0-11.907a4.837,4.837,0,1,0,4.837,4.837,4.837,4.837,0,0,0-4.837-4.837Z" fill="#f5f9fc"/>
        <path id="Path_4881" data-name="Path 4881" d="M26.046,29.4a1.113,1.113,0,0,1-.789-.327L23.769,27.58A1.116,1.116,0,1,1,25.347,26l.7.7,2.188-2.187a1.116,1.116,0,1,1,1.578,1.578l-2.977,2.977A1.113,1.113,0,0,1,26.046,29.4Z" fill="#f5f9fc"/>
      </g>
    </g>
  </g>
</svg>
