<svg xmlns="http://www.w3.org/2000/svg" xmlns:xlink="http://www.w3.org/1999/xlink" width="32" height="32" viewBox="0 0 32 32">
  <defs>
    <clipPath id="clip-path">
      <rect id="Rectangle_2737" data-name="Rectangle 2737" width="32" height="32" transform="translate(1708 546)" fill="#f5f9fc" stroke="#707070" stroke-width="1"/>
    </clipPath>
  </defs>
  <g id="Credit-check" transform="translate(-1708 -535)">
    <g id="Mask_Group_63" data-name="Mask Group 63" transform="translate(0 -11)" clip-path="url(#clip-path)">
      <g id="report" transform="translate(1708 546)">
        <path id="Path_4882" data-name="Path 4882" d="M30.452,15.484H25.807V6.172a.984.984,0,0,0-.288-.695L20.329.288A.984.984,0,0,0,19.635,0H.692A.691.691,0,0,0,0,.692V31.308A.691.691,0,0,0,.692,32H25.115a.691.691,0,0,0,.692-.692v-2.4h4.645A1.549,1.549,0,0,0,32,27.357V17.032A1.55,1.55,0,0,0,30.452,15.484ZM20.133,1.545l4.133,4.133H20.133ZM1.032,30.968V1.032H19.1V6.193a.513.513,0,0,0,.513.513h5.16v8.777H13.936a1.551,1.551,0,0,0-1.549,1.548V27.355A1.55,1.55,0,0,0,13.936,28.9H24.775l.005,2.065Zm29.425-3.1H13.936a.516.516,0,0,1-.516-.516V21.208H30.968l.005,6.147A.516.516,0,0,1,30.457,27.871Zm-17.037-7.7V19.143H30.968l.005,1.032Zm0-2.064V17.032a.516.516,0,0,1,.516-.516H30.452a.517.517,0,0,1,.516.516l.005,1.079Z" fill="#f5f9fc"/>
        <path id="Path_4883" data-name="Path 4883" d="M22.372,25.809H14.647a.513.513,0,1,0,0,1.027h7.725a.513.513,0,0,0,0-1.027Z" fill="#f5f9fc"/>
        <path id="Path_4884" data-name="Path 4884" d="M14.695,24.771a.339.339,0,0,0,.052,0H16a.513.513,0,1,0,.052-1.025.339.339,0,0,0-.052,0H14.747a.513.513,0,0,0-.052,1.025Z" fill="#f5f9fc"/>
        <path id="Path_4885" data-name="Path 4885" d="M17.831,24.771a.339.339,0,0,0,.052,0h1.255a.513.513,0,0,0,0-1.025H17.883a.513.513,0,1,0-.052,1.025Z" fill="#f5f9fc"/>
        <path id="Path_4886" data-name="Path 4886" d="M20.968,24.771a.339.339,0,0,0,.052,0h1.253a.513.513,0,1,0,.052-1.025.339.339,0,0,0-.052,0H21.02a.513.513,0,1,0-.052,1.025Z" fill="#f5f9fc"/>
        <path id="Path_4887" data-name="Path 4887" d="M14.583,14.056a.338.338,0,0,0,.052,0H23.56a.513.513,0,1,0,.052-1.025.339.339,0,0,0-.052,0H14.635a.513.513,0,1,0-.052,1.025Z" fill="#f5f9fc"/>
        <path id="Path_4888" data-name="Path 4888" d="M14.635,9.165H23.56a.513.513,0,0,0,0-1.027H14.635a.513.513,0,0,0,0,1.027Z" fill="#f5f9fc"/>
        <path id="Path_4889" data-name="Path 4889" d="M14.635,11.611H23.56a.513.513,0,0,0,0-1.027H14.635a.513.513,0,0,0,0,1.027Z" fill="#f5f9fc"/>
        <path id="Path_4890" data-name="Path 4890" d="M11.172,14.971h-8.8a.513.513,0,0,0,0,1.027h8.8a.513.513,0,1,0,0-1.027Z" fill="#f5f9fc"/>
        <path id="Path_4891" data-name="Path 4891" d="M11.172,17.035h-8.8a.513.513,0,1,0,0,1.027h8.8a.513.513,0,1,0,0-1.027Z" fill="#f5f9fc"/>
        <path id="Path_4892" data-name="Path 4892" d="M9.023,20.133a.513.513,0,0,0,0-1.027H2.369a.513.513,0,0,0,0,1.027Z" fill="#f5f9fc"/>
        <path id="Path_4893" data-name="Path 4893" d="M7.493,13.263A5.663,5.663,0,1,0,1.829,7.6,5.662,5.662,0,0,0,7.493,13.263Zm0-10.3A4.633,4.633,0,1,1,2.86,7.6,4.634,4.634,0,0,1,7.493,2.967Z" fill="#f5f9fc"/>
        <path id="Path_4894" data-name="Path 4894" d="M6.476,8.831a.516.516,0,0,0-1.032.009,1.838,1.838,0,0,0,1.532,1.693v.519a.517.517,0,0,0,1.033,0v-.519a1.839,1.839,0,0,0,1.532-1.7A1.823,1.823,0,0,0,8,7.147V5.764a.713.713,0,0,1,.5.605A.516.516,0,1,0,9.536,6.36,1.834,1.834,0,0,0,8.009,4.667v-.52a.517.517,0,0,0-1.033,0v.52a1.837,1.837,0,0,0-1.532,1.7A1.82,1.82,0,0,0,6.98,8.053V9.436A.713.713,0,0,1,6.476,8.831ZM8,8.228a.712.712,0,0,1,.5.6.723.723,0,0,1-.5.6ZM6.476,6.364a.714.714,0,0,1,.5-.6v1.2A.725.725,0,0,1,6.476,6.364Z" fill="#f5f9fc"/>
        <path id="Path_4895" data-name="Path 4895" d="M29.44,23.739H26.3a.521.521,0,0,0-.52.52v2.064a.521.521,0,0,0,.52.52h3.136a.521.521,0,0,0,.521-.519h0V24.259A.521.521,0,0,0,29.44,23.739ZM28.919,25.8h-2.1V24.777h2.1Z" fill="#f5f9fc"/>
        <path id="Path_4896" data-name="Path 4896" d="M10.4,21.272,9.04,22.88a4.036,4.036,0,1,0,.695.768l1.449-1.713a.513.513,0,1,0-.783-.663ZM6.285,29.131A3.143,3.143,0,1,1,8.38,23.661L6.172,26.272l-.891-.891a.514.514,0,0,0-.727.727L5.84,27.393a.515.515,0,0,0,.363.149h.021a.52.52,0,0,0,.371-.181l2.433-2.876a3.1,3.1,0,0,1,.4,1.5A3.145,3.145,0,0,1,6.285,29.131Z" fill="#f5f9fc"/>
      </g>
    </g>
  </g>
</svg>
