<svg xmlns="http://www.w3.org/2000/svg" xmlns:xlink="http://www.w3.org/1999/xlink" width="32" height="32" viewBox="0 0 32 32">
  <defs>
    <clipPath id="clip-path">
      <rect id="Rectangle_2686" data-name="Rectangle 2686" width="32" height="32" transform="translate(1709 547)" fill="#f5f9fc" stroke="#707070" stroke-width="1"/>
    </clipPath>
  </defs>
  <g id="Feedback-icon" transform="translate(-1709 -536)">
    <g id="Mask_Group_45" data-name="Mask Group 45" transform="translate(0 -11)" clip-path="url(#clip-path)">
      <path id="Rating" d="M8.066,10.182a.729.729,0,0,1-.352-.091l-1.9-1.048-1.9,1.048a.727.727,0,0,1-1.069-.753l.37-2.269-1.562-1.6a.727.727,0,0,1,.411-1.227L4.2,3.916,5.16,1.873a.727.727,0,0,1,1.317,0l.959,2.043,2.129.325a.727.727,0,0,1,.411,1.227l-1.562,1.6.37,2.269a.727.727,0,0,1-.718.845Zm-2.248-2.7a.726.726,0,0,1,.352.091l.937.518L6.919,6.94a.727.727,0,0,1,.2-.625l.829-.85-1.113-.17a.729.729,0,0,1-.549-.41l-.465-.991-.465.991A.729.729,0,0,1,4.8,5.3l-1.113.17.829.85a.727.727,0,0,1,.2.625L4.529,8.094l.937-.518A.725.725,0,0,1,5.818,7.485Zm13.884,2.7a.729.729,0,0,1-.352-.091l-1.9-1.048-1.9,1.048a.727.727,0,0,1-1.069-.753l.37-2.269L13.3,5.468a.727.727,0,0,1,.411-1.227l2.129-.325L16.8,1.873a.727.727,0,0,1,1.317,0l.959,2.043,2.129.325a.727.727,0,0,1,.411,1.227l-1.562,1.6.37,2.269a.727.727,0,0,1-.718.845Zm-2.248-2.7a.726.726,0,0,1,.352.091l.937.518L18.555,6.94a.727.727,0,0,1,.2-.625l.829-.85-1.113-.17a.729.729,0,0,1-.549-.41l-.465-.991-.465.991a.729.729,0,0,1-.549.41l-1.113.17.829.85a.727.727,0,0,1,.2.625l-.188,1.153.937-.518A.725.725,0,0,1,17.454,7.485Zm13.884,2.7a.729.729,0,0,1-.352-.091l-1.9-1.048-1.9,1.048a.727.727,0,0,1-1.069-.753l.37-2.269-1.562-1.6a.727.727,0,0,1,.411-1.227l2.129-.325.959-2.043a.727.727,0,0,1,1.317,0l.959,2.043,2.129.325a.727.727,0,0,1,.411,1.227l-1.562,1.6.37,2.269a.727.727,0,0,1-.718.845Zm-2.248-2.7a.727.727,0,0,1,.352.091l.937.518L30.191,6.94a.727.727,0,0,1,.2-.625l.829-.85L30.1,5.295a.729.729,0,0,1-.549-.41l-.465-.991-.465.991a.729.729,0,0,1-.549.41l-1.113.17.829.85a.727.727,0,0,1,.2.625L27.8,8.094l.937-.518A.725.725,0,0,1,29.091,7.485Zm-2.909,11.06a2.169,2.169,0,0,0-.806.156A2.176,2.176,0,0,0,22.2,17.374a2.168,2.168,0,0,0-2.565-.883V13.818a2.182,2.182,0,1,0-4.364,0v6.189a3.614,3.614,0,0,0-2.182-.734.728.728,0,0,0-.727.727v5.455a8,8,0,0,0,16,0V20.727A2.184,2.184,0,0,0,26.182,18.545ZM20.364,32a6.553,6.553,0,0,1-6.545-6.545v-4.6a2.186,2.186,0,0,1,1.455,2.057v3.273a.727.727,0,0,0,1.455,0V13.818a.727.727,0,1,1,1.455,0v9.454a.727.727,0,0,0,1.455,0V18.545a.727.727,0,1,1,1.455,0v4.727a.727.727,0,0,0,1.455,0v-4a.727.727,0,0,1,1.455,0v4a.727.727,0,0,0,1.455,0V20.727a.727.727,0,0,1,1.455,0v4.727A6.553,6.553,0,0,1,20.364,32Z" transform="translate(1707.545 545.545)" fill="#f5f9fc"/>
    </g>
  </g>
</svg>
