<svg xmlns="http://www.w3.org/2000/svg" xmlns:xlink="http://www.w3.org/1999/xlink" width="32" height="32" viewBox="0 0 32 32">
  <defs>
    <clipPath id="clip-path">
      <rect id="Rectangle_2742" data-name="Rectangle 2742" width="32" height="32" transform="translate(1708 1336)" fill="#f5f9fc" stroke="#707070" stroke-width="1"/>
    </clipPath>
  </defs>
  <g id="financing-contract-icon" transform="translate(-1708 -1325)">
    <g id="Mask_Group_73" data-name="Mask Group 73" transform="translate(0 -11)" clip-path="url(#clip-path)">
      <g id="align_left" data-name="align left" transform="translate(1705.714 1333.714)">
        <path id="Path_4950" data-name="Path 4950" d="M28.571,34.286H8a3.429,3.429,0,0,1-3.429-3.429V5.714A3.429,3.429,0,0,1,8,2.286H28.571A3.429,3.429,0,0,1,32,5.714V30.857a3.429,3.429,0,0,1-3.429,3.429ZM8,4.571A1.143,1.143,0,0,0,6.857,5.714V30.857A1.143,1.143,0,0,0,8,32H28.571a1.143,1.143,0,0,0,1.143-1.143V5.714a1.143,1.143,0,0,0-1.143-1.143Z" fill="#f5f9fc"/>
        <path id="Path_4951" data-name="Path 4951" d="M20.571,10.286H11.429a1.143,1.143,0,0,1,0-2.286h9.143a1.143,1.143,0,0,1,0,2.286Z" fill="#f5f9fc"/>
        <path id="Path_4952" data-name="Path 4952" d="M25.143,19.429H11.429a1.143,1.143,0,1,1,0-2.286H25.143a1.143,1.143,0,0,1,0,2.286Z" fill="#f5f9fc"/>
        <path id="Path_4953" data-name="Path 4953" d="M25.143,28.571H11.429a1.143,1.143,0,0,1,0-2.286H25.143a1.143,1.143,0,0,1,0,2.286Z" fill="#f5f9fc"/>
        <path id="Path_4954" data-name="Path 4954" d="M25.143,14.857H11.429a1.143,1.143,0,0,1,0-2.286H25.143a1.143,1.143,0,0,1,0,2.286Z" fill="#f5f9fc"/>
        <path id="Path_4955" data-name="Path 4955" d="M25.143,24H11.429a1.143,1.143,0,0,1,0-2.286H25.143a1.143,1.143,0,0,1,0,2.286Z" fill="#f5f9fc"/>
      </g>
    </g>
  </g>
</svg>
