<svg xmlns="http://www.w3.org/2000/svg" xmlns:xlink="http://www.w3.org/1999/xlink" width="32" height="32" viewBox="0 0 32 32">
  <defs>
    <clipPath id="clip-path">
      <rect id="Rectangle_2680" data-name="Rectangle 2680" width="32" height="32" transform="translate(1708 701)" fill="#f5f9fc" stroke="#707070" stroke-width="1"/>
    </clipPath>
  </defs>
  <g id="Guarantees-icon" transform="translate(-1708 -693)">
    <g id="Mask_Group_40" data-name="Mask Group 40" transform="translate(0 -8)" clip-path="url(#clip-path)">
      <g id="surface1" transform="translate(1710.375 701)">
        <path id="Path_4706" data-name="Path 4706" d="M27.218,8.682V8.657c-.014-.307-.023-.633-.029-.994a3.392,3.392,0,0,0-3.193-3.322A13.16,13.16,0,0,1,15.038.565l-.021-.02a2.048,2.048,0,0,0-2.783,0l-.021.02A13.162,13.162,0,0,1,3.256,4.341,3.391,3.391,0,0,0,.062,7.663c-.005.359-.015.685-.029.994v.058c-.072,3.752-.16,8.421,1.4,12.659A16.114,16.114,0,0,0,5.3,27.4a20.223,20.223,0,0,0,7.565,4.475,2.343,2.343,0,0,0,.31.084,2.29,2.29,0,0,0,.9,0,2.35,2.35,0,0,0,.311-.085,20.237,20.237,0,0,0,7.557-4.477A16.137,16.137,0,0,0,25.81,21.37C27.378,17.119,27.289,12.441,27.218,8.682ZM24.048,20.72c-1.647,4.467-5.01,7.534-10.281,9.378a.472.472,0,0,1-.06.016.421.421,0,0,1-.165,0,.468.468,0,0,1-.059-.016C8.207,28.258,4.842,25.192,3.2,20.725c-1.44-3.906-1.358-8.193-1.286-11.974V8.73c.015-.325.024-.665.03-1.039A1.507,1.507,0,0,1,3.36,6.216a16.475,16.475,0,0,0,5.592-1.23,14.63,14.63,0,0,0,4.557-3.062.173.173,0,0,1,.232,0A14.635,14.635,0,0,0,18.3,4.986a16.475,16.475,0,0,0,5.592,1.23,1.507,1.507,0,0,1,1.42,1.476c.006.376.015.716.03,1.039C25.413,12.516,25.492,16.805,24.048,20.72Zm0,0" fill="#f5f9fc"/>
        <path id="Path_4707" data-name="Path 4707" d="M13.625,8.026A7.975,7.975,0,1,0,21.6,16,7.984,7.984,0,0,0,13.625,8.026Zm0,14.072a6.1,6.1,0,1,1,6.1-6.1A6.1,6.1,0,0,1,13.625,22.1Zm0,0" fill="#f5f9fc"/>
        <path id="Path_4708" data-name="Path 4708" d="M15.917,13.525l-3.7,3.7-1.005-1.005a.939.939,0,0,0-1.328,1.328l1.669,1.669a.939.939,0,0,0,1.328,0l4.368-4.368a.939.939,0,1,0-1.328-1.328Zm0,0" fill="#f5f9fc"/>
      </g>
    </g>
  </g>
</svg>
