<svg xmlns="http://www.w3.org/2000/svg" xmlns:xlink="http://www.w3.org/1999/xlink" width="32" height="32" viewBox="0 0 32 32">
  <defs>
    <clipPath id="clip-path">
      <rect id="Rectangle_2739" data-name="Rectangle 2739" width="32" height="32" transform="translate(1708 783)" fill="#f5f9fc" stroke="#707070" stroke-width="1"/>
    </clipPath>
  </defs>
  <g id="paycard-icon" transform="translate(-1708 -771)">
    <g id="Mask_Group_66" data-name="Mask Group 66" transform="translate(0 -12)" clip-path="url(#clip-path)">
      <g id="cashless-payment" transform="translate(1708 783)">
        <g id="Group_6082" data-name="Group 6082">
          <path id="Path_4909" data-name="Path 4909" d="M8.625,22.781a1.781,1.781,0,0,0,0,3.563H13.5a1.781,1.781,0,0,0,0-3.563Zm5.719,1.781a.845.845,0,0,1-.844.844H8.625a.844.844,0,0,1,0-1.688H13.5A.845.845,0,0,1,14.344,24.563Z" fill="#f5f9fc"/>
          <path id="Path_4910" data-name="Path 4910" d="M28.9,4.969H26.512a.469.469,0,0,0,0,.938H28.9a.759.759,0,0,1,.758.758V19.211a.759.759,0,0,1-.758.758H7.352a.759.759,0,0,1-.758-.758v-.628h5.031a2.094,2.094,0,0,0,0-4.187H6.594V6.664a.759.759,0,0,1,.758-.758H24.309a.469.469,0,0,0,0-.937h-3.59v-2A2.972,2.972,0,0,0,17.75,0H4.375A2.972,2.972,0,0,0,1.406,2.969v2.69a.469.469,0,0,0,.938,0V2.969A2.034,2.034,0,0,1,4.375.938H17.75a2.034,2.034,0,0,1,2.031,2.031v2h-.687v-2A1.345,1.345,0,0,0,17.75,1.625H15.244a.811.811,0,0,0-.766.546l-.3.874H7.948l-.3-.874a.811.811,0,0,0-.766-.546H4.375A1.345,1.345,0,0,0,3.031,2.969V29.031a1.345,1.345,0,0,0,1.344,1.344H17.75a1.345,1.345,0,0,0,1.344-1.344V27.566a.469.469,0,0,0-.937,0v1.466a.407.407,0,0,1-.406.406H4.375a.407.407,0,0,1-.406-.406V2.969a.407.407,0,0,1,.406-.406H6.791l.3.874a.811.811,0,0,0,.766.546h6.41a.811.811,0,0,0,.766-.546l.3-.874H17.75a.407.407,0,0,1,.406.406v2H7.352a1.7,1.7,0,0,0-1.7,1.7V19.211a1.7,1.7,0,0,0,1.7,1.7h10.8V25.38a.469.469,0,0,0,.938,0V20.906h.688v8.125a2.034,2.034,0,0,1-2.031,2.031H4.375a2.034,2.034,0,0,1-2.031-2.031V7.875a.469.469,0,0,0-.938,0V29.031A2.972,2.972,0,0,0,4.375,32H17.75a2.972,2.972,0,0,0,2.969-2.969V20.906H28.9a1.7,1.7,0,0,0,1.7-1.7V6.664a1.7,1.7,0,0,0-1.7-1.7ZM11.625,15.333a1.156,1.156,0,0,1,0,2.312H6.594V15.333Z" fill="#f5f9fc"/>
          <path id="Path_4911" data-name="Path 4911" d="M21.7,18.735a.469.469,0,0,0,.6-.271l.223-.586h1.534l.221.584a.469.469,0,0,0,.877-.331l-1.345-3.564-.005-.013a.549.549,0,0,0-.509-.341h0a.549.549,0,0,0-.509.342l0,.01L21.428,18.13a.469.469,0,0,0,.271.6Zm1.6-2.88.41,1.085h-.823Z" fill="#f5f9fc"/>
          <path id="Path_4912" data-name="Path 4912" d="M25.979,16.589l0,1.706a.469.469,0,0,0,.468.47h0a.469.469,0,0,0,.469-.468l0-1.708,1.07-1.643a.469.469,0,0,0-.786-.512l-.753,1.157-.762-1.166a.469.469,0,0,0-.785.513Z" fill="#f5f9fc"/>
          <path id="Path_4913" data-name="Path 4913" d="M18.776,18.3a.469.469,0,0,0,.938,0v-1.1l.538,0a1.489,1.489,0,1,0,0-2.978H19.245a.472.472,0,0,0-.469.47Zm1.475-3.146a.552.552,0,1,1,0,1.1l-.533,0c0-.465,0-.626,0-1.1h.536Z" fill="#f5f9fc"/>
          <path id="Path_4914" data-name="Path 4914" d="M9.313,7.406a.845.845,0,0,0-.844.844v2.5a.845.845,0,0,0,.844.844h3.875a.845.845,0,0,0,.844-.844V8.25a.845.845,0,0,0-.844-.844Zm3.781,3.25H9.406V8.344h3.688Z" fill="#f5f9fc"/>
          <path id="Path_4915" data-name="Path 4915" d="M17.119,9v.75a.469.469,0,0,0,.938,0V9A.469.469,0,0,0,17.119,9Z" fill="#f5f9fc"/>
          <path id="Path_4916" data-name="Path 4916" d="M25.319,10.223a.469.469,0,0,0,.469-.469V9a.469.469,0,0,0-.937,0v.75A.469.469,0,0,0,25.319,10.223Z" fill="#f5f9fc"/>
          <path id="Path_4917" data-name="Path 4917" d="M27.459,9.754V9a.469.469,0,0,0-.937,0v.75A.469.469,0,0,0,27.459,9.754Z" fill="#f5f9fc"/>
          <path id="Path_4918" data-name="Path 4918" d="M20.483,9.754V9a.469.469,0,0,0-.937,0v.75A.469.469,0,0,0,20.483,9.754Z" fill="#f5f9fc"/>
          <path id="Path_4919" data-name="Path 4919" d="M21.785,10.223a.469.469,0,0,0,.469-.469V9a.469.469,0,0,0-.937,0v.75A.469.469,0,0,0,21.785,10.223Z" fill="#f5f9fc"/>
        </g>
      </g>
    </g>
  </g>
</svg>
