<svg xmlns="http://www.w3.org/2000/svg" xmlns:xlink="http://www.w3.org/1999/xlink" width="32" height="32" viewBox="0 0 32 32">
  <defs>
    <clipPath id="clip-path">
      <rect id="Rectangle_2685" data-name="Rectangle 2685" width="32" height="32" transform="translate(1709 626)" fill="#f5f9fc" stroke="#707070" stroke-width="1"/>
    </clipPath>
  </defs>
  <g id="print-list-icon" transform="translate(-1709 -616)">
    <g id="Mask_Group_46" data-name="Mask Group 46" transform="translate(0 -10)" clip-path="url(#clip-path)">
      <g id="printer" transform="translate(1709 626)">
        <path id="Path_4754" data-name="Path 4754" d="M27.313,8.063h-.875V4.688A4.693,4.693,0,0,0,21.75,0H10.25A4.693,4.693,0,0,0,5.563,4.688V8.063H4.688A4.693,4.693,0,0,0,0,12.75v7.5a4.693,4.693,0,0,0,4.688,4.688h.875v4.25A2.816,2.816,0,0,0,8.375,32h15.25a2.816,2.816,0,0,0,2.813-2.812v-4.25h.875A4.693,4.693,0,0,0,32,20.25v-7.5A4.693,4.693,0,0,0,27.313,8.063ZM7.438,4.688A2.816,2.816,0,0,1,10.25,1.875h11.5a2.816,2.816,0,0,1,2.813,2.813V8.063H7.438Zm17.125,24.5a.939.939,0,0,1-.937.938H8.375a.939.939,0,0,1-.937-.937v-9.25H24.563Zm5.563-8.937a2.816,2.816,0,0,1-2.812,2.813h-.875V19.938H27a.938.938,0,0,0,0-1.875H5a.938.938,0,0,0,0,1.875h.563v3.125H4.688A2.816,2.816,0,0,1,1.875,20.25v-7.5A2.816,2.816,0,0,1,4.688,9.938H27.313a2.816,2.816,0,0,1,2.813,2.813Z" fill="#f5f9fc"/>
        <path id="Path_4755" data-name="Path 4755" d="M18.5,22.063h-5a.938.938,0,0,0,0,1.875h5a.938.938,0,0,0,0-1.875Z" fill="#f5f9fc"/>
        <path id="Path_4756" data-name="Path 4756" d="M18.5,26.063h-5a.938.938,0,0,0,0,1.875h5a.938.938,0,0,0,0-1.875Z" fill="#f5f9fc"/>
        <path id="Path_4757" data-name="Path 4757" d="M8,12.063H5a.938.938,0,0,0,0,1.875H8a.938.938,0,0,0,0-1.875Z" fill="#f5f9fc"/>
      </g>
    </g>
  </g>
</svg>
