<svg xmlns="http://www.w3.org/2000/svg" xmlns:xlink="http://www.w3.org/1999/xlink" width="32" height="32" viewBox="0 0 32 32">
  <defs>
    <clipPath id="clip-path">
      <rect id="Rectangle_2679" data-name="Rectangle 2679" width="32" height="32" transform="translate(1708 547)" fill="#f5f9fc" stroke="#707070" stroke-width="1"/>
    </clipPath>
  </defs>
  <g id="Project-elements-icon" transform="translate(-1708 -535)">
    <g id="Mask_Group_41" data-name="Mask Group 41" transform="translate(0 -12)" clip-path="url(#clip-path)">
      <g id="prioritize" transform="translate(1707.692 546.66)">
        <path id="Path_4709" data-name="Path 4709" d="M30.089,9.014H14.965a.358.358,0,0,1-.362-.362V.7A.358.358,0,0,1,14.965.34H30.089A.358.358,0,0,1,30.451.7V8.652A.358.358,0,0,1,30.089,9.014ZM15.327,8.29h14.4V1.064h-14.4Z" fill="#f5f9fc"/>
        <path id="Path_4710" data-name="Path 4710" d="M27.627,3.613H17.433a.362.362,0,0,1,0-.724H27.627a.358.358,0,0,1,.362.362A.363.363,0,0,1,27.627,3.613Z" fill="#f5f9fc"/>
        <path id="Path_4711" data-name="Path 4711" d="M27.627,6.465H17.433a.362.362,0,0,1,0-.724H27.627a.358.358,0,0,1,.362.362A.363.363,0,0,1,27.627,6.465Z" fill="#f5f9fc"/>
        <path id="Path_4712" data-name="Path 4712" d="M30.089,20.677H14.965a.358.358,0,0,1-.362-.362V12.373a.358.358,0,0,1,.362-.362H30.089a.358.358,0,0,1,.362.362v7.949A.357.357,0,0,1,30.089,20.677Zm-14.762-.724h14.4V12.728h-14.4Z" fill="#f5f9fc"/>
        <path id="Path_4713" data-name="Path 4713" d="M27.627,15.283H17.433a.362.362,0,0,1,0-.724H27.627a.358.358,0,0,1,.362.362A.363.363,0,0,1,27.627,15.283Z" fill="#f5f9fc"/>
        <path id="Path_4714" data-name="Path 4714" d="M27.627,18.129H17.433a.362.362,0,0,1,0-.724H27.627a.358.358,0,0,1,.362.362A.363.363,0,0,1,27.627,18.129Z" fill="#f5f9fc"/>
        <path id="Path_4715" data-name="Path 4715" d="M30.089,32.34H14.965a.358.358,0,0,1-.362-.362V24.036a.358.358,0,0,1,.362-.362H30.089a.358.358,0,0,1,.362.362v7.949a.357.357,0,0,1-.362.355Zm-14.762-.724h14.4V24.4h-14.4Z" fill="#f5f9fc"/>
        <path id="Path_4716" data-name="Path 4716" d="M27.627,26.947H17.433a.362.362,0,0,1,0-.724H27.627a.358.358,0,0,1,.362.362A.363.363,0,0,1,27.627,26.947Z" fill="#f5f9fc"/>
        <path id="Path_4717" data-name="Path 4717" d="M27.627,29.792H17.433a.362.362,0,0,1,0-.724H27.627a.358.358,0,0,1,.362.362A.363.363,0,0,1,27.627,29.792Z" fill="#f5f9fc"/>
        <path id="Path_4718" data-name="Path 4718" d="M12.858,28.373H6.74A4.581,4.581,0,0,1,2.165,23.8V8.391A4.581,4.581,0,0,1,6.74,3.815h6.118a.362.362,0,0,1,0,.724H6.74A3.859,3.859,0,0,0,2.889,8.391V23.8A3.859,3.859,0,0,0,6.74,27.649h6.118a.358.358,0,0,1,.362.362A.363.363,0,0,1,12.858,28.373Z" fill="#f5f9fc"/>
        <path id="Path_4719" data-name="Path 4719" d="M10.548,6.849A.34.34,0,0,1,10.3,6.74a.358.358,0,0,1,0-.514l2.049-2.049L10.3,2.129a.363.363,0,0,1,.514-.514l2.31,2.31a.358.358,0,0,1,0,.514l-2.31,2.31A.407.407,0,0,1,10.548,6.849Z" fill="#f5f9fc"/>
      </g>
    </g>
  </g>
</svg>
