<svg xmlns="http://www.w3.org/2000/svg" xmlns:xlink="http://www.w3.org/1999/xlink" width="32" height="32" viewBox="0 0 32 32">
  <defs>
    <clipPath id="clip-path">
      <rect id="Rectangle_2678" data-name="Rectangle 2678" width="32" height="32" transform="translate(1708 468)" fill="#f5f9fc" stroke="#707070" stroke-width="1"/>
    </clipPath>
  </defs>
  <g id="Project-form-icon" transform="translate(-1707 -456)">
    <g id="Mask_Group_42" data-name="Mask Group 42" transform="translate(-1 -12)" clip-path="url(#clip-path)">
      <g id="clipboard" transform="translate(1706.223 466.222)">
        <path id="Path_4720" data-name="Path 4720" d="M22.866,33.188H5.012a3.238,3.238,0,0,1-3.234-3.234V5.6A3.238,3.238,0,0,1,5.012,2.368H22.866A3.238,3.238,0,0,1,26.1,5.6V29.954a3.238,3.238,0,0,1-3.234,3.234ZM5.012,3.505a2.1,2.1,0,0,0-2.1,2.1V29.954a2.1,2.1,0,0,0,2.1,2.1H22.866a2.1,2.1,0,0,0,2.1-2.1V5.6a2.1,2.1,0,0,0-2.1-2.1Z" fill="#f5f9fc"/>
        <path id="Path_4721" data-name="Path 4721" d="M30.876,18.163l-2.285-.011a1.014,1.014,0,0,1-1.008-1.018l.03-8.038a2.2,2.2,0,0,1,2.049-2.23,2.127,2.127,0,0,1,1.594.6,2.163,2.163,0,0,1,.663,1.565l-.03,8.127a1.014,1.014,0,0,1-1.013,1.008ZM28.72,17.015l2.031.01.03-8A1.016,1.016,0,0,0,29.716,8a1.077,1.077,0,0,0-.965,1.1Z" fill="#f5f9fc"/>
        <path id="Path_4722" data-name="Path 4722" d="M29.678,31.937a.57.57,0,0,1-.482-.267l-.77-1.232a5.092,5.092,0,0,1-.775-2.727l.039-10.288a.571.571,0,0,1,.968-.407l2.158.01a.571.571,0,0,1,.964.415l-.039,10.289a5.093,5.093,0,0,1-.8,2.72l-.782,1.225A.569.569,0,0,1,29.678,31.937Zm-.854-13.784-.036,9.562a3.956,3.956,0,0,0,.6,2.12l.293.469.3-.467a3.955,3.955,0,0,0,.623-2.113l.036-9.563Z" fill="#f5f9fc"/>
        <path id="Path_4723" data-name="Path 4723" d="M31.179,26.862l-2.956-.014a.569.569,0,0,1,0-1.137l2.956.014a.569.569,0,0,1,0,1.137Z" fill="#f5f9fc"/>
        <path id="Path_4724" data-name="Path 4724" d="M31.189,24.9l-2.956-.014a.569.569,0,0,1,0-1.137l2.956.014a.569.569,0,0,1,0,1.137Z" fill="#f5f9fc"/>
        <path id="Path_4725" data-name="Path 4725" d="M29.675,32.552a.569.569,0,0,1-.569-.571l0-.615a.569.569,0,0,1,1.137.005l0,.615A.569.569,0,0,1,29.675,32.552Z" fill="#f5f9fc"/>
        <path id="Path_4726" data-name="Path 4726" d="M33.15,18.392a.57.57,0,0,1-.569-.574L32.64,11.6A.653.653,0,0,0,32,10.934l-1.834-.009a.569.569,0,0,1,0-1.137l1.849.009a1.79,1.79,0,0,1,1.766,1.814l-.059,6.219a.568.568,0,0,1-.568.563Z" fill="#f5f9fc"/>
        <path id="Path_4727" data-name="Path 4727" d="M10.391,11.984H5.357a.569.569,0,0,1-.569-.569V6.382a.569.569,0,0,1,.569-.569h5.034a.569.569,0,0,1,.569.569v5.034A.569.569,0,0,1,10.391,11.984ZM5.926,10.847h3.9V6.95h-3.9Z" fill="#f5f9fc"/>
        <path id="Path_4728" data-name="Path 4728" d="M10.391,20.863H5.357a.569.569,0,0,1-.569-.569V15.261a.569.569,0,0,1,.569-.569h5.034a.569.569,0,0,1,.569.569v5.034A.569.569,0,0,1,10.391,20.863ZM5.926,19.726h3.9v-3.9h-3.9Z" fill="#f5f9fc"/>
        <path id="Path_4729" data-name="Path 4729" d="M10.391,29.743H5.357a.569.569,0,0,1-.569-.569V24.14a.569.569,0,0,1,.569-.569h5.034a.569.569,0,0,1,.569.569v5.034A.569.569,0,0,1,10.391,29.743ZM5.926,28.606h3.9v-3.9h-3.9Z" fill="#f5f9fc"/>
        <path id="Path_4730" data-name="Path 4730" d="M7.579,10.32a.568.568,0,0,1-.407-.172l-.72-.738a.569.569,0,0,1,.814-.794l.248.255L8.429,7.61a.569.569,0,1,1,.921.667L8.04,10.086a.569.569,0,0,1-.419.233Z" fill="#f5f9fc"/>
        <path id="Path_4731" data-name="Path 4731" d="M7.579,19.2a.569.569,0,0,1-.407-.172l-.72-.738a.569.569,0,0,1,.814-.794l.248.255.914-1.262a.569.569,0,0,1,.921.667L8.04,18.965a.569.569,0,0,1-.419.233H7.579Z" fill="#f5f9fc"/>
        <path id="Path_4732" data-name="Path 4732" d="M7.579,28.079a.569.569,0,0,1-.407-.172l-.72-.738a.569.569,0,1,1,.814-.794l.248.255.914-1.262a.569.569,0,1,1,.921.667L8.04,27.844a.569.569,0,0,1-.419.233l-.042,0Z" fill="#f5f9fc"/>
        <path id="Path_4733" data-name="Path 4733" d="M22.529,11.984H13.336a.569.569,0,1,1,0-1.137h9.193a.569.569,0,0,1,0,1.137Z" fill="#f5f9fc"/>
        <path id="Path_4734" data-name="Path 4734" d="M20.121,9.416H13.336a.569.569,0,1,1,0-1.137h6.785a.569.569,0,1,1,0,1.137Z" fill="#f5f9fc"/>
        <path id="Path_4735" data-name="Path 4735" d="M22.524,20.812H13.332a.569.569,0,0,1,0-1.137h9.193a.569.569,0,1,1,0,1.137Z" fill="#f5f9fc"/>
        <path id="Path_4736" data-name="Path 4736" d="M20.117,18.245H13.332a.569.569,0,0,1,0-1.137h6.785a.569.569,0,0,1,0,1.137Z" fill="#f5f9fc"/>
        <path id="Path_4737" data-name="Path 4737" d="M22.52,29.641H13.327a.569.569,0,1,1,0-1.137H22.52a.569.569,0,1,1,0,1.137Z" fill="#f5f9fc"/>
        <path id="Path_4738" data-name="Path 4738" d="M20.113,27.073H13.327a.569.569,0,1,1,0-1.137h6.785a.569.569,0,1,1,0,1.137Z" fill="#f5f9fc"/>
      </g>
    </g>
  </g>
</svg>
