<svg xmlns="http://www.w3.org/2000/svg" xmlns:xlink="http://www.w3.org/1999/xlink" width="32" height="32" viewBox="0 0 32 32">
  <defs>
    <clipPath id="clip-path">
      <rect id="Rectangle_2656" data-name="Rectangle 2656" width="32" height="32" transform="translate(1728 303)" fill="#f5f9fc"/>
    </clipPath>
  </defs>
  <g id="Qualifications-icon" transform="translate(-1708 -614)">
    <g id="Mask_Group_28" data-name="Mask Group 28" transform="translate(-20 311)" clip-path="url(#clip-path)">
      <g id="qualification" transform="translate(1727.5 302.526)">
        <g id="Group_6056" data-name="Group 6056">
          <g id="Group_6047" data-name="Group 6047">
            <path id="Path_4517" data-name="Path 4517" d="M4.546,29.477a.617.617,0,0,1-.4-.2L2.7,27.128a.506.506,0,0,1,.849-.55L4.7,28.327l1.149-.749L4.5,26.479a.5.5,0,0,1,.6-.8l1.9,1.5a.454.454,0,0,1,.2.4.509.509,0,0,1-.25.4L4.8,29.377a.382.382,0,0,1-.25.1Z" fill="#f5f9fc"/>
          </g>
          <g id="Group_6048" data-name="Group 6048">
            <path id="Path_4518" data-name="Path 4518" d="M8.993,29.477a.374.374,0,0,1-.25-.05l-2.248-1.4a.509.509,0,0,1-.25-.4.454.454,0,0,1,.2-.4l2-1.5a.5.5,0,1,1,.6.8l-1.4,1.049,1.249.749,1.149-1.749a.506.506,0,0,1,.849.55L9.442,29.277a.9.9,0,0,1-.45.2Z" fill="#f5f9fc"/>
          </g>
          <g id="Group_6050" data-name="Group 6050">
            <g id="Group_6049" data-name="Group 6049">
              <path id="Path_4519" data-name="Path 4519" d="M6.695,25.28a3.582,3.582,0,0,1-3.6-3.6V20.534a.472.472,0,0,1,.5-.5.472.472,0,0,1,.5.5v1.149a2.6,2.6,0,1,0,5.2,0V20.334a.5.5,0,1,1,1,0v1.349a3.614,3.614,0,0,1-3.6,3.6Z" fill="#f5f9fc"/>
            </g>
          </g>
          <g id="Group_6051" data-name="Group 6051">
            <path id="Path_4520" data-name="Path 4520" d="M10.492,32.474H3a2.4,2.4,0,0,1-2.4-2.4V28.827a2.623,2.623,0,0,1,1.9-2.548l1.8-.55V24.181a.472.472,0,0,1,.5-.5.472.472,0,0,1,.5.5v1.948a.6.6,0,0,1-.35.5L2.8,27.278a1.664,1.664,0,0,0-1.2,1.6v1.249A1.387,1.387,0,0,0,3,31.475h7.494a1.4,1.4,0,0,0,1.4-1.4V28.827a1.664,1.664,0,0,0-1.2-1.6l-2.148-.649a.5.5,0,0,1-.35-.5v-1.9a.5.5,0,0,1,1,0V25.73l1.8.55a2.623,2.623,0,0,1,1.9,2.548v1.249a2.367,2.367,0,0,1-2.4,2.4Z" fill="#f5f9fc"/>
          </g>
          <g id="Group_6052" data-name="Group 6052">
            <path id="Path_4521" data-name="Path 4521" d="M6.695,32.474a.472.472,0,0,1-.5-.5v-4.3a.5.5,0,0,1,1,0v4.3A.472.472,0,0,1,6.695,32.474Z" fill="#f5f9fc"/>
          </g>
          <g id="Group_6053" data-name="Group 6053">
            <path id="Path_4522" data-name="Path 4522" d="M9.243,21.033h-5.1a1.5,1.5,0,0,1-1.5-1.5v-2.5a.472.472,0,0,1,.5-.5.472.472,0,0,1,.5.5v2.5a.5.5,0,0,0,.5.5h5.1a.5.5,0,0,0,.5-.5v-2.5a.5.5,0,0,1,1,0v2.5A1.472,1.472,0,0,1,9.243,21.033Z" fill="#f5f9fc"/>
          </g>
          <g id="Group_6054" data-name="Group 6054">
            <path id="Path_4523" data-name="Path 4523" d="M6.695,18.685h-.15l-5.1-1.7a.5.5,0,0,1-.35-.5.543.543,0,0,1,.35-.5l5.1-1.649a.318.318,0,0,1,.3,0l5.1,1.649a.5.5,0,0,1,.35.5.543.543,0,0,1-.35.5l-5.1,1.649c-.05,0-.1.05-.15.05ZM3.247,16.537l3.447,1.1,3.447-1.1-3.447-1.1Z" fill="#f5f9fc"/>
          </g>
          <g id="Group_6055" data-name="Group 6055">
            <path id="Path_4524" data-name="Path 4524" d="M1.649,19.135a.472.472,0,0,1-.5-.5v-2a.472.472,0,0,1,.5-.5.472.472,0,0,1,.5.5v2a.537.537,0,0,1-.5.5Z" fill="#f5f9fc"/>
          </g>
        </g>
        <g id="Group_6059" data-name="Group 6059">
          <g id="Group_6057" data-name="Group 6057">
            <path id="Path_4525" data-name="Path 4525" d="M27.628,28.228a.926.926,0,0,1-.35-.1.567.567,0,0,1-.15-.4V7.344a1.5,1.5,0,0,0-1.5-1.5H10.142a1.775,1.775,0,0,0-.5.1.486.486,0,0,1-.45-.05.617.617,0,0,1-.2-.4V5.4a2.472,2.472,0,0,1,2.1-2.748L26.479.5a2.5,2.5,0,0,1,1.849.5,2.442,2.442,0,0,1,.949,1.649l3.1,22.432a2.476,2.476,0,0,1-2.1,2.8l-2.548.35h-.1ZM10.142,4.846H25.63a2.505,2.505,0,0,1,2.5,2.5V27.128l1.948-.25a1.465,1.465,0,0,0,1.249-1.649L28.277,2.8a1.417,1.417,0,0,0-.6-1,1.43,1.43,0,0,0-1.1-.3L11.241,3.6A1.484,1.484,0,0,0,9.992,4.846c.05.05.1,0,.15,0Z" fill="#f5f9fc"/>
          </g>
          <g id="Group_6058" data-name="Group 6058">
            <path id="Path_4526" data-name="Path 4526" d="M25.63,32.474H10.142a.5.5,0,0,1,0-1H25.63a1.5,1.5,0,0,0,1.5-1.5V7.344a1.5,1.5,0,0,0-1.5-1.5H10.142a1.5,1.5,0,0,0-1.5,1.5v7.744a.5.5,0,1,1-1,0V7.344a2.505,2.505,0,0,1,2.5-2.5H25.63a2.505,2.505,0,0,1,2.5,2.5V29.976A2.474,2.474,0,0,1,25.63,32.474Z" fill="#f5f9fc"/>
          </g>
        </g>
        <g id="Group_6060" data-name="Group 6060">
          <path id="Path_4527" data-name="Path 4527" d="M17.236,9.143H11.591a.5.5,0,0,1,0-1h5.646a.5.5,0,0,1,0,1Z" fill="#f5f9fc"/>
        </g>
        <g id="Group_6061" data-name="Group 6061">
          <path id="Path_4528" data-name="Path 4528" d="M24.481,11.691H11.591a.5.5,0,1,1,0-1h12.89a.472.472,0,0,1,.5.5A.5.5,0,0,1,24.481,11.691Z" fill="#f5f9fc"/>
        </g>
        <g id="Group_6062" data-name="Group 6062">
          <path id="Path_4529" data-name="Path 4529" d="M24.481,14.239H11.591a.5.5,0,1,1,0-1h12.89a.472.472,0,0,1,.5.5A.5.5,0,0,1,24.481,14.239Z" fill="#f5f9fc"/>
        </g>
        <g id="Group_6063" data-name="Group 6063">
          <path id="Path_4530" data-name="Path 4530" d="M24.481,16.787H14.089a.5.5,0,0,1,0-1H24.481a.472.472,0,0,1,.5.5A.5.5,0,0,1,24.481,16.787Z" fill="#f5f9fc"/>
        </g>
        <g id="Group_6064" data-name="Group 6064">
          <path id="Path_4531" data-name="Path 4531" d="M16.487,19.335h-3.4a.5.5,0,1,1,0-1h3.4a.5.5,0,0,1,0,1Z" fill="#f5f9fc"/>
        </g>
        <g id="Group_6065" data-name="Group 6065">
          <path id="Path_4532" data-name="Path 4532" d="M15.937,21.883h-2.9a.5.5,0,1,1,0-1h2.9a.5.5,0,1,1,0,1Z" fill="#f5f9fc"/>
        </g>
        <g id="Group_6066" data-name="Group 6066">
          <path id="Path_4533" data-name="Path 4533" d="M16.237,24.431H13.09a.5.5,0,1,1,0-1h3.147a.5.5,0,1,1,0,1Z" fill="#f5f9fc"/>
        </g>
        <g id="Group_6067" data-name="Group 6067">
          <path id="Path_4534" data-name="Path 4534" d="M17.236,26.979H15.088a.5.5,0,1,1,0-1h2.148a.5.5,0,0,1,0,1Z" fill="#f5f9fc"/>
        </g>
        <g id="Group_6068" data-name="Group 6068">
          <path id="Path_4535" data-name="Path 4535" d="M17.236,29.526H15.088a.5.5,0,1,1,0-1h2.148a.5.5,0,0,1,0,1Z" fill="#f5f9fc"/>
        </g>
        <g id="Group_6072" data-name="Group 6072">
          <g id="Group_6069" data-name="Group 6069">
            <path id="Path_4536" data-name="Path 4536" d="M23.681,29.926a.71.71,0,0,1-.3-.1l-1.749-1.249-1.749,1.249a.591.591,0,0,1-.5.05.525.525,0,0,1-.25-.45V24.98a.5.5,0,1,1,1,0v3.5l1.249-.9a.635.635,0,0,1,.6,0l1.249.9v-3.3a.5.5,0,0,1,1,0v4.3a.525.525,0,0,1-.25.45h-.3Z" fill="#f5f9fc"/>
          </g>
          <g id="Group_6070" data-name="Group 6070">
            <path id="Path_4537" data-name="Path 4537" d="M21.633,26.129a4.1,4.1,0,1,1,4.1-4.1A4.115,4.115,0,0,1,21.633,26.129Zm0-7.244a3.1,3.1,0,1,0,3.1,3.1A3.113,3.113,0,0,0,21.633,18.885Z" fill="#f5f9fc"/>
          </g>
          <g id="Group_6071" data-name="Group 6071">
            <path id="Path_4538" data-name="Path 4538" d="M21.633,24.181a2.148,2.148,0,1,1,0-4.3,2.2,2.2,0,0,1,2.148,2.148A2.164,2.164,0,0,1,21.633,24.181Zm0-3.347a1.149,1.149,0,1,0,0,2.3,1.2,1.2,0,0,0,1.149-1.149A1.162,1.162,0,0,0,21.633,20.833Z" fill="#f5f9fc"/>
          </g>
        </g>
      </g>
    </g>
  </g>
</svg>
