<svg xmlns="http://www.w3.org/2000/svg" width="32.115" height="32" viewBox="0 0 32.115 32">
  <g id="Receiving-payments-icon" transform="translate(0.01 -0.092)">
    <path id="Path_5739" data-name="Path 5739" d="M14.633,9.973c.009,0,10.722.1,10.729.1A.536.536,0,0,0,25.353,9l-10.72.1a.437.437,0,0,0,0,.874Z" transform="translate(-6.598 -4.133)" fill="#f5f9fc"/>
    <path id="Path_5740" data-name="Path 5740" d="M14.633,15.973c.009,0,10.722.1,10.729.1A.536.536,0,0,0,25.353,15l-10.72.1a.437.437,0,0,0,0,.874Z" transform="translate(-6.598 -6.917)" fill="#f5f9fc"/>
    <path id="Path_5741" data-name="Path 5741" d="M30.357,21.973a.437.437,0,0,0,0-.874L25.533,21a.536.536,0,1,0,0,1.072Z" transform="translate(-11.602 -9.701)" fill="#f5f9fc"/>
    <path id="Path_5742" data-name="Path 5742" d="M14.53,22.072l3.752-.1a.437.437,0,0,0,0-.874c-.033,0-3.749-.1-3.78-.1a.536.536,0,0,0,.028,1.072Z" transform="translate(-6.495 -9.701)" fill="#f5f9fc"/>
    <path id="Path_5743" data-name="Path 5743" d="M14.631,27.973l13.408.1A.536.536,0,1,0,28.031,27l-13.4.1a.437.437,0,0,0,0,.874Z" transform="translate(-6.596 -12.486)" fill="#f5f9fc"/>
    <path id="Path_5744" data-name="Path 5744" d="M38.734,33.25a.545.545,0,0,0-1.072.2l.02.109a2.1,2.1,0,0,0-1.389,2.824,2.055,2.055,0,0,0,1.9,1.246,1.216,1.216,0,0,1,.874,2.055,1.27,1.27,0,0,1-2.164-.874.318.318,0,0,0-.635,0,1.9,1.9,0,0,0,1.438,1.878,1.377,1.377,0,0,0-.048.465.545.545,0,0,0,1.072-.2l-.044-.237a1.8,1.8,0,0,0,.908-.506,2.018,2.018,0,0,0-1.4-3.435,1.162,1.162,0,0,1-.8-1.978,1.107,1.107,0,0,1,1.868.8.536.536,0,1,0,1.072.019,2.136,2.136,0,0,0-1.334-1.975,2.063,2.063,0,0,0-.291-.1.833.833,0,0,0,.017-.289Z" transform="translate(-16.763 -15.182)" fill="#f5f9fc"/>
    <path id="Path_5745" data-name="Path 5745" d="M22.674,33l-8.04.1a.437.437,0,0,0,0,.874l8.04.1A.536.536,0,0,0,22.674,33Z" transform="translate(-6.599 -15.27)" fill="#f5f9fc"/>
    <path id="Path_5746" data-name="Path 5746" d="M22.674,39l-8.04.1a.437.437,0,0,0,0,.874l8.04.1A.536.536,0,0,0,22.674,39Z" transform="translate(-6.599 -18.054)" fill="#f5f9fc"/>
    <path id="Path_5747" data-name="Path 5747" d="M22.674,45l-8.04.1a.437.437,0,0,0,0,.874l8.04.1A.536.536,0,0,0,22.674,45Z" transform="translate(-6.599 -20.838)" fill="#f5f9fc"/>
    <path id="Path_5748" data-name="Path 5748" d="M.025,19.847A1.579,1.579,0,0,0,1.6,21.426c.011-.006,1.9-.032,2.783-.048-.123,3.109-.114,6.222-.077,9.331a1.046,1.046,0,0,0,1.727.768c.073-.066.419-.332.483-.394.217-.173.733-.6.948-.772a.055.055,0,0,1,.041-.014,4.491,4.491,0,0,1,.466.351c.325.255.989.763,1.315,1.016a1.219,1.219,0,0,0,1.083.4c.321-.058.6-.373.848-.563.445-.367,1.113-.922,1.559-1.287.109-.088.256.059.337.122l.329.254,1.315,1.016.165.127a.87.87,0,0,0,1.148.047c.527-.434,1.232-1.017,1.763-1.453.3-.252.358-.321.584-.167.114.082.37.3.49.385.326.256.978.771,1.305,1.027a.893.893,0,0,0,.985.263,5.648,5.648,0,0,0,.712-.539c.4-.322,1.059-.854,1.453-1.175.24-.2.427-.013.647.165l.326.257.647.52c.233.2.556.472.908.364a.787.787,0,0,0,.585-.842c.012-5.43.072-10.964.254-16.388a5.714,5.714,0,0,0,.075-11.4A2.706,2.706,0,0,0,24.058.094c-.5,0-1.857.027-2.376.031L3.154.364A2.211,2.211,0,0,0,2.33.321,2.524,2.524,0,0,0,.189,3.083l-.013.684C.11,7.51.01,12.367-.009,16.084-.017,17.217,0,18.37.02,19.505l.005.342ZM31.139,8.619a5,5,0,0,1-8.519,3.639,4.995,4.995,0,1,1,8.519-3.639ZM21.682,1.033l1.584.02.792.01a1.674,1.674,0,0,1,1.688,1.76,5.74,5.74,0,0,0-3.428,9.736A5.55,5.55,0,0,0,25.785,14.2c.185,5.427.239,10.959.254,16.392a.332.332,0,0,1-.481.385c-.073-.049-.207-.161-.308-.239-.431-.322-.892-.742-1.346-1.051a.847.847,0,0,0-.976.228l-.653.513c-.339.254-.928.756-1.261.978-.215.077-.3-.051-.5-.206l-.646-.522c-.22-.171-.753-.618-.969-.784a1.551,1.551,0,0,0-.409-.281.982.982,0,0,0-1,.292L16.179,30.92l-.329.254c-.122.1-.289.261-.443.125l-1.522-1.254c-.107-.089-.386-.318-.489-.4a.937.937,0,0,0-1.206.085l-.165.126-.658.507c-.284.222-.85.65-1.127.866-.1.071-.281-.163-.4-.245-.321-.264-.959-.794-1.282-1.056l-.322-.263a1.173,1.173,0,0,0-.579-.3,1.006,1.006,0,0,0-.746.175c-.457.355-1.077.837-1.532,1.192l-.005,0c0,.005-.006,0-.006,0s-.041-.017-.034-.023c.037-3.245.05-6.516-.092-9.759,0,0,0-.005,0-.009-.068-3.65-.183-7.3-.2-10.948-.014-1.365-.014-4.108,0-5.474,0-.491.03-1.6,0-2.08A2.357,2.357,0,0,0,4.1.805l17.578.227ZM.885,2.45a1.857,1.857,0,0,1,3.508-.528,8.262,8.262,0,0,1,.2,2.6L4.61,7.262c0,.881-.008,1.766-.015,2.652a4.424,4.424,0,0,0-1.92.041c-.531.409,1.181.483,1.918.332q0,.515-.011,1.029a5,5,0,0,0-2.086.044c-.564.413,1.289.482,2.08.329q-.006.516-.015,1.032a5.782,5.782,0,0,0-2.244.045c-.594.414,1.393.483,2.238.328-.005.346-.009.69-.015,1.036a6.953,6.953,0,0,0-1.062-.09,6.954,6.954,0,0,0-1.34.132c-.2.13-.12.227.1.293a4.354,4.354,0,0,0,.991.111,8.279,8.279,0,0,0,1.14-.048c.058-.007.109-.016.16-.025-.008.419-.017.837-.025,1.255a7.549,7.549,0,0,0-1.119-.087A7.851,7.851,0,0,0,1.96,15.8c-.181.123-.126.21.056.277a1.862,1.862,0,0,0,.386.08c.282.033.623.044.823.049A8.137,8.137,0,0,0,4.5,16.136c-.009.418-.016.836-.025,1.253A8.578,8.578,0,0,0,3.3,17.3a8.845,8.845,0,0,0-1.518.132c-.167.116-.133.2.01.26a1.723,1.723,0,0,0,.458.1c.367.039.815.045.969.049a7.732,7.732,0,0,0,1.249-.079c-.009.421-.018.838-.027,1.258a9.867,9.867,0,0,0-1.23-.085,9.965,9.965,0,0,0-1.608.131c-.153.109-.143.187-.038.243a1.644,1.644,0,0,0,.531.113c.451.044,1.007.037,1.115.049.407-.012.814-.019,1.221-.069-.008.371-.016.744-.025,1.114l-2.8-.051a.587.587,0,0,1-.546-.427.686.686,0,0,1-.019-.193l.005-.342C1.129,14.976.981,9.7.913,5.136c0-.755-.071-1.947-.028-2.686Z" transform="translate(0 0)" fill="#f5f9fc"/>
    <path id="Path_5749" data-name="Path 5749" d="M43.931,14.438a.437.437,0,0,0-.617.617L44.9,16.682a.46.46,0,0,0,.687-.035l3.816-4.788a.536.536,0,1,0-.846-.658l-3.38,4.455-1.247-1.218Z" transform="translate(-20.044 -5.056)" fill="#f5f9fc"/>
  </g>
</svg>
