<svg xmlns="http://www.w3.org/2000/svg" xmlns:xlink="http://www.w3.org/1999/xlink" width="32" height="32" viewBox="0 0 32 32">
  <defs>
    <clipPath id="clip-path">
      <rect id="Rectangle_2734" data-name="Rectangle 2734" width="32" height="32" transform="translate(1708 388)" fill="#f5f9fc" stroke="#707070" stroke-width="1"/>
    </clipPath>
  </defs>
  <g id="Request-data-icon" transform="translate(-1708 -376)">
    <g id="Mask_Group_61" data-name="Mask Group 61" transform="translate(0 -12)" clip-path="url(#clip-path)">
      <g id="surface1" transform="translate(1709.444 388)">
        <path id="Path_4872" data-name="Path 4872" d="M21.809,13.853V7.8a.7.7,0,0,0-.193-.46L14.826.207A.677.677,0,0,0,14.339,0H3.575A3.586,3.586,0,0,0,0,3.608V23.963a3.564,3.564,0,0,0,3.575,3.582h8.5a9.172,9.172,0,1,0,9.737-13.692Zm-6.8-11.512,4.555,4.8H16.607a1.611,1.611,0,0,1-1.6-1.607ZM3.575,26.211a2.234,2.234,0,0,1-2.241-2.248V3.608A2.253,2.253,0,0,1,3.575,1.334h10.1v4.2A2.94,2.94,0,0,0,16.607,8.47h3.868v5.209c-.2-.007-.36-.027-.533-.027a9.306,9.306,0,0,0-6.083,2.294H5.389a.667.667,0,1,0,0,1.334h7.23a10.612,10.612,0,0,0-1.174,2.068H5.389a.667.667,0,0,0,0,1.334h5.622a9.153,9.153,0,0,0,.4,5.536H3.575Zm16.36,4.462a7.837,7.837,0,1,1,7.836-7.837A7.845,7.845,0,0,1,19.935,30.673Zm0,0" fill="#f5f9fc"/>
        <path id="Path_4873" data-name="Path 4873" d="M5.389,13.939h6.756a.667.667,0,1,0,0-1.334H5.389a.667.667,0,1,0,0,1.334Zm0,0" fill="#f5f9fc"/>
        <path id="Path_4874" data-name="Path 4874" d="M20.408,17.914a.662.662,0,0,0-.974,0l-3.908,4.2a.665.665,0,0,0,.033.94.681.681,0,0,0,.954-.033l2.761-2.955v7.283a.667.667,0,1,0,1.334,0V20.062l2.741,2.955a.665.665,0,0,0,.974-.907Zm0,0" fill="#f5f9fc"/>
      </g>
    </g>
  </g>
</svg>
