<svg xmlns="http://www.w3.org/2000/svg" xmlns:xlink="http://www.w3.org/1999/xlink" width="32" height="32" viewBox="0 0 32 32">
  <defs>
    <clipPath id="clip-path">
      <rect id="Rectangle_2738" data-name="Rectangle 2738" width="32" height="32" transform="translate(1708 704)" fill="#f5f9fc" stroke="#f5f9fc" stroke-width="1"/>
    </clipPath>
  </defs>
  <g id="result-icon" transform="translate(-1708 -693)">
    <g id="Mask_Group_65" data-name="Mask Group 65" transform="translate(0 -11)" clip-path="url(#clip-path)">
      <g id="best" transform="translate(1707.5 703.5)">
        <g id="Group_6078" data-name="Group 6078">
          <line id="Line_43" data-name="Line 43" y2="6.25" transform="translate(24.7 20.95)" fill="none" stroke="#f5f9fc" stroke-linecap="round" stroke-linejoin="round" stroke-width="1"/>
          <path id="Path_4897" data-name="Path 4897" d="M19.75,32H7.5a2.006,2.006,0,0,1-2-2V7.9a2.006,2.006,0,0,1,2-2H22.7a2.006,2.006,0,0,1,2,2v.3" fill="none" stroke="#f5f9fc" stroke-linecap="round" stroke-linejoin="round" stroke-width="1"/>
          <path id="Path_4898" data-name="Path 4898" d="M19.85,29.2V32l4.8-4.8h-2.8A2.006,2.006,0,0,0,19.85,29.2Z" fill="none" stroke="#f5f9fc" stroke-linecap="round" stroke-linejoin="round" stroke-width="1"/>
        </g>
        <g id="Group_6079" data-name="Group 6079">
          <path id="Path_4899" data-name="Path 4899" d="M5.5,29.3H4.8a2.006,2.006,0,0,1-2-2V5.2a2.006,2.006,0,0,1,2-2H20a2.006,2.006,0,0,1,2,2v.55" fill="none" stroke="#f5f9fc" stroke-linecap="round" stroke-linejoin="round" stroke-width="1"/>
        </g>
        <path id="Path_4900" data-name="Path 4900" d="M7.2,3.2V3.15A2.134,2.134,0,0,1,9.35,1h0A2.134,2.134,0,0,1,11.5,3.15v5.2A1.056,1.056,0,0,1,10.45,9.4h0A1.056,1.056,0,0,1,9.4,8.35v-.6" fill="none" stroke="#f5f9fc" stroke-linecap="round" stroke-linejoin="round" stroke-width="1"/>
        <path id="Path_4901" data-name="Path 4901" d="M27.9,16.5v5.1l-2.1-1.55L23.75,21.6V16.5" fill="none" stroke="#f5f9fc" stroke-linecap="round" stroke-linejoin="round" stroke-width="1"/>
        <circle id="Ellipse_42" data-name="Ellipse 42" cx="4.4" cy="4.4" r="4.4" transform="translate(21.4 8.15)" fill="none" stroke="#f5f9fc" stroke-linecap="round" stroke-linejoin="round" stroke-width="1"/>
        <path id="Path_4902" data-name="Path 4902" d="M25.8,10.25l.7,1.4,1.55.2-1.1,1.1.25,1.5-1.4-.7-1.35.7.25-1.5-1.1-1.1,1.55-.2Z" fill="none" stroke="#f5f9fc" stroke-linecap="round" stroke-linejoin="round" stroke-width="1"/>
        <line id="Line_44" data-name="Line 44" x2="1.9" y2="6.05" transform="translate(13.15 23.75)" fill="none" stroke="#f5f9fc" stroke-linecap="round" stroke-linejoin="round" stroke-width="1"/>
        <line id="Line_45" data-name="Line 45" y1="6.05" x2="1.85" transform="translate(11.3 23.75)" fill="none" stroke="#f5f9fc" stroke-linecap="round" stroke-linejoin="round" stroke-width="1"/>
        <line id="Line_46" data-name="Line 46" x2="2.15" transform="translate(12.05 27.3)" fill="none" stroke="#f5f9fc" stroke-linecap="round" stroke-linejoin="round" stroke-width="1"/>
        <line id="Line_47" data-name="Line 47" y2="2.35" transform="translate(16.5 22.9)" fill="none" stroke="#f5f9fc" stroke-linecap="round" stroke-linejoin="round" stroke-width="1"/>
        <line id="Line_48" data-name="Line 48" x2="2.35" transform="translate(15.35 24.1)" fill="none" stroke="#f5f9fc" stroke-linecap="round" stroke-linejoin="round" stroke-width="1"/>
        <line id="Line_49" data-name="Line 49" x2="4.35" transform="translate(8.45 11.65)" fill="none" stroke="#f5f9fc" stroke-linecap="round" stroke-linejoin="round" stroke-width="1"/>
        <line id="Line_50" data-name="Line 50" x2="10.95" transform="translate(8.45 14.6)" fill="none" stroke="#f5f9fc" stroke-linecap="round" stroke-linejoin="round" stroke-width="1"/>
        <line id="Line_51" data-name="Line 51" x2="12.6" transform="translate(8.45 17.55)" fill="none" stroke="#f5f9fc" stroke-linecap="round" stroke-linejoin="round" stroke-width="1"/>
        <line id="Line_52" data-name="Line 52" x2="12.6" transform="translate(8.45 20.45)" fill="none" stroke="#f5f9fc" stroke-linecap="round" stroke-linejoin="round" stroke-width="1"/>
        <g id="Group_6080" data-name="Group 6080">
          <line id="Line_53" data-name="Line 53" y2="6.25" transform="translate(24.7 20.95)" fill="none" stroke="#f5f9fc" stroke-linecap="round" stroke-linejoin="round" stroke-width="1"/>
          <path id="Path_4903" data-name="Path 4903" d="M19.75,32H7.5a2.006,2.006,0,0,1-2-2V7.9a2.006,2.006,0,0,1,2-2H22.7a2.006,2.006,0,0,1,2,2v.3" fill="none" stroke="#f5f9fc" stroke-linecap="round" stroke-linejoin="round" stroke-width="1"/>
          <path id="Path_4904" data-name="Path 4904" d="M19.85,29.2V32l4.8-4.8h-2.8A2.006,2.006,0,0,0,19.85,29.2Z" fill="none" stroke="#f5f9fc" stroke-linecap="round" stroke-linejoin="round" stroke-width="1"/>
        </g>
        <g id="Group_6081" data-name="Group 6081">
          <path id="Path_4905" data-name="Path 4905" d="M5.5,29.3H4.8a2.006,2.006,0,0,1-2-2V5.2a2.006,2.006,0,0,1,2-2H20a2.006,2.006,0,0,1,2,2v.55" fill="none" stroke="#f5f9fc" stroke-linecap="round" stroke-linejoin="round" stroke-width="1"/>
        </g>
        <path id="Path_4906" data-name="Path 4906" d="M7.2,3.2V3.15A2.134,2.134,0,0,1,9.35,1h0A2.134,2.134,0,0,1,11.5,3.15v5.2A1.056,1.056,0,0,1,10.45,9.4h0A1.056,1.056,0,0,1,9.4,8.35v-.6" fill="none" stroke="#f5f9fc" stroke-linecap="round" stroke-linejoin="round" stroke-width="1"/>
        <path id="Path_4907" data-name="Path 4907" d="M27.9,16.5v5.1l-2.1-1.55L23.75,21.6V16.5" fill="none" stroke="#f5f9fc" stroke-linecap="round" stroke-linejoin="round" stroke-width="1"/>
        <circle id="Ellipse_43" data-name="Ellipse 43" cx="4.4" cy="4.4" r="4.4" transform="translate(21.4 8.15)" fill="none" stroke="#f5f9fc" stroke-linecap="round" stroke-linejoin="round" stroke-width="1"/>
        <path id="Path_4908" data-name="Path 4908" d="M25.8,10.25l.7,1.4,1.55.2-1.1,1.1.25,1.5-1.4-.7-1.35.7.25-1.5-1.1-1.1,1.55-.2Z" fill="none" stroke="#f5f9fc" stroke-linecap="round" stroke-linejoin="round" stroke-width="1"/>
        <line id="Line_54" data-name="Line 54" x2="1.9" y2="6.05" transform="translate(13.15 23.75)" fill="none" stroke="#f5f9fc" stroke-linecap="round" stroke-linejoin="round" stroke-width="1"/>
        <line id="Line_55" data-name="Line 55" y1="6.05" x2="1.85" transform="translate(11.3 23.75)" fill="none" stroke="#f5f9fc" stroke-linecap="round" stroke-linejoin="round" stroke-width="1"/>
        <line id="Line_56" data-name="Line 56" x2="2.15" transform="translate(12.05 27.3)" fill="none" stroke="#f5f9fc" stroke-linecap="round" stroke-linejoin="round" stroke-width="1"/>
        <line id="Line_57" data-name="Line 57" y2="2.35" transform="translate(16.5 22.9)" fill="none" stroke="#f5f9fc" stroke-linecap="round" stroke-linejoin="round" stroke-width="1"/>
        <line id="Line_58" data-name="Line 58" x2="2.35" transform="translate(15.35 24.1)" fill="none" stroke="#f5f9fc" stroke-linecap="round" stroke-linejoin="round" stroke-width="1"/>
        <line id="Line_59" data-name="Line 59" x2="4.35" transform="translate(8.45 11.65)" fill="none" stroke="#f5f9fc" stroke-linecap="round" stroke-linejoin="round" stroke-width="1"/>
        <line id="Line_60" data-name="Line 60" x2="10.95" transform="translate(8.45 14.6)" fill="none" stroke="#f5f9fc" stroke-linecap="round" stroke-linejoin="round" stroke-width="1"/>
        <line id="Line_61" data-name="Line 61" x2="12.6" transform="translate(8.45 17.55)" fill="none" stroke="#f5f9fc" stroke-linecap="round" stroke-linejoin="round" stroke-width="1"/>
        <line id="Line_62" data-name="Line 62" x2="12.6" transform="translate(8.45 20.45)" fill="none" stroke="#f5f9fc" stroke-linecap="round" stroke-linejoin="round" stroke-width="1"/>
      </g>
    </g>
  </g>
</svg>
