<svg xmlns="http://www.w3.org/2000/svg" xmlns:xlink="http://www.w3.org/1999/xlink" width="32" height="32" viewBox="0 0 32 32">
  <defs>
    <clipPath id="clip-path">
      <rect id="Rectangle_2736" data-name="Rectangle 2736" width="32" height="32" transform="translate(1708 625)" fill="#f5f9fc" stroke="#707070" stroke-width="1"/>
    </clipPath>
  </defs>
  <g id="Schedule-icon" transform="translate(-1708 -614)">
    <g id="Mask_Group_64" data-name="Mask Group 64" transform="translate(0 -11)" clip-path="url(#clip-path)">
      <g id="XMLID_1156_" transform="translate(1708 625)">
        <g id="XMLID_416_">
          <path id="XMLID_419_" d="M30.5,22.208V4.406A1.908,1.908,0,0,0,28.594,2.5H24.063V1.875a1.875,1.875,0,0,0-3.75,0V2.5H10.188V1.875a1.875,1.875,0,0,0-3.75,0V2.5H1.906A1.908,1.908,0,0,0,0,4.406V27.594A1.908,1.908,0,0,0,1.906,29.5h8.519a.625.625,0,0,0,0-1.25H1.906a.657.657,0,0,1-.656-.656V4.406a.657.657,0,0,1,.656-.656H6.438v.625a1.875,1.875,0,0,0,3.75,0V3.75H20.313v.625a1.875,1.875,0,0,0,3.75,0V3.75h4.531a.657.657,0,0,1,.656.656V7.5H5.625a.625.625,0,0,0,0,1.25H29.25v12.4a5.843,5.843,0,0,0-1.75-.739V11.125a.625.625,0,0,0-.625-.625H3.625A.625.625,0,0,0,3,11.125v14.75a.625.625,0,0,0,.625.625H20.262a5.831,5.831,0,0,0,.386,1.75H15.425a.625.625,0,0,0,0,1.25h5.894A5.873,5.873,0,1,0,30.5,22.208ZM8.938,4.375a.625.625,0,0,1-1.25,0v-2.5a.625.625,0,0,1,1.25,0Zm13.875,0a.625.625,0,0,1-1.25,0v-2.5a.625.625,0,0,1,1.25,0ZM26.125,20.25a5.9,5.9,0,0,0-.856.063H22.85V16.688h3.4v3.564Zm-5.81,5H18.2V21.563h3.4v.82A5.853,5.853,0,0,0,20.315,25.25ZM4.25,16.688h3.4v3.625H4.25Zm4.65,0h3.4v3.625H8.9Zm9.3,0h3.4v3.625H18.2Zm-1.25,3.625h-3.4V16.688h3.4Zm1.25-4.875V11.75h3.4v3.688Zm-1.25,0h-3.4V11.75h3.4Zm-4.65,0H8.9V11.75h3.4Zm0,6.125V25.25H8.9V21.563Zm1.25,0h3.4V25.25h-3.4V21.563Zm12.7-6.125h-3.4V11.75h3.4ZM7.65,11.75v3.688H4.25V11.75Zm-3.4,9.813h3.4V25.25H4.25ZM26.125,30.75a4.625,4.625,0,1,1,4.625-4.625A4.63,4.63,0,0,1,26.125,30.75Z" fill="#f5f9fc"/>
          <path id="XMLID_1115_" d="M27.933,24.61,26,26.543l-.86-.86a.625.625,0,0,0-.884.884l1.3,1.3a.625.625,0,0,0,.884,0l2.375-2.375a.625.625,0,1,0-.884-.884Z" fill="#f5f9fc"/>
          <path id="XMLID_1116_" d="M12.925,28.25a.625.625,0,1,0,.442.183A.63.63,0,0,0,12.925,28.25Z" fill="#f5f9fc"/>
          <path id="XMLID_1120_" d="M3.567,8.567a.625.625,0,1,0-.442.183A.63.63,0,0,0,3.567,8.567Z" fill="#f5f9fc"/>
        </g>
      </g>
    </g>
  </g>
</svg>
