<svg xmlns="http://www.w3.org/2000/svg" width="32.667" height="32" viewBox="0 0 32.667 32">
  <g id="workflow-icon" transform="translate(-3.5 -4)">
    <path id="XMLID_13_" d="M24.2,32.662H22.4a1.639,1.639,0,0,1-1.643-1.631v-.759a.34.34,0,0,0-.222-.3.347.347,0,0,0-.381.053l-.543.539a1.656,1.656,0,0,1-2.325,0L16.022,29.3a1.624,1.624,0,0,1,0-2.306l.543-.539a.33.33,0,0,0,.059-.364.347.347,0,0,0-.313-.234h-.765A1.64,1.64,0,0,1,13.9,24.225V22.445a1.639,1.639,0,0,1,1.644-1.631h.765a.341.341,0,0,0,.307-.221.337.337,0,0,0-.054-.377l-.543-.539a1.624,1.624,0,0,1,0-2.307l1.269-1.259a1.692,1.692,0,0,1,2.325,0l.543.539a.336.336,0,0,0,.367.059.345.345,0,0,0,.236-.31v-.759A1.639,1.639,0,0,1,22.4,14.008H24.2a1.64,1.64,0,0,1,1.644,1.631V16.4a.338.338,0,0,0,.222.3.343.343,0,0,0,.381-.053l.543-.539a1.691,1.691,0,0,1,2.324,0l1.269,1.259a1.624,1.624,0,0,1,0,2.307l-.543.539a.329.329,0,0,0-.059.365.347.347,0,0,0,.312.234h.765A1.639,1.639,0,0,1,32.7,22.445v1.781a1.64,1.64,0,0,1-1.644,1.631h-.765a.34.34,0,0,0-.307.22.333.333,0,0,0,.053.378l.543.539a1.622,1.622,0,0,1,0,2.306l-1.269,1.259a1.655,1.655,0,0,1-2.324,0l-.543-.539a.33.33,0,0,0-.367-.058l-.014.005a.344.344,0,0,0-.222.3v.759A1.641,1.641,0,0,1,24.2,32.662Zm-3.819-4.036a1.714,1.714,0,0,1,.648.128,1.643,1.643,0,0,1,1.051,1.518v.759a.325.325,0,0,0,.327.324H24.2a.326.326,0,0,0,.327-.324v-.759a1.64,1.64,0,0,1,1.039-1.513l.037-.015a1.655,1.655,0,0,1,1.775.353l.543.539a.328.328,0,0,0,.462,0l1.269-1.259a.322.322,0,0,0,0-.458l-.543-.539a1.624,1.624,0,0,1-.361-1.748l.027-.064a1.646,1.646,0,0,1,1.519-1.017h.765a.326.326,0,0,0,.327-.324V22.445a.326.326,0,0,0-.327-.324h-.765a1.65,1.65,0,0,1-1.525-1.031,1.629,1.629,0,0,1,.34-1.8l.543-.539a.323.323,0,0,0,0-.459l-1.269-1.259a.327.327,0,0,0-.461,0l-.543.539A1.686,1.686,0,0,1,24.526,16.4v-.759a.326.326,0,0,0-.327-.324H22.4a.326.326,0,0,0-.327.324V16.4a1.64,1.64,0,0,1-1.039,1.514,1.662,1.662,0,0,1-1.811-.338l-.543-.539a.328.328,0,0,0-.462,0l-1.269,1.259a.323.323,0,0,0,0,.459l.543.539a1.625,1.625,0,0,1,.345,1.787,1.656,1.656,0,0,1-1.53,1.043h-.765a.326.326,0,0,0-.327.324v1.781a.326.326,0,0,0,.327.324h.765a1.652,1.652,0,0,1,1.525,1.031,1.63,1.63,0,0,1-.341,1.8l-.543.539a.322.322,0,0,0,0,.458l1.269,1.259a.328.328,0,0,0,.462,0l.543-.539a1.627,1.627,0,0,1,1.151-.471Z" transform="translate(-3.468 -3.336)" fill="#f5f9fc"/>
    <path id="XMLID_10_" d="M26.169,29.817a3.634,3.634,0,1,1,3.661-3.634A3.652,3.652,0,0,1,26.169,29.817Zm0-5.961a2.327,2.327,0,1,0,2.345,2.327A2.338,2.338,0,0,0,26.169,23.857Z" transform="translate(-6.336 -6.183)" fill="#f5f9fc"/>
    <g id="XMLID_2100_" transform="translate(3.5 4)">
      <path id="XMLID_9_" d="M7,19.139a.661.661,0,0,1-.1-.007.654.654,0,0,1-.557-.74,14.577,14.577,0,0,1,11.3-12.054.653.653,0,1,1,.282,1.276A13.261,13.261,0,0,0,7.649,18.579a.657.657,0,0,1-.651.56Z" transform="translate(-4.447 -4.774)" fill="#f5f9fc"/>
      <path id="XMLID_8_" d="M17.768,42.262a.7.7,0,0,1-.142-.015A14.529,14.529,0,0,1,6.289,29.911.659.659,0,0,1,7.6,29.749,13.218,13.218,0,0,0,17.909,40.97a.653.653,0,0,1-.141,1.291Z" transform="translate(-4.428 -12.393)" fill="#f5f9fc"/>
      <path id="XMLID_7_" d="M31.324,42.374a.653.653,0,0,1-.113-1.3A13.3,13.3,0,0,0,42.072,29.748a.659.659,0,0,1,1.307.162,14.622,14.622,0,0,1-11.94,12.455.761.761,0,0,1-.115.009Z" transform="translate(-12.556 -12.392)" fill="#f5f9fc"/>
      <path id="XMLID_6_" d="M42.687,19.082a.656.656,0,0,1-.651-.56A13.178,13.178,0,0,0,31.211,7.449a.654.654,0,1,1,.227-1.287,14.484,14.484,0,0,1,11.9,12.173.654.654,0,0,1-.557.74A.574.574,0,0,1,42.687,19.082Z" transform="translate(-12.556 -4.718)" fill="#f5f9fc"/>
      <path id="XMLID_5_" d="M21.208,9.343a.657.657,0,0,1-.619-.877l.853-2.333-2.408-.865a.653.653,0,0,1-.4-.837.661.661,0,0,1,.843-.392l3.027,1.088a.662.662,0,0,1,.373.337.649.649,0,0,1,.023.5L21.828,8.912a.658.658,0,0,1-.62.431Z" transform="translate(-8.533 -4)" fill="#f5f9fc"/>
      <path id="XMLID_4_" d="M47.417,23.968a.653.653,0,0,1-.325-.086l-2.745-1.553a.649.649,0,0,1-.245-.891.66.66,0,0,1,.9-.244l2.173,1.23,1.269-2.208a.66.66,0,0,1,.9-.244.649.649,0,0,1,.245.891l-1.6,2.775A.659.659,0,0,1,47.417,23.968Z" transform="translate(-17.005 -9.295)" fill="#f5f9fc"/>
      <path id="XMLID_3_" d="M33.075,49.119a.658.658,0,0,1-.423-.153l-2.467-2.053a.65.65,0,0,1-.081-.921l2.031-2.4a.664.664,0,0,1,.928-.081.651.651,0,0,1,.082.921l-1.607,1.9L33.5,47.965a.651.651,0,0,1,.082.921.666.666,0,0,1-.507.233Z" transform="translate(-12.317 -17.119)" fill="#f5f9fc"/>
      <path id="XMLID_2_" d="M4.158,32.691a.655.655,0,0,1-.532-1.039l1.895-2.583a.661.661,0,0,1,.92-.143L9,30.77a.651.651,0,0,1,.145.913.663.663,0,0,1-.92.143L6.2,30.366,4.691,32.421a.658.658,0,0,1-.533.269Z" transform="translate(-3.5 -12.267)" fill="#f5f9fc"/>
    </g>
  </g>
</svg>
