<svg id="email-icon" xmlns="http://www.w3.org/2000/svg" xmlns:xlink="http://www.w3.org/1999/xlink" width="28" height="28" viewBox="0 0 28 28">
  <defs>
    <clipPath id="clip-path">
      <rect id="Rectangle_2518" data-name="Rectangle 2518" width="28" height="28" fill="#006fb0"/>
    </clipPath>
  </defs>
  <g id="Group_5896" data-name="Group 5896" clip-path="url(#clip-path)">
    <path id="Path_4426" data-name="Path 4426" d="M14,0A14,14,0,1,0,28,14,14.016,14.016,0,0,0,14,0m0,27.082A13.082,13.082,0,1,1,27.082,14,13.1,13.1,0,0,1,14,27.083" transform="translate(0 -0.001)" fill="#006fb0"/>
    <path id="Path_4427" data-name="Path 4427" d="M136.747,125.234a7.3,7.3,0,0,1-.511,2.773,4.647,4.647,0,0,1-1.432,1.974,3.275,3.275,0,0,1-2.055.713,1.906,1.906,0,0,1-1.294-.4,1.685,1.685,0,0,1-.554-1.032h-.052a2.67,2.67,0,0,1-2.382,1.427,2.018,2.018,0,0,1-1.629-.675,2.818,2.818,0,0,1-.571-1.879,5.09,5.09,0,0,1,.58-2.4,4.436,4.436,0,0,1,1.617-1.746,4.224,4.224,0,0,1,2.266-.641,7.116,7.116,0,0,1,.813.043q.364.044.683.112t1.109.335l-.868,3.371a6.4,6.4,0,0,0-.258,1.367q0,.792.679.791a1.568,1.568,0,0,0,1.153-.571,4,4,0,0,0,.838-1.5,6.3,6.3,0,0,0,.305-1.978,3.881,3.881,0,0,0-1.1-2.988,4.419,4.419,0,0,0-3.126-1.028,6.46,6.46,0,0,0-3.311.856,5.908,5.908,0,0,0-2.291,2.421,7.39,7.39,0,0,0-.822,3.491,4.693,4.693,0,0,0,1.208,3.448,4.523,4.523,0,0,0,3.366,1.221,10.585,10.585,0,0,0,3.7-.74v1.333a10.168,10.168,0,0,1-3.9.774,6.616,6.616,0,0,1-3.156-.718,4.959,4.959,0,0,1-2.077-2.059,6.485,6.485,0,0,1-.727-3.138,8.458,8.458,0,0,1,1.054-4.205,7.622,7.622,0,0,1,2.949-2.958,8.454,8.454,0,0,1,4.243-1.075,6.475,6.475,0,0,1,2.976.641,4.455,4.455,0,0,1,1.922,1.845,5.678,5.678,0,0,1,.667,2.795m-6.165-.576a2.247,2.247,0,0,0-1.363.46,3.091,3.091,0,0,0-.976,1.239,3.98,3.98,0,0,0-.353,1.664q0,1.35.963,1.35a1.534,1.534,0,0,0,1.217-.619,5.161,5.161,0,0,0,.864-1.892l.55-2.064a3.107,3.107,0,0,0-.9-.138" transform="translate(-115.842 -113.031)" fill="#006fb0"/>
  </g>
</svg>
