<svg id="phone-icon" xmlns="http://www.w3.org/2000/svg" xmlns:xlink="http://www.w3.org/1999/xlink" width="28" height="28" viewBox="0 0 28 28">
  <defs>
    <clipPath id="clip-path">
      <rect id="Rectangle_2519" data-name="Rectangle 2519" width="28" height="28" fill="#006fb0"/>
    </clipPath>
  </defs>
  <g id="Group_5898" data-name="Group 5898" clip-path="url(#clip-path)">
    <path id="Path_4428" data-name="Path 4428" d="M14,28A14,14,0,1,1,28,14,14.016,14.016,0,0,1,14,28M14,.918A13.082,13.082,0,1,0,27.082,14,13.1,13.1,0,0,0,14,.918" fill="#006fb0"/>
    <path id="Path_4429" data-name="Path 4429" d="M139.962,127.094l-.864-.866a15.324,15.324,0,0,1-2.468.268h-.044a.246.246,0,0,1-.154-.065l-.032-.032a13.347,13.347,0,0,1-2.667-3.992l-.019-.043a.248.248,0,0,1,0-.168l.018-.04a15.537,15.537,0,0,1,1.191-2.178l-.467-1.129-.574-1.384-.47-1.135a5.855,5.855,0,0,0-.742.219,6.18,6.18,0,0,0-1.3.66,1.97,1.97,0,0,0-.8,1.078c-.016.062-.034.124-.046.185a3.307,3.307,0,0,0-.006,1.261,16.4,16.4,0,0,0,2.192,5.591c.095.152.191.3.291.454s.2.3.308.443a16.371,16.371,0,0,0,4.326,4.164,3.261,3.261,0,0,0,1.168.477c.061.013.124.02.187.03a1.989,1.989,0,0,0,.573-.026,1.966,1.966,0,0,0,.728-.3,6.164,6.164,0,0,0,1.107-.949,6.062,6.062,0,0,0,.487-.6l-.869-.869Z" transform="translate(-122.934 -109.621)" fill="#006fb0"/>
    <path id="Path_4430" data-name="Path 4430" d="M250.352,115.418a7.718,7.718,0,0,0-4.941-3.3.459.459,0,0,0-.179.9,6.845,6.845,0,0,1,5.379,8.049.459.459,0,0,0,.36.54.444.444,0,0,0,.09.009.459.459,0,0,0,.45-.369,7.713,7.713,0,0,0-1.159-5.827" transform="translate(-230.731 -105.637)" fill="#006fb0"/>
    <path id="Path_4431" data-name="Path 4431" d="M236.173,158.549a4.167,4.167,0,0,1,3.275,4.9.458.458,0,0,0,.36.54.441.441,0,0,0,.09.009.459.459,0,0,0,.45-.369,5.084,5.084,0,0,0-4-5.979.459.459,0,0,0-.178.9" transform="translate(-222.194 -148.541)" fill="#006fb0"/>
  </g>
</svg>
