<svg id="whatsapp-icon" xmlns="http://www.w3.org/2000/svg" xmlns:xlink="http://www.w3.org/1999/xlink" width="28" height="28" viewBox="0 0 28 28">
  <defs>
    <clipPath id="clip-path">
      <rect id="Rectangle_2520" data-name="Rectangle 2520" width="28" height="28" fill="#006fb0"/>
    </clipPath>
  </defs>
  <g id="Group_5900" data-name="Group 5900" clip-path="url(#clip-path)">
    <path id="Path_4432" data-name="Path 4432" d="M14,0A14,14,0,1,0,28,14,14.016,14.016,0,0,0,14,0m0,27.082A13.082,13.082,0,1,1,27.082,14,13.1,13.1,0,0,1,14,27.082" transform="translate(0)" fill="#006fb0"/>
    <path id="Path_4433" data-name="Path 4433" d="M134.733,124.378a6.878,6.878,0,0,0-10.822,8.3l-.976,3.563,3.645-.956a6.871,6.871,0,0,0,3.286.837h0a6.879,6.879,0,0,0,4.864-11.74m-4.864,10.579h0a5.711,5.711,0,0,1-2.909-.8l-.209-.124-2.163.568.578-2.109-.136-.216a5.715,5.715,0,1,1,4.841,2.678m3.135-4.28c-.172-.086-1.017-.5-1.174-.559s-.272-.086-.387.086-.444.559-.544.674-.2.129-.372.043a4.684,4.684,0,0,1-1.382-.853,5.158,5.158,0,0,1-.956-1.191c-.1-.172-.011-.265.076-.35s.172-.2.258-.3a1.168,1.168,0,0,0,.172-.287.316.316,0,0,0-.014-.3c-.043-.086-.387-.932-.53-1.276s-.281-.29-.387-.3-.215-.006-.329-.006a.631.631,0,0,0-.458.215,1.927,1.927,0,0,0-.6,1.434,3.343,3.343,0,0,0,.7,1.777,7.658,7.658,0,0,0,2.935,2.594,9.669,9.669,0,0,0,.979.362,2.337,2.337,0,0,0,1.082.068,1.767,1.767,0,0,0,1.16-.817,1.431,1.431,0,0,0,.1-.817c-.043-.072-.157-.115-.329-.2" transform="translate(-115.84 -115.299)" fill="#006fb0" fill-rule="evenodd"/>
  </g>
</svg>
