<svg id="landphone-icon" xmlns="http://www.w3.org/2000/svg" xmlns:xlink="http://www.w3.org/1999/xlink" width="28" height="28" viewBox="0 0 28 28">
  <defs>
    <clipPath id="clip-path">
      <rect id="Rectangle_2524" data-name="Rectangle 2524" width="28" height="28" fill="#006fb0"/>
    </clipPath>
  </defs>
  <g id="Group_5930" data-name="Group 5930" clip-path="url(#clip-path)">
    <path id="Path_4434" data-name="Path 4434" d="M14,0A14,14,0,1,0,28,14,14.016,14.016,0,0,0,14,0m0,27.082A13.082,13.082,0,1,1,27.082,14,13.1,13.1,0,0,1,14,27.082" fill="#006fb0"/>
    <path id="Path_4435" data-name="Path 4435" d="M199.273,102.942a.356.356,0,0,0-.187-.188.345.345,0,0,0-.137-.028h-.516v-1.932l-.117-.117h0l-1.491-1.49h0l-.117-.117H189.42v3.658h-.744V114.1h10.272a.346.346,0,0,0,.248-.1.35.35,0,0,0,.1-.25V103.079a.352.352,0,0,0-.028-.136m-9.049-3.071h5.913v1.491h1.492v1.364h-7.405Zm1.42,12.933h-1.427a.4.4,0,0,1,0-.8h1.427a.4.4,0,0,1,0,.8m0-1.316h-1.427a.4.4,0,0,1,0-.8h1.427a.4.4,0,1,1,0,.8m0-1.316h-1.427a.4.4,0,0,1,0-.8h1.427a.4.4,0,1,1,0,.8m0-1.316h-1.427a.4.4,0,0,1,0-.8h1.427a.4.4,0,0,1,0,.8M194.7,112.8h-1.427a.4.4,0,1,1,0-.8H194.7a.4.4,0,1,1,0,.8m0-1.316h-1.427a.4.4,0,1,1,0-.8H194.7a.4.4,0,1,1,0,.8m0-1.316h-1.427a.4.4,0,1,1,0-.8H194.7a.4.4,0,1,1,0,.8m0-1.316h-1.427a.4.4,0,1,1,0-.8H194.7a.4.4,0,1,1,0,.8m3.059,3.947h-1.427a.4.4,0,1,1,0-.8h1.427a.4.4,0,0,1,0,.8m0-1.316h-1.427a.4.4,0,1,1,0-.8h1.427a.4.4,0,1,1,0,.8m0-1.316h-1.427a.4.4,0,1,1,0-.8h1.427a.4.4,0,1,1,0,.8m0-1.316h-1.427a.4.4,0,1,1,0-.8h1.427a.4.4,0,0,1,0,.8m.4-1.842h-8.347v-3.259h8.347Z" transform="translate(-177.787 -93.35)" fill="#006fb0"/>
    <path id="Path_4436" data-name="Path 4436" d="M115.885,151.839a.359.359,0,0,0-.111-.075.348.348,0,0,0-.138-.028h-2.895a.348.348,0,0,0-.137.027.356.356,0,0,0-.187.187.349.349,0,0,0-.028.138v11.9a.334.334,0,0,0,.028.136.343.343,0,0,0,.075.113.389.389,0,0,0,.114.076.357.357,0,0,0,.135.026h2.895a.355.355,0,0,0,.325-.216.357.357,0,0,0,.027-.136v-11.9a.339.339,0,0,0-.028-.137.357.357,0,0,0-.075-.113" transform="translate(-105.903 -142.979)" fill="#006fb0"/>
  </g>
</svg>
