<svg id="riyadah-footer" xmlns="http://www.w3.org/2000/svg" xmlns:xlink="http://www.w3.org/1999/xlink" width="76.453" height="186.819" viewBox="0 0 76.453 186.819">
  <defs>
    <clipPath id="clip-path">
      <rect id="Rectangle_1" data-name="Rectangle 1" width="76.453" height="186.819" fill="#006fb0"/>
    </clipPath>
  </defs>
  <g id="Group_1" data-name="Group 1" clip-path="url(#clip-path)">
    <path id="Path_1" data-name="Path 1" d="M60.856,47.916c-.132-.588-.517-.777-.593-.276a9.1,9.1,0,0,1-3.995,6.434,65.318,65.318,0,0,1-11.7,5.124c-1.909.711-5.361,1.807-7.725,4.066a8.715,8.715,0,0,0-2.616,7.007c.028.357.29.626.684.231,7.178-6.364,17.863-7.344,24.5-14.55.278-.3.478-.183.3.185C55.481,64.651,46.2,68.713,39.171,74.6,34.6,78.336,31.9,83.766,33.524,89.922c.359.653.669.768.995.393a5.378,5.378,0,0,0,.574-1.245c3.954-8.58,12.672-14.448,19.541-20.841a21.778,21.778,0,0,0,6.223-20.313" transform="translate(-13.937 -19.968)" fill="#006fb0"/>
    <path id="Path_2" data-name="Path 2" d="M58.1,34.341l.852-.409c-1.542,5.487-8.249,3.883-11.866,6.834,1.626-4.319,7.084-4.875,11.014-6.425m-7.348,8.871c1.3-.332,4.809-.908,5.782-1.459,2.84-1.611,2.992-5.729,3.724-8.7,3.422-3.112,2.941-8.189,2.222-11.265-.117-.423-.294-.526-.43-.477a.314.314,0,0,0-.18.248,1.859,1.859,0,0,0,.081.7A7.176,7.176,0,0,1,59,29.421a8.624,8.624,0,0,1-2.381.909,20.932,20.932,0,0,0-8.035,3.813c-3.99,3.038-4.131,8.792-4.035,13.313,1.055-2.49,3.564-3.562,6.2-4.242" transform="translate(-18.778 -8.984)" fill="#006fb0"/>
    <path id="Path_3" data-name="Path 3" d="M43.958,112.768c1.052-8.749,8.773-14.611,12.931-22.012a10.06,10.06,0,0,0-1.3-10.648s-.105-.117-.195-.124-.16.1-.135.26c.049.323.07.468.095.7.786,7.6-6.644,12.628-10.749,18.273a19.789,19.789,0,0,0-3,7.638c-.073.415-.4.239-.514-.156C37.8,94.978,44.73,85.5,53.882,75.514c4.684-5.017,9.6-10.265,12.39-16.38,3-8.351.99-18.027-2.545-25.443-.865-1.552-1.984-4.67-2.718-4.457-.122.127-.125.368-.047.689.152.623,2.414,4.807,2.73,5.435,3.57,7.091,3.244,16.516-.85,22.375C56.3,69.022,42.355,76.477,38.361,88.964c-3.107,9.187.164,18.928,5.328,26.365.917.791.164-1.722.269-2.562" transform="translate(-15.666 -12.324)" fill="#006fb0"/>
    <path id="Path_4" data-name="Path 4" d="M78.822,89.936c3.951-8.959,3.745-21.5-1.168-29.891l-.369-.1c5.725,10.588.673,22.475-4.31,32.173-1.969,3.992-7.17,13.136-10.931,23.8a76,76,0,0,0-4.385,18.28,57.825,57.825,0,0,0,3.329,24.036c.917,2.555,2,3.535,1.5,1.536a63.706,63.706,0,0,1-1.44-23.9c3.089-16.47,11.8-30.515,17.769-45.934" transform="translate(-24.241 -25.28)" fill="#006fb0"/>
    <path id="Path_5" data-name="Path 5" d="M68.833,4.854c.2-.571.173-1.161.335-1.744.953-2.4-2.213-1.967-3.2-3.111-.773,1.044-.776,2.639-1.132,3.75l2.547,1.283-.895,3.237c.781.413,1.687.7,2.448,1.184a4.118,4.118,0,0,1,.534.409c.2.169.533.461,1.068.972A32.326,32.326,0,0,1,71.2,7.151c.134-1.365-1.615-1.509-2.363-2.3" transform="translate(-27.34 0)" fill="#006fb0"/>
    <path id="Path_6" data-name="Path 6" d="M47.281,187.429a11.293,11.293,0,0,1,1.963,3.312c-.4,1.489-1.968,1.967-2.977,2.934l-1.83-2.767c-.685-.841.74-1.094,1.15-1.579,3.432-1.464-.74-3.223-1.015-4.931a12.33,12.33,0,0,0,2.678-2.385,17.638,17.638,0,0,1,2.044,2.857c.141,1.36-1.535,1.577-2.014,2.56" transform="translate(-18.662 -76.754)" fill="#006fb0"/>
    <path id="Path_7" data-name="Path 7" d="M36.258,290.758v-.739l-3.177.04c-.047.108-4.831,10.854-6.5,13.653-1.319,2.216-3.21,4.758-6.14,4.758h0a7.706,7.706,0,0,1-3.513-1.012l-.3.3.048.047A5.668,5.668,0,0,0,20.5,309.12l.158,0c2.5-.05,6.107-1.436,9.06-7.782,2.867-6.158,4.952-10.538,4.928-10.577Z" transform="translate(-7.012 -122.301)" fill="#006fb0"/>
    <path id="Path_8" data-name="Path 8" d="M29.9,290.726c.69,0,.943.788.947.8,0,0,1.356,3.061,2.7,6.075l.056.128.663-1.342c-.563-1.31-.736-1.705-.895-2.076-.236-.542-.449-1.028-1.891-4.3h-2.7v.721l.071,0s.449-.012,1.054-.012" transform="translate(-12.134 -122.301)" fill="#006fb0"/>
    <path id="Path_9" data-name="Path 9" d="M51.6,292.247c.387.885,1.083,2.473,1.773,4.037H49.831c.688-1.564,1.384-3.152,1.771-4.037m5.26,7.57c-.454-1.052-1.743-4.057-2.772-6.454l-1.173-2.731h0l0,0-.3-.61h-3.4v.721l.07,0s.459-.012,1.052-.012a.979.979,0,0,1,.774.4c-.33.774-3.23,7.592-3.731,8.688-.663,1.432-1.432,2.017-2.662,2.017h-.067v.7H49.8V301.9h-.975a1.2,1.2,0,0,1-.851-.473,1.3,1.3,0,0,1,.1-1.2c.28-.6.858-1.9,1.418-3.273l4.151-.04.52,1.168c.413.929.763,1.717.963,2.146a1.3,1.3,0,0,1,.1,1.206,1.176,1.176,0,0,1-.841.47H53.4v.641h6.181v-.7h-.066c-1.36,0-1.865-.156-2.656-2.017" transform="translate(-18.831 -122.301)" fill="#006fb0"/>
    <path id="Path_10" data-name="Path 10" d="M74.179,290.02H68.59v.807h.848c.047,0,1.162.051,1.162,2.234v9.478h1.731V290.853h1.8c.044,0,4.407.084,4.407,5.149,0,4.881-3.577,5.024-4.011,5.024H73.97v.881h.68c1.325,0,5.658-.411,5.658-5.69,0-5.9-5.1-6.2-6.128-6.2" transform="translate(-28.924 -122.301)" fill="#006fb0"/>
    <path id="Path_11" data-name="Path 11" d="M93.7,292.253c.387.886,1.083,2.472,1.774,4.03h-3.54Zm18.485-1.531h.849v-.7h-3.749l0,6.264h-5.105l0-6.264h-3.707v.806h.845c.042,0,1.022.043,1.146,1.834v7.5c0,1.453-.7,1.645-1.228,1.663-1.108-.047-1.566-.33-2.285-2.01l-3.94-9.185-.005,0,0-.009-.307-.6H91.317v.72l.071,0s.457-.011,1.054-.011a.979.979,0,0,1,.773.4l-.141.332c-1.029,2.417-3.173,7.443-3.59,8.354-.666,1.432-1.437,2.017-2.665,2.017h-.067v.7H91.9V301.9h-.982a1.184,1.184,0,0,1-.843-.467,1.315,1.315,0,0,1,.1-1.211c.228-.488.655-1.453,1.149-2.562l.269-.709,4.15-.041.355.8c.482,1.087.9,2.029,1.124,2.512a1.3,1.3,0,0,1,.1,1.206,1.177,1.177,0,0,1-.842.47h-.983v.642H105.6v-.49h-.069a1.2,1.2,0,0,1-1.044-.411,2.575,2.575,0,0,1-.3-1.486l.007-3.2h5.105l.006,3.216a2.64,2.64,0,0,1-.3,1.491,1.183,1.183,0,0,1-1.043.4h-.068v.479h5.153v-.655h-.852c-.047,0-1.165-.057-1.165-2.239l.006-6.68c0-2.18,1.116-2.241,1.162-2.243" transform="translate(-36.583 -122.301)" fill="#006fb0"/>
    <path id="Path_12" data-name="Path 12" d="M3.744,290.632H4.976a3.193,3.193,0,0,1,2.225.762,2.542,2.542,0,0,1,.836,1.974,2.715,2.715,0,0,1-.752,2.022,2.833,2.833,0,0,1-2.089.759l-1.451,0Zm13.179,11.907v-.513h-.068a1.187,1.187,0,0,1-1.041-.406,2.644,2.644,0,0,1-.3-1.493l.005-10.106H11.769v.666h.848c.011,0,1.165.057,1.165,2.239l0,6.68c0,2.184-1.117,2.241-1.164,2.241h-.131v-.009l-.071,0c-.095.007-.173.007-.248.007v.065h0l-.1-.065a.9.9,0,0,1-.684-.307,11.023,11.023,0,0,1-1.549-2.145A16.4,16.4,0,0,0,8.43,297.3a5.176,5.176,0,0,0-.989-.92,3.076,3.076,0,0,0,2.46-3.059,2.952,2.952,0,0,0-1.144-2.372,4.692,4.692,0,0,0-3.046-.935H0v.669H.854c.046,0,1.159.058,1.159,2.236v6.68c0,2.184-1.112,2.239-1.158,2.239H0v.7H5.157v-.513H5.089a1.193,1.193,0,0,1-1.046-.413,2.625,2.625,0,0,1-.3-1.486V296.8h.935a2.268,2.268,0,0,1,1.441.518,10.382,10.382,0,0,1,1.833,2.419,21.6,21.6,0,0,0,1.938,2.806Z" transform="translate(0 -122.301)" fill="#006fb0"/>
    <path id="Path_13" data-name="Path 13" d="M114.5,254.926l-.035.079c-.049.108-4.783,10.791-6.452,13.585-1.309,2.194-3.181,4.714-6.069,4.714a6.935,6.935,0,0,1-3.385-1.017l-.091-.049-.423.424.095.095A5.6,5.6,0,0,0,102,274.085h.153c2.524-.057,6.147-1.455,9.1-7.8,2.664-5.727,4.575-9.753,4.858-10.346l1.683-.012v-1Z" transform="translate(-41.348 -107.502)" fill="#006fb0"/>
    <path id="Path_14" data-name="Path 14" d="M97.484,278.92l-1.437-1.439L94.8,278.728l-1.245-1.247L92.12,278.92l1.436,1.439,1.245-1.242,1.247,1.242Z" transform="translate(-38.847 -117.013)" fill="#006fb0"/>
    <path id="Path_15" data-name="Path 15" d="M7.9,250.134l1.258,1.258,1.45-1.453L9.156,248.5,7.9,249.75,6.637,248.5,5.193,249.94l1.443,1.453Z" transform="translate(-2.19 -104.79)" fill="#006fb0"/>
    <path id="Path_16" data-name="Path 16" d="M37.118,264.19l-.009-4.335a4.853,4.853,0,0,0-1.391-3.212,6.737,6.737,0,0,0-4.971-1.694l-4.859-.007v2.966h.658v-1.27a.654.654,0,0,1,.168-.44.932.932,0,0,1,.692-.244h3.511c.167,0,4.088.043,4.088,3.9l.008,4.3c0,.475-.077,2.021-1.085,2.021l-7.453,0a1.754,1.754,0,0,1-.9-.276,1.974,1.974,0,0,1-.788-1.789v-.135h-.978v3.106H39.078v-.892H37.854c-.007,0-.695-.09-.736-2" transform="translate(-10.039 -107.509)" fill="#006fb0"/>
    <path id="Path_17" data-name="Path 17" d="M5.863,264.949a3.968,3.968,0,0,1-2.084-.655c-1.232-.822-1.856-2.28-1.856-4.333,0-5.026,4.182-5.116,4.361-5.119H10.44l.008,10.1Zm2.783-12.664v.664H9.811c.147,0,.624.064.624.9l-4.205.038c-1.04,0-6.23.305-6.23,6.283,0,5.38,4.41,5.8,5.761,5.8H12.33l0-13.685Z" transform="translate(0 -106.388)" fill="#006fb0"/>
    <path id="Path_18" data-name="Path 18" d="M86.734,265.042H86.6a2.02,2.02,0,0,1-1.487-.471,1.026,1.026,0,0,1-.307-.7v-7.527H80.9v.659l1.284,0c.146,0,.627.068.627.91l.019,7.118H57.758a4.218,4.218,0,0,1-3.162-1.138c-1.305-1.342-1.245-3.479-1.223-4.281,0-.1.006-.185,0-.237l-.017-5.548c0-.836.492-.928.7-.9h1.262v-.662H51.414l0,7.107c-.083,2.408.383,4.1,1.423,5.178,1.356,1.4,3.422,1.4,4.932,1.4H86.734Z" transform="translate(-21.676 -106.382)" fill="#006fb0"/>
  </g>
</svg>
