<svg id="riyadah-footer" xmlns="http://www.w3.org/2000/svg" xmlns:xlink="http://www.w3.org/1999/xlink" width="29.082" height="53.28" viewBox="0 0 29.082 53.28">
  <defs>
    <clipPath id="clip-path">
      <rect id="Rectangle_1" data-name="Rectangle 1" width="29.082" height="53.28" fill="#fff"/>
    </clipPath>
  </defs>
  <g id="Group_1" data-name="Group 1" clip-path="url(#clip-path)">
    <path id="Path_1" data-name="Path 1" d="M43.628,47.566c-.05-.223-.2-.3-.226-.1a3.46,3.46,0,0,1-1.52,2.447,24.846,24.846,0,0,1-4.452,1.949A8.355,8.355,0,0,0,34.492,53.4a3.315,3.315,0,0,0-1,2.665c.011.136.11.238.26.088,2.73-2.421,6.795-2.794,9.321-5.535.106-.115.182-.07.113.07-1.608,3.239-5.137,4.784-7.812,7.025a5.56,5.56,0,0,0-2.148,5.827c.136.248.255.292.378.149a2.046,2.046,0,0,0,.218-.473c1.5-3.264,4.82-5.5,7.433-7.928a8.284,8.284,0,0,0,2.367-7.727" transform="translate(-25.78 -36.935)" fill="#fff"/>
    <path id="Path_2" data-name="Path 2" d="M49.691,26.263l.324-.156c-.587,2.087-3.138,1.477-4.514,2.6.618-1.643,2.695-1.854,4.19-2.444m-2.8,3.374a15.451,15.451,0,0,0,2.2-.555c1.08-.613,1.138-2.179,1.416-3.308,1.3-1.184,1.119-3.115.845-4.285-.045-.161-.112-.2-.163-.181a.12.12,0,0,0-.068.094.707.707,0,0,0,.031.266,2.73,2.73,0,0,1-1.121,2.722,3.281,3.281,0,0,1-.906.346,7.962,7.962,0,0,0-3.056,1.45c-1.518,1.156-1.572,3.345-1.535,5.064A3.167,3.167,0,0,1,46.9,29.638" transform="translate(-34.734 -16.618)" fill="#fff"/>
    <path id="Path_3" data-name="Path 3" d="M39.74,61c.4-3.328,3.337-5.558,4.919-8.373a3.827,3.827,0,0,0-.494-4.05s-.04-.045-.074-.047-.061.037-.051.1c.018.123.027.178.036.265.3,2.891-2.527,4.8-4.089,6.951a7.528,7.528,0,0,0-1.141,2.905c-.028.158-.153.091-.2-.059-1.251-4.456,1.383-8.062,4.865-11.86A24.735,24.735,0,0,0,48.228,40.6c1.141-3.177.377-6.857-.968-9.678-.329-.59-.755-1.776-1.034-1.7-.046.048-.048.14-.018.262.058.237.918,1.828,1.038,2.067a8.792,8.792,0,0,1-.323,8.511c-2.488,4.294-7.792,7.13-9.312,11.88-1.182,3.495.062,7.2,2.027,10.029.349.3.062-.655.1-.975" transform="translate(-28.978 -22.795)" fill="#fff"/>
    <path id="Path_4" data-name="Path 4" d="M65.6,71.355a13.412,13.412,0,0,0-.444-11.37l-.14-.037c2.178,4.028.256,8.549-1.64,12.238a72.407,72.407,0,0,0-4.158,9.055,28.911,28.911,0,0,0-1.668,6.953,22,22,0,0,0,1.266,9.143c.349.972.76,1.345.572.584a24.233,24.233,0,0,1-.548-9.093c1.175-6.265,4.488-11.607,6.759-17.473" transform="translate(-44.84 -46.761)" fill="#fff"/>
    <path id="Path_5" data-name="Path 5" d="M66.355,1.846c.078-.217.066-.442.128-.663C66.845.27,65.641.434,65.265,0a4.682,4.682,0,0,0-.431,1.427l.969.488-.34,1.231c.3.157.642.268.931.45a1.566,1.566,0,0,1,.2.156c.077.064.2.175.406.37a12.3,12.3,0,0,1,.251-1.4c.051-.519-.614-.574-.9-.874" transform="translate(-50.572 0.001)" fill="#fff"/>
    <path id="Path_6" data-name="Path 6" d="M45.406,184.073a4.3,4.3,0,0,1,.747,1.26c-.153.566-.749.748-1.132,1.116l-.7-1.053c-.261-.32.282-.416.437-.6,1.305-.557-.282-1.226-.386-1.876a4.691,4.691,0,0,0,1.019-.907,6.71,6.71,0,0,1,.777,1.087c.054.517-.584.6-.766.974" transform="translate(-34.52 -141.973)" fill="#fff"/>
  </g>
</svg>
