<svg id="_2030" data-name="2030" xmlns="http://www.w3.org/2000/svg" xmlns:xlink="http://www.w3.org/1999/xlink" width="43.601" height="29.169" viewBox="0 0 43.601 29.169">
  <defs>
    <clipPath id="clip-path">
      <rect id="Rectangle_2405" data-name="Rectangle 2405" width="43.601" height="29.169" fill="#026bb7"/>
    </clipPath>
  </defs>
  <g id="Group_5810" data-name="Group 5810" clip-path="url(#clip-path)">
    <path id="Path_2348" data-name="Path 2348" d="M31.087,16.562v.032c0,2.1-1.533,3.65-4.024,3.65a5.428,5.428,0,0,1-4.36-1.929l1.693-1.61a3.412,3.412,0,0,0,2.7,1.339,1.4,1.4,0,0,0,1.581-1.355c-.012-.022.181-1.45-2.188-1.45H25.465l-.383-1.562,3.586-3.6L27.231,11H23.357V8.9h7.553v1.849l-2.826,2.694c1.517.255,3,1.052,3,3.124M24.076,3.794A1.748,1.748,0,0,1,25.82,1.971h1.147l-.3.15c.014,2.769-.055,3.117.122,3.522h-.957a1.769,1.769,0,0,1-1.757-1.836ZM25.82,6.106h1.019V5.74a.708.708,0,0,0,.322.3c.324.154.089.057,9.383.086V1.507h-.49V5.635s-8.5.033-8.66-.04a.427.427,0,0,1-.214-.361c-.037-.249-.015-.254-.021-3.727H25.832a2.255,2.255,0,0,0-2.278,2.3v.013A2.234,2.234,0,0,0,25.82,6.106M40.157,1.017H39.083C39.106.662,38.942,0,39.665,0h.346V.341c-.335.025-.528-.082-.528.186V.64h.673ZM41.4,6.174a1.5,1.5,0,0,1-.4-.055l.129-.471c.222.063.505.067.622-.131.136-.235.088-.317.095-4.01h.49a34.049,34.049,0,0,1-.046,3.942.819.819,0,0,1-.892.725M27.157,1.017h-.49V.528h.49Zm10.79,1.688A1.358,1.358,0,0,1,39.154,2h.792l-.28.14v2.2a3.341,3.341,0,0,1-1.014-.077,1.088,1.088,0,0,1-.818-1.073,1.038,1.038,0,0,1,.114-.483m0,1.734a2.721,2.721,0,0,0,1.554.388l.165-.345c-.027.335.092.8-.221,1.036a1.381,1.381,0,0,1-1.027.122,2.382,2.382,0,0,1-.414-.147l-.153.471a2.674,2.674,0,0,0,.938.208,1.389,1.389,0,0,0,1.042-.339,1.269,1.269,0,0,0,.325-.915V1.507a5.034,5.034,0,0,0-1.612.129,1.6,1.6,0,0,0-.6,2.8M26.177,1.017h-.49V.528h.49ZM21.1,1.5h.506V6.1h-.414L17.933,1.964l.288.67V6.1h-.506V1.5H18.2l3.114,3.953L21.1,4.891V1.5M1.981,6.129,0,1.5H.58L2.347,5.773l-.05-.5L3.862,1.5H4.42L2.441,6.129ZM10.753,1.5h.519V6.1h-.519Zm5.572,2.311a1.806,1.806,0,0,1-1.8,1.884,1.828,1.828,0,0,1-1.815-1.9V3.786A1.807,1.807,0,0,1,14.51,1.9a1.828,1.828,0,0,1,1.815,1.9Zm-1.8-2.389A2.33,2.33,0,0,0,12.169,3.8v.013a2.348,2.348,0,1,0,4.7-.013V3.786a2.308,2.308,0,0,0-2.341-2.363M9.9,4.849v.013c0,.788-.658,1.3-1.572,1.3a2.7,2.7,0,0,1-1.881-.735l.322-.381a2.195,2.195,0,0,0,1.579.65c.618,0,1.026-.328,1.026-.781V4.9c0-1.282-2.742-.436-2.742-2.2V2.69A1.359,1.359,0,0,1,8.14,1.436,2.4,2.4,0,0,1,9.758,2l-.3.4c-1.044-.849-2.309-.524-2.309.243v.013c0,.433.237.676,1.25.893s1.5.6,1.5,1.3M5.646,6.1H5.126V1.5h.519Zm30.237.517h.49V7.1h-.49Zm-.981,0h.49V7.1H34.9ZM4.112,17.932H8.375v2.12H.1V18.108c4.133-3.508,5.653-4.193,5.653-5.722a1.37,1.37,0,0,0-1.5-1.45c-.862,0-1.453.478-2.284,1.5L.246,11.047A4.669,4.669,0,0,1,4.414,8.736c2.316,0,3.849,1.355,3.849,3.443v.032c0,2.618-1.982,3.462-5.381,6.2l-.475.366Zm36.919-3.427a3.34,3.34,0,0,1-3.354,3.475,3.393,3.393,0,0,1-3.385-3.507v-.032a3.34,3.34,0,0,1,3.354-3.474,3.393,3.393,0,0,1,3.386,3.506ZM37.677,8.7a5.775,5.775,0,0,0-5.957,5.77v.032a5.722,5.722,0,0,0,5.925,5.738,5.775,5.775,0,0,0,5.957-5.77v-.032A5.722,5.722,0,0,0,37.677,8.7" transform="translate(-0.001)" fill="#026bb7"/>
    <path id="Path_2349" data-name="Path 2349" d="M66.59,36.272l.566.542-.543.565-.566-.542" transform="translate(-51.534 -28.301)" fill="#026bb7"/>
    <path id="Path_2350" data-name="Path 2350" d="M74.416,36.837l.566.542.543-.565-.566-.542" transform="translate(-58.064 -28.301)" fill="#026bb7"/>
    <path id="Path_2351" data-name="Path 2351" d="M70.788,40.521l.441.422.423-.44-.441-.422" transform="translate(-55.233 -31.274)" fill="#026bb7"/>
    <path id="Path_2352" data-name="Path 2352" d="M78.143,41.621l.441.422.423-.44-.441-.422" transform="translate(-60.972 -32.132)" fill="#026bb7"/>
    <path id="Path_2353" data-name="Path 2353" d="M67.508,43.582l.441.422.423-.44-.44-.422" transform="translate(-52.674 -33.663)" fill="#026bb7"/>
    <path id="Path_2354" data-name="Path 2354" d="M74.239,43.815l.441.422.423-.44-.441-.422" transform="translate(-57.926 -33.844)" fill="#026bb7"/>
    <path id="Path_2355" data-name="Path 2355" d="M71.606,46.581l.31.3.3-.31-.31-.3" transform="translate(-55.871 -36.104)" fill="#026bb7"/>
    <path id="Path_2356" data-name="Path 2356" d="M76.929,47.643l.31.3.3-.31-.31-.3" transform="translate(-60.025 -36.933)" fill="#026bb7"/>
    <rect id="Rectangle_2362" data-name="Rectangle 2362" width="0.978" height="0.976" transform="translate(19.458 8.356) rotate(-10.396)" fill="#026bb7"/>
    <rect id="Rectangle_2363" data-name="Rectangle 2363" width="0.785" height="0.783" transform="matrix(0.984, -0.18, 0.18, 0.984, 18.203, 8.759)" fill="#026bb7"/>
    <rect id="Rectangle_2364" data-name="Rectangle 2364" width="0.784" height="0.783" transform="translate(19.695 9.832) rotate(-10.394)" fill="#026bb7"/>
    <rect id="Rectangle_2365" data-name="Rectangle 2365" width="0.611" height="0.61" transform="matrix(0.984, -0.18, 0.18, 0.984, 18.631, 9.945)" fill="#026bb7"/>
    <rect id="Rectangle_2366" data-name="Rectangle 2366" width="0.611" height="0.61" transform="matrix(0.984, -0.18, 0.18, 0.984, 19.8, 11.084)" fill="#026bb7"/>
    <rect id="Rectangle_2367" data-name="Rectangle 2367" width="0.611" height="0.61" transform="translate(17.73 10.189) rotate(-10.38)" fill="#026bb7"/>
    <rect id="Rectangle_2368" data-name="Rectangle 2368" width="0.611" height="0.61" transform="matrix(0.984, -0.18, 0.18, 0.984, 18.821, 10.974)" fill="#026bb7"/>
    <rect id="Rectangle_2369" data-name="Rectangle 2369" width="0.43" height="0.429" transform="translate(18.055 11.047) rotate(-10.396)" fill="#026bb7"/>
    <rect id="Rectangle_2370" data-name="Rectangle 2370" width="0.43" height="0.429" transform="translate(18.867 11.919) rotate(-10.373)" fill="#026bb7"/>
    <path id="Path_2357" data-name="Path 2357" d="M100.08,52.342l-.42.882.883.419.42-.881" transform="translate(-77.761 -40.84)" fill="#026bb7"/>
    <path id="Path_2358" data-name="Path 2358" d="M94.671,50.489l-.337.707.708.336.337-.707" transform="translate(-73.605 -39.394)" fill="#026bb7"/>
    <path id="Path_2359" data-name="Path 2359" d="M97.309,58.416l-.337.707.709.336.337-.707" transform="translate(-75.664 -45.58)" fill="#026bb7"/>
    <path id="Path_2360" data-name="Path 2360" d="M93.349,56l-.262.551.552.262.263-.551" transform="translate(-72.632 -43.696)" fill="#026bb7"/>
    <path id="Path_2361" data-name="Path 2361" d="M94.623,63.315l-.263.551.552.262.263-.551" transform="translate(-73.626 -49.402)" fill="#026bb7"/>
    <path id="Path_2362" data-name="Path 2362" d="M89.374,54.51l-.263.551.552.262.263-.551" transform="translate(-69.531 -42.532)" fill="#026bb7"/>
    <path id="Path_2363" data-name="Path 2363" d="M91.305,60.308l-.263.551.552.262.263-.551" transform="translate(-71.037 -47.056)" fill="#026bb7"/>
    <path id="Path_2364" data-name="Path 2364" d="M88.561,58.541l-.185.387.388.184.185-.387" transform="translate(-68.957 -45.677)" fill="#026bb7"/>
    <rect id="Rectangle_2371" data-name="Rectangle 2371" width="0.429" height="0.43" transform="translate(19.566 14.431) rotate(-64.551)" fill="#026bb7"/>
    <path id="Path_2365" data-name="Path 2365" d="M100.693,71.551l-.857.469.47.856.857-.469" transform="translate(-77.898 -55.828)" fill="#026bb7"/>
    <path id="Path_2366" data-name="Path 2366" d="M97.756,66.717l-.688.377.377.686.688-.377" transform="translate(-75.739 -52.057)" fill="#026bb7"/>
    <path id="Path_2367" data-name="Path 2367" d="M95.249,74.686l-.688.377.377.687.688-.377" transform="translate(-73.782 -58.275)" fill="#026bb7"/>
    <path id="Path_2368" data-name="Path 2368" d="M93.778,70.261l-.535.293.294.534.536-.293" transform="translate(-72.754 -54.822)" fill="#026bb7"/>
    <path id="Path_2369" data-name="Path 2369" d="M90.524,76.936l-.536.293.294.534.536-.293" transform="translate(-70.215 -60.03)" fill="#026bb7"/>
    <path id="Path_2370" data-name="Path 2370" d="M91.429,66.731l-.536.293.294.535.536-.293" transform="translate(-70.921 -52.068)" fill="#026bb7"/>
    <path id="Path_2371" data-name="Path 2371" d="M89.6,72.56l-.536.293.294.534.536-.293" transform="translate(-69.491 -56.616)" fill="#026bb7"/>
    <path id="Path_2372" data-name="Path 2372" d="M88.747,69.364l-.377.206.207.376.377-.206" transform="translate(-68.952 -54.122)" fill="#026bb7"/>
    <path id="Path_2373" data-name="Path 2373" d="M86.138,74.114l-.377.206.207.376.377-.206" transform="translate(-66.916 -57.828)" fill="#026bb7"/>
    <rect id="Rectangle_2372" data-name="Rectangle 2372" width="0.976" height="0.978" transform="translate(19.615 20.269) rotate(-82.953)" fill="#026bb7"/>
    <rect id="Rectangle_2373" data-name="Rectangle 2373" width="0.783" height="0.784" transform="matrix(0.123, -0.992, 0.992, 0.123, 19.824, 18.789)" fill="#026bb7"/>
    <rect id="Rectangle_2374" data-name="Rectangle 2374" width="0.783" height="0.785" transform="matrix(0.123, -0.992, 0.992, 0.123, 18.351, 19.887)" fill="#026bb7"/>
    <rect id="Rectangle_2375" data-name="Rectangle 2375" width="0.61" height="0.611" transform="translate(18.756 18.692) rotate(-82.962)" fill="#026bb7"/>
    <rect id="Rectangle_2376" data-name="Rectangle 2376" width="0.61" height="0.611" transform="translate(17.316 19.464) rotate(-82.962)" fill="#026bb7"/>
    <rect id="Rectangle_2377" data-name="Rectangle 2377" width="0.61" height="0.611" transform="translate(18.792 17.76) rotate(-82.944)" fill="#026bb7"/>
    <rect id="Rectangle_2378" data-name="Rectangle 2378" width="0.61" height="0.611" transform="translate(17.715 18.563) rotate(-82.942)" fill="#026bb7"/>
    <rect id="Rectangle_2379" data-name="Rectangle 2379" width="0.429" height="0.43" transform="matrix(0.123, -0.992, 0.992, 0.123, 18.077, 17.656)" fill="#026bb7"/>
    <rect id="Rectangle_2380" data-name="Rectangle 2380" width="0.429" height="0.43" transform="matrix(0.123, -0.992, 0.992, 0.123, 16.999, 18.167)" fill="#026bb7"/>
    <path id="Path_2374" data-name="Path 2374" d="M71.745,94.143l-.717-.664-.665.715.717.664" transform="translate(-54.902 -72.938)" fill="#026bb7"/>
    <path id="Path_2375" data-name="Path 2375" d="M71.144,31.92l-.717-.664-.665.715.717.664" transform="translate(-54.433 -24.388)" fill="#026bb7"/>
    <path id="Path_2376" data-name="Path 2376" d="M76.2,89.732l-.575-.533-.534.574.575.533" transform="translate(-58.588 -69.599)" fill="#026bb7"/>
    <path id="Path_2377" data-name="Path 2377" d="M67.828,89.871l-.575-.533-.534.574.575.533" transform="translate(-52.058 -69.708)" fill="#026bb7"/>
    <path id="Path_2378" data-name="Path 2378" d="M72.272,86.989l-.448-.415-.415.447.448.415" transform="translate(-55.718 -67.551)" fill="#026bb7"/>
    <path id="Path_2379" data-name="Path 2379" d="M64.9,86.012l-.448-.415-.416.447.448.415" transform="translate(-49.966 -66.789)" fill="#026bb7"/>
    <path id="Path_2380" data-name="Path 2380" d="M74.889,83.652l-.448-.415-.416.447.448.415" transform="translate(-57.76 -64.947)" fill="#026bb7"/>
    <path id="Path_2381" data-name="Path 2381" d="M68.768,83.753l-.448-.415-.416.447.448.415" transform="translate(-52.984 -65.026)" fill="#026bb7"/>
    <path id="Path_2382" data-name="Path 2382" d="M72.271,81.844l-.315-.292-.292.314.315.292" transform="translate(-55.917 -63.632)" fill="#026bb7"/>
    <path id="Path_2383" data-name="Path 2383" d="M66.931,80.87l-.315-.292-.292.314.315.292" transform="translate(-51.75 -62.873)" fill="#026bb7"/>
    <rect id="Rectangle_2381" data-name="Rectangle 2381" width="0.978" height="0.976" transform="translate(11.515 19.629) rotate(-11.338)" fill="#026bb7"/>
    <rect id="Rectangle_2382" data-name="Rectangle 2382" width="0.784" height="0.783" transform="translate(12.991 19.357) rotate(-11.341)" fill="#026bb7"/>
    <rect id="Rectangle_2383" data-name="Rectangle 2383" width="0.784" height="0.783" transform="translate(11.483 18.308) rotate(-11.341)" fill="#026bb7"/>
    <rect id="Rectangle_2384" data-name="Rectangle 2384" width="0.611" height="0.61" transform="matrix(0.981, -0.196, 0.196, 0.981, 12.748, 18.314)" fill="#026bb7"/>
    <rect id="Rectangle_2385" data-name="Rectangle 2385" width="0.611" height="0.61" transform="translate(13.644 18.055) rotate(-11.326)" fill="#026bb7"/>
    <rect id="Rectangle_2386" data-name="Rectangle 2386" width="0.611" height="0.61" transform="matrix(0.981, -0.196, 0.196, 0.981, 12.54, 17.288)" fill="#026bb7"/>
    <rect id="Rectangle_2387" data-name="Rectangle 2387" width="0.43" height="0.429" transform="translate(13.518 17.345) rotate(-11.321)" fill="#026bb7"/>
    <rect id="Rectangle_2388" data-name="Rectangle 2388" width="0.43" height="0.429" transform="translate(12.692 16.486) rotate(-11.356)" fill="#026bb7"/>
    <path id="Path_2384" data-name="Path 2384" d="M41.228,74.123l.405-.888-.89-.4-.405.888" transform="translate(-31.474 -56.827)" fill="#026bb7"/>
    <path id="Path_2385" data-name="Path 2385" d="M47.587,76.791l.325-.713-.714-.325-.325.713" transform="translate(-36.573 -59.108)" fill="#026bb7"/>
    <path id="Path_2386" data-name="Path 2386" d="M44.817,68.908l.325-.713-.714-.325-.325.713" transform="translate(-34.412 -52.957)" fill="#026bb7"/>
    <rect id="Rectangle_2389" data-name="Rectangle 2389" width="0.61" height="0.611" transform="translate(10.786 16.214) rotate(-65.484)" fill="#026bb7"/>
    <path id="Path_2387" data-name="Path 2387" d="M53.029,78.381l.253-.555-.556-.253-.253.555" transform="translate(-40.943 -60.528)" fill="#026bb7"/>
    <rect id="Rectangle_2390" data-name="Rectangle 2390" width="0.61" height="0.611" transform="translate(10.48 14.611) rotate(-65.484)" fill="#026bb7"/>
    <rect id="Rectangle_2391" data-name="Rectangle 2391" width="0.61" height="0.611" transform="translate(11.665 16.526) rotate(-65.484)" fill="#026bb7"/>
    <rect id="Rectangle_2392" data-name="Rectangle 2392" width="0.61" height="0.611" transform="translate(11.22 15.261) rotate(-65.457)" fill="#026bb7"/>
    <path id="Path_2388" data-name="Path 2388" d="M55.249,70.294l.178-.39-.391-.178-.178.39" transform="translate(-42.804 -54.404)" fill="#026bb7"/>
    <path id="Path_2389" data-name="Path 2389" d="M54.491,64.93l.178-.39-.391-.178-.178.39" transform="translate(-42.212 -50.219)" fill="#026bb7"/>
    <path id="Path_2390" data-name="Path 2390" d="M40.182,54.816l.85-.483-.485-.848-.849.483" transform="translate(-30.975 -41.732)" fill="#026bb7"/>
    <path id="Path_2391" data-name="Path 2391" d="M44.142,60.527l.682-.388-.389-.68-.681.388" transform="translate(-34.139 -46.393)" fill="#026bb7"/>
    <path id="Path_2392" data-name="Path 2392" d="M46.517,52.516l.682-.388-.389-.681-.681.388" transform="translate(-35.993 -40.143)" fill="#026bb7"/>
    <path id="Path_2393" data-name="Path 2393" d="M48.907,57.747l.53-.3-.3-.53-.531.3" transform="translate(-37.925 -44.409)" fill="#026bb7"/>
    <path id="Path_2394" data-name="Path 2394" d="M52.049,51.02l.53-.3-.3-.53-.531.3" transform="translate(-40.376 -39.16)" fill="#026bb7"/>
    <path id="Path_2395" data-name="Path 2395" d="M51.313,61.238l.531-.3-.3-.53-.531.3" transform="translate(-39.802 -47.133)" fill="#026bb7"/>
    <path id="Path_2396" data-name="Path 2396" d="M53.05,55.38l.531-.3-.3-.53-.531.3" transform="translate(-41.157 -42.562)" fill="#026bb7"/>
    <path id="Path_2397" data-name="Path 2397" d="M54.836,59.429l.373-.212L55,58.844l-.373.212" transform="translate(-42.62 -45.914)" fill="#026bb7"/>
    <path id="Path_2398" data-name="Path 2398" d="M57.365,54.636l.374-.212-.213-.372-.374.212" transform="translate(-44.593 -42.174)" fill="#026bb7"/>
    <rect id="Rectangle_2393" data-name="Rectangle 2393" width="0.976" height="0.978" transform="translate(11.235 9.35) rotate(-83.901)" fill="#026bb7"/>
    <rect id="Rectangle_2394" data-name="Rectangle 2394" width="0.783" height="0.785" transform="matrix(0.106, -0.994, 0.994, 0.106, 11.264, 10.665)" fill="#026bb7"/>
    <rect id="Rectangle_2395" data-name="Rectangle 2395" width="0.783" height="0.785" transform="matrix(0.106, -0.994, 0.994, 0.106, 12.719, 9.542)" fill="#026bb7"/>
    <rect id="Rectangle_2396" data-name="Rectangle 2396" width="0.61" height="0.611" transform="translate(12.525 10.593) rotate(-83.876)" fill="#026bb7"/>
    <rect id="Rectangle_2397" data-name="Rectangle 2397" width="0.61" height="0.611" transform="translate(13.951 9.795) rotate(-83.918)" fill="#026bb7"/>
    <rect id="Rectangle_2398" data-name="Rectangle 2398" width="0.61" height="0.611" transform="translate(12.504 11.523) rotate(-83.876)" fill="#026bb7"/>
    <rect id="Rectangle_2399" data-name="Rectangle 2399" width="0.61" height="0.611" transform="translate(13.568 10.702) rotate(-83.876)" fill="#026bb7"/>
    <rect id="Rectangle_2400" data-name="Rectangle 2400" width="0.429" height="0.43" transform="translate(13.421 11.455) rotate(-83.884)" fill="#026bb7"/>
    <rect id="Rectangle_2401" data-name="Rectangle 2401" width="0.429" height="0.43" transform="translate(14.49 10.926) rotate(-83.913)" fill="#026bb7"/>
    <path id="Path_2399" data-name="Path 2399" d="M64.84,55.061a2.329,2.329,0,0,0-1.962-.11,3.812,3.812,0,0,0-.918.543,9.963,9.963,0,0,1-.048-2.481,0,0,0,0,1,.006,0c.369.232.265.88.188,1.065,0,0,0,.006.007,0a1.143,1.143,0,0,0,.141-1.293c-.017-.027.087.056.172.165a1.265,1.265,0,0,1,.209.857h0a1.082,1.082,0,0,0-.294-1.333c-.02-.017.058.009.083.017a.9.9,0,0,1,.567.859.854.854,0,0,0-.666-1.127.852.852,0,0,1,.6.12c.163.11.206.243.2.206a.709.709,0,0,0-.962-.529.48.48,0,0,1,.469-.217.465.465,0,0,1,.171.04,0,0,0,0,0,0-.006.538.538,0,0,0-.885.039,0,0,0,0,1-.006,0,1.689,1.689,0,0,1-.183-.52,2.337,2.337,0,0,1-.19.52,0,0,0,0,1-.006,0,.537.537,0,0,0-.885-.039,0,0,0,0,0,0,.006.548.548,0,0,1,.644.172,0,0,0,0,1,0,.006.707.707,0,0,0-.961.529s.005.006.007,0a.577.577,0,0,1,.128-.157.827.827,0,0,1,.666-.171.88.88,0,0,0-.666.533c-.108.29,0,.673,0,.578a.882.882,0,0,1,.646-.866,0,0,0,0,1,0,.006,1.054,1.054,0,0,0-.287,1.331,1.094,1.094,0,0,1,.37-1.024s.008,0,.006,0a1.143,1.143,0,0,0,.141,1.293s.008,0,.007,0c-.077-.185-.18-.833.188-1.065a0,0,0,0,1,.006,0,9.942,9.942,0,0,1-.048,2.481,2.812,2.812,0,0,0-1.9-.706,2.214,2.214,0,0,0-.982.273.009.009,0,0,0,.007.016,2.941,2.941,0,0,1,2.874.794,9.585,9.585,0,0,1-1.065.9.241.241,0,1,0-.383.293c.378.377.969-.371,1.677-1,.681.6,1.3,1.374,1.677,1a.27.27,0,0,0,.047-.208.242.242,0,0,0-.43-.085,9.385,9.385,0,0,1-1.065-.9,2.939,2.939,0,0,1,2.874-.794.009.009,0,0,0,.008-.016" transform="translate(-45.736 -40.067)" fill="#026bb7"/>
    <path id="Path_2400" data-name="Path 2400" d="M15.66,106.185h.281v-2.513H15.66Zm-7.353-.28-.438-1.075a1.037,1.037,0,0,1,1.378,0L8.809,105.9Zm-1.547,0a1.931,1.931,0,0,1-.581-.044.666.666,0,0,1,.3-1.294H6.76Zm7.8,0c-.452-.014-.859.08-1.066-.28a7.783,7.783,0,0,0,.025-1.166H13.24v.949c0,.7-.84.651-1.038.233-.08-.168-.031-.238-.045-1.182h-.281v.97a.437.437,0,0,1-.474.476h-.544v-1.446h-.281V105.9H9.1l.491-1.173a1.716,1.716,0,0,0-1.038-.473,1.652,1.652,0,0,0-1.038.473l.495,1.173H7.041v-1.621H6.592a1.037,1.037,0,0,0-1.161.963c0,1.064,1.305.933,1.33.938,0,.034.035.275-.126.4a.79.79,0,0,1-.588.07,1.367,1.367,0,0,1-.237-.084l-.088.27a1.533,1.533,0,0,0,.537.119c.535,0,.782-.267.782-.718v-.053c4.58-.029,4.444.066,4.723-.087a.72.72,0,0,0,.258-.235.715.715,0,0,0,.277.263,1.026,1.026,0,0,0,.847.007.6.6,0,0,0,.272-.27.66.66,0,0,0,.614.319v0h.81v-2.513h-.281Zm25.179-.124a.735.735,0,0,1-1.35-.009.769.769,0,0,1,0-.569.734.734,0,0,1,1.35.578m-2.722,0a.741.741,0,0,1-1.2.224.759.759,0,0,1,0-1.036.737.737,0,0,1,1.2.812m-6.825.124a1.824,1.824,0,0,1-.574-.045.667.667,0,0,1,.3-1.3h.277Zm10.762,0h-.964a1.016,1.016,0,1,0-1.852,0h-.87a1.016,1.016,0,1,0-1.852,0h-.891v-2.233h-.281V105.9h-.894c-.015-.288.065-.713-.176-.982a.713.713,0,0,0-.593-.242H31.342l.528-1.009h-.305l-.539,1.006a.515.515,0,0,0,.126.283,7.224,7.224,0,0,1,1.661.04.381.381,0,0,1,.237.271,3.359,3.359,0,0,1,.021.632h-2.6v-1.621h-.442c-.744,0-1.158.442-1.158.952,0,.639.514.949,1.158.949H35.6a1.025,1.025,0,0,0,1.487,0h1.235a1.026,1.026,0,0,0,1.488,0h1.428v-2.513h-.281Zm1.1.28h.281v-2.513h-.281Zm-20.677.617h.288v-.288h-.288Zm2.744-.9-.439-1.075a1.038,1.038,0,0,1,1.379,0l-.438,1.075Zm1.989,0H24.918l.491-1.173a1.715,1.715,0,0,0-1.038-.473,1.654,1.654,0,0,0-1.038.473l.495,1.173H22.782v-1.621H22.5v1.96c0,.248-.018.431-.267.431a.436.436,0,0,1-.144-.021l-.074.27a.581.581,0,0,0,.649-.16,1.089,1.089,0,0,0,.116-.579h3.61v-2.513h-.281Zm-21.3-1.376a.945.945,0,0,0-.8-.245v.28a1,1,0,0,1,.438.044.416.416,0,0,1,.233.275A6.116,6.116,0,0,1,4.7,105.9H3.389v.28h1.6a6.207,6.207,0,0,0-.044-1.411.644.644,0,0,0-.135-.245M20.352,106.8h.288v-.288h-.288Zm-1.706-.9a1.826,1.826,0,0,1-.574-.045.667.667,0,0,1,.3-1.3h.277Zm3.017-1.621h-.281V105.9H20.323v-1.621h-.281V105.9H18.927v-1.621a1.88,1.88,0,0,0-1.284.271c-.574.486-.426,1.63.842,1.63h3.178v-1.9m-1.8,2.521h.288v-.288h-.288ZM1.107,103.672H.819v.288h.288v-.288m28.875,0h-.288v.288h.288Zm-11.057,0h-.288v.288h.288ZM2.763,106.8h.288v-.288H2.763Zm15.671-3.133h-.288v.288h.288Zm-16.835,0H1.311v.288H1.6Zm.672,3.133H2.56v-.288H2.271Zm-.952-.9a1.824,1.824,0,0,1-.574-.045.667.667,0,0,1,.3-1.3H1.32ZM3,104.284H2.716V105.9H1.6v-1.621a2.961,2.961,0,0,0-.919.072.974.974,0,0,0-.6.5.958.958,0,0,0,.013.805,1.13,1.13,0,0,0,1.063.522H3v-1.9m24.212,1.9h.281v-2.513h-.281Zm3.265-2.513h-.288v.288h.288Z" transform="translate(0 -80.892)" fill="#026bb7"/>
    <path id="Path_2401" data-name="Path 2401" d="M1.252,123.484H1.6v1.006l.953-1.006H2.99l-.833.86.87,1.14H2.6l-.684-.9-.312.32v.58H1.252" transform="translate(-0.977 -96.35)" fill="#026bb7"/>
    <rect id="Rectangle_2402" data-name="Rectangle 2402" width="0.352" height="2" transform="translate(2.372 27.134)" fill="#026bb7"/>
    <path id="Path_2402" data-name="Path 2402" d="M14.864,123.484h.327l1.074,1.383v-1.383h.346v2h-.295l-1.105-1.423v1.423h-.347" transform="translate(-11.598 -96.35)" fill="#026bb7"/>
    <path id="Path_2403" data-name="Path 2403" d="M24.8,124.367v-.006a1.02,1.02,0,0,1,1.034-1.035,1.084,1.084,0,0,1,.77.272l-.223.266a.7.7,0,0,0-1.211.492v.006a.668.668,0,0,0,.681.714.82.82,0,0,0,.484-.151v-.374H25.82v-.306h.853v.84a1.09,1.09,0,0,1-1.876-.717" transform="translate(-19.349 -96.228)" fill="#026bb7"/>
    <path id="Path_2404" data-name="Path 2404" d="M36.3,125.164a.68.68,0,1,0,0-1.36h-.4v1.36Zm-.747-1.68H36.3a1,1,0,1,1,0,2h-.747Z" transform="translate(-27.737 -96.35)" fill="#026bb7"/>
    <path id="Path_2405" data-name="Path 2405" d="M47.025,124.367v-.006a.686.686,0,0,0-.682-.711.676.676,0,0,0-.676.706v.006a.686.686,0,0,0,.681.712.677.677,0,0,0,.676-.706m-1.727,0v-.006a1.048,1.048,0,0,1,2.1-.006v.006a1.048,1.048,0,0,1-2.1.006" transform="translate(-35.344 -96.228)" fill="#026bb7"/>
    <path id="Path_2406" data-name="Path 2406" d="M56.828,123.484H57.2l.61.946.61-.946H58.8v2h-.352v-1.435l-.633.943H57.8l-.627-.937v1.429h-.347" transform="translate(-44.341 -96.35)" fill="#026bb7"/>
    <path id="Path_2407" data-name="Path 2407" d="M73.376,124.367v-.006a.686.686,0,0,0-.682-.711.676.676,0,0,0-.676.706v.006a.686.686,0,0,0,.681.712.677.677,0,0,0,.676-.706m-1.727,0v-.006a1.048,1.048,0,0,1,2.1-.006v.006a1.048,1.048,0,0,1-2.1.006" transform="translate(-55.905 -96.228)" fill="#026bb7"/>
    <path id="Path_2408" data-name="Path 2408" d="M83.18,123.484h1.492v.32h-1.14v.546h1.011v.32H83.532v.815H83.18" transform="translate(-64.902 -96.35)" fill="#026bb7"/>
    <path id="Path_2409" data-name="Path 2409" d="M95.028,125.089l.212-.252a.923.923,0,0,0,.633.26c.218,0,.355-.1.355-.252v-.005c0-.447-1.12-.142-1.12-.9v-.006c0-.614.859-.771,1.412-.329l-.189.266c-.461-.343-.87-.208-.87.032v.006c0,.441,1.12.162,1.12.9v.006c0,.7-.995.774-1.552.277" transform="translate(-74.147 -96.246)" fill="#026bb7"/>
    <path id="Path_2410" data-name="Path 2410" d="M104.375,124.639l-.347-.8-.344.8Zm-.5-1.22h.326l.882,2.015h-.372l-.2-.483h-.948l-.206.483h-.361Z" transform="translate(-80.359 -96.299)" fill="#026bb7"/>
    <path id="Path_2411" data-name="Path 2411" d="M113.445,124.636v-1.152h.352v1.138c0,.372.192.572.507.572s.5-.189.5-.557v-1.152h.352v1.135a.8.8,0,0,1-.862.9.789.789,0,0,1-.853-.88" transform="translate(-88.517 -96.35)" fill="#026bb7"/>
    <path id="Path_2412" data-name="Path 2412" d="M124.344,125.164a.68.68,0,1,0,0-1.36h-.4v1.36Zm-.747-1.68h.747a1,1,0,1,1,0,2H123.6Z" transform="translate(-96.438 -96.35)" fill="#026bb7"/>
    <rect id="Rectangle_2403" data-name="Rectangle 2403" width="0.352" height="2" transform="translate(29.417 27.134)" fill="#026bb7"/>
    <path id="Path_2413" data-name="Path 2413" d="M142.431,124.639l-.347-.8-.344.8Zm-.5-1.22h.326l.882,2.015h-.372l-.2-.483h-.948l-.206.483h-.361Z" transform="translate(-110.052 -96.299)" fill="#026bb7"/>
    <path id="Path_2414" data-name="Path 2414" d="M152.94,124.476c.252,0,.412-.131.412-.334v-.006c0-.214-.155-.332-.415-.332h-.512v.672h.515m-.867-.992h.893c.424,0,.745.213.745.632a.6.6,0,0,1-.478.612l.541.757h-.415l-.492-.7h-.441v.7h-.352Z" transform="translate(-118.657 -96.35)" fill="#026bb7"/>
    <path id="Path_2415" data-name="Path 2415" d="M162.378,124.639l-.346-.8-.344.8Zm-.5-1.22h.327l.882,2.015h-.372l-.2-.483h-.948l-.206.483h-.361Z" transform="translate(-125.616 -96.299)" fill="#026bb7"/>
    <path id="Path_2416" data-name="Path 2416" d="M172.95,125.173c.241,0,.387-.094.387-.274v-.006c0-.169-.135-.269-.412-.269h-.558v.549Zm-.1-.846c.226,0,.378-.089.378-.272v-.006c0-.157-.126-.254-.352-.254h-.507v.532Zm-.827-.843h.9c.352,0,.659.165.659.509a.471.471,0,0,1-.286.452.491.491,0,0,1,.4.486v.006c0,.357-.295.549-.742.549h-.928Z" transform="translate(-134.22 -96.35)" fill="#026bb7"/>
    <rect id="Rectangle_2404" data-name="Rectangle 2404" width="0.352" height="2" transform="translate(39.904 27.134)" fill="#026bb7"/>
    <path id="Path_2417" data-name="Path 2417" d="M186.12,124.639l-.346-.8-.344.8Zm-.5-1.22h.326l.882,2.015h-.372l-.2-.483H185.3l-.206.483h-.361Z" transform="translate(-144.141 -96.299)" fill="#026bb7"/>
  </g>
</svg>
