<svg xmlns="http://www.w3.org/2000/svg" xmlns:xlink="http://www.w3.org/1999/xlink" width="124" height="58" viewBox="0 0 124 58">
  <defs>
    <clipPath id="clip-path">
      <rect id="Rectangle_2436" data-name="Rectangle 2436" width="124" height="58" transform="translate(862.5 3663.954)" fill="#717d85"/>
    </clipPath>
  </defs>
  <g id="logo04" transform="translate(-951 -3701)">
    <g id="Mask_Group_17" data-name="Mask Group 17" transform="translate(88.5 37.046)" clip-path="url(#clip-path)">
      <g id="Group_5849" data-name="Group 5849" transform="translate(866.041 3664)">
        <path id="Path_3791" data-name="Path 3791" d="M315.414,537.208c6.046,0,11-1.89,14.256-5.06a13.147,13.147,0,0,0,3.884-9.469,12.254,12.254,0,0,0-3.611-8.839,18.8,18.8,0,0,0-9.931-4.871l-6.95-1.344c-2.876-.546-4.514-1.974-4.514-3.968,0-2.6,2.52-4.409,6.593-4.409a8.61,8.61,0,0,1,6.13,2.25,6.8,6.8,0,0,1,1.721,3.7l10.015-2.25a12.172,12.172,0,0,0-3.7-7.5c-3.254-3.254-8.293-5.311-14.256-5.311a19.5,19.5,0,0,0-13.269,4.682,13.164,13.164,0,0,0-4.241,9.742,11.283,11.283,0,0,0,3.254,8.293c2.166,2.166,5.332,3.779,9.469,4.787l6.865,1.616c3.422.819,4.955,2.079,4.955,4.325,0,2.793-2.52,4.43-6.676,4.43a9.332,9.332,0,0,1-6.95-2.625,6.209,6.209,0,0,1-1.806-4.157l-10.288,2.25a12.82,12.82,0,0,0,3.884,7.936c3.443,3.629,8.946,5.795,15.158,5.795m76.13,0a21.438,21.438,0,0,0,15.33-5.858,20.016,20.016,0,0,0,5.416-9.112l-10.563-3.526a10.029,10.029,0,0,1-2.792,4.682,10.3,10.3,0,0,1-7.39,2.793,11.35,11.35,0,0,1-8.041-3.254,13.1,13.1,0,0,1-3.339-9.3,12.9,12.9,0,0,1,3.339-9.28,11.013,11.013,0,0,1,7.936-3.149,9.551,9.551,0,0,1,7.118,2.709,11.748,11.748,0,0,1,2.709,4.787L412,505.086a20.168,20.168,0,0,0-5.06-8.923,21.937,21.937,0,0,0-15.789-6.046,22.9,22.9,0,0,0-16.334,6.593,24.039,24.039,0,0,0-6.614,16.964,23.677,23.677,0,0,0,6.845,16.964,23.222,23.222,0,0,0,16.5,6.571m-36.427,0c4.682,0,8.02-1.449,9.469-2.709v-9.742a10.407,10.407,0,0,1-6.046,1.806,6.347,6.347,0,0,1-4.514-1.449c-.9-.9-1.344-2.435-1.344-4.514V479.3h-11.9V491.48h23.809v11.548H340.759V523.5c0,4.158,1.26,7.5,3.527,9.826,2.52,2.54,6.215,3.884,10.831,3.884" transform="translate(-296.372 -479.302)" fill="#502c84"/>
      </g>
    </g>
  </g>
</svg>
