<svg xmlns="http://www.w3.org/2000/svg" xmlns:xlink="http://www.w3.org/1999/xlink" width="342" height="160" viewBox="0 0 342 160">
  <defs>
    <clipPath id="clip-path">
      <rect id="Rectangle_2439" data-name="Rectangle 2439" width="342" height="160" fill="#717d85"/>
    </clipPath>
  </defs>
  <g id="logo07" transform="translate(-160 -3664)">
    <g id="Mask_Group_21" data-name="Mask Group 21" transform="translate(160 3664)" clip-path="url(#clip-path)">
      <g id="Group_15590" data-name="Group 15590" transform="translate(0 38.126)">
        <g id="Group_5852" data-name="Group 5852" transform="translate(0 29.05)">
          <g id="Group_5850" data-name="Group 5850" transform="translate(0 20.352)">
            <path id="Path_3805" data-name="Path 3805" d="M367.123,372.683H364.1V371.7h7.093v.979H368.2v8.84h-1.074Z" transform="translate(-364.098 -371.334)" fill="#404040"/>
            <path id="Path_3806" data-name="Path 3806" d="M369.706,380.177a4.247,4.247,0,0,1-.677-2.66,4.82,4.82,0,0,1,.723-2.92,3.177,3.177,0,0,1,4.391-.134,3.764,3.764,0,0,1,.7,2.5l-.056.808h-4.681a3.953,3.953,0,0,0,.191,1.377,1.269,1.269,0,0,0,.653.717,3.037,3.037,0,0,0,1.284.22q.412,0,.951-.021t.978-.064l.417-.043.028.834a19.012,19.012,0,0,1-2.608.226,2.771,2.771,0,0,1-2.3-.845Zm4.079-3.256a3.134,3.134,0,0,0-.417-1.837,1.58,1.58,0,0,0-1.348-.546,1.762,1.762,0,0,0-1.449.574,2.9,2.9,0,0,0-.482,1.809Z" transform="translate(-362.475 -370.691)" fill="#404040"/>
            <path id="Path_3807" data-name="Path 3807" d="M375.482,380.657a2.085,2.085,0,0,1-.893-1.177,6.885,6.885,0,0,1-.27-2.135,5.5,5.5,0,0,1,.568-2.7,2.3,2.3,0,0,1,2.2-1.008q.424,0,.879.043t1.235.185l-.044.866a16.236,16.236,0,0,0-1.717-.129,2.528,2.528,0,0,0-1.241.249,1.364,1.364,0,0,0-.61.834,6.13,6.13,0,0,0-.178,1.68,5.925,5.925,0,0,0,.169,1.608,1.373,1.373,0,0,0,.617.834,2.608,2.608,0,0,0,1.3.263l1.675-.128.043.879a15.474,15.474,0,0,1-2.043.2,3.264,3.264,0,0,1-1.689-.373Z" transform="translate(-360.724 -370.7)" fill="#404040"/>
            <path id="Path_3808" data-name="Path 3808" d="M379.086,371.426h1.065v3.491a6.432,6.432,0,0,1,1.157-.412,4.639,4.639,0,0,1,1.086-.128,2.572,2.572,0,0,1,1.426.334,1.811,1.811,0,0,1,.708,1.085,8.2,8.2,0,0,1,.209,2.073v3.745h-1.064V377.9a7.737,7.737,0,0,0-.12-1.582,1.186,1.186,0,0,0-.455-.763,1.754,1.754,0,0,0-.986-.227,4.854,4.854,0,0,0-1.689.326l-.269.1v5.859H379.09Z" transform="translate(-359.148 -371.426)" fill="#404040"/>
            <path id="Path_3809" data-name="Path 3809" d="M384.707,373.788h1.05v.5a5.285,5.285,0,0,1,1.171-.5,4.353,4.353,0,0,1,1.114-.142,2.467,2.467,0,0,1,1.4.339,1.856,1.856,0,0,1,.7,1.085,8.16,8.16,0,0,1,.209,2.066v3.746H389.3v-3.717a7.525,7.525,0,0,0-.12-1.546,1.31,1.31,0,0,0-.434-.78,1.46,1.46,0,0,0-.907-.241,4.229,4.229,0,0,0-.987.122,3.912,3.912,0,0,0-.817.276l-.269.128v5.758h-1.064Z" transform="translate(-357.293 -370.694)" fill="#404040"/>
            <path id="Path_3810" data-name="Path 3810" d="M390.328,371.618h1.049v1.234h-1.049Zm0,2.836h1.049v7.093h-1.049Z" transform="translate(-355.437 -371.363)" fill="#404040"/>
            <path id="Path_3811" data-name="Path 3811" d="M393.423,380.658a2.085,2.085,0,0,1-.894-1.177,6.893,6.893,0,0,1-.269-2.135,5.491,5.491,0,0,1,.568-2.7,2.3,2.3,0,0,1,2.2-1.008q.426,0,.879.043t1.235.185l-.043.866a16.211,16.211,0,0,0-1.717-.129,2.53,2.53,0,0,0-1.242.249,1.368,1.368,0,0,0-.61.834,6.142,6.142,0,0,0-.177,1.68,5.919,5.919,0,0,0,.169,1.608,1.376,1.376,0,0,0,.616.834,2.607,2.607,0,0,0,1.3.263l1.675-.128.043.879a15.453,15.453,0,0,1-2.043.2,3.261,3.261,0,0,1-1.691-.373Z" transform="translate(-354.801 -370.701)" fill="#404040"/>
            <path id="Path_3812" data-name="Path 3812" d="M397.2,380.477a2.264,2.264,0,0,1-.508-1.59,2.016,2.016,0,0,1,.522-1.519,2.751,2.751,0,0,1,1.653-.609l2.228-.209v-.61q0-1.348-1.164-1.348a25.982,25.982,0,0,0-2.793.185l-.043-.808a13.821,13.821,0,0,1,2.767-.313,1.972,1.972,0,0,1,2.295,2.286v3.633q.043.521.823.626l-.043.834a2.287,2.287,0,0,1-1.688-.568,6.185,6.185,0,0,1-2.554.568,1.932,1.932,0,0,1-1.495-.555Zm3.562-.668.326-.115v-2.341l-2.1.2a1.365,1.365,0,0,0-.922.369,1.3,1.3,0,0,0-.284.908q0,1.3,1.077,1.306a5.827,5.827,0,0,0,1.9-.327Z" transform="translate(-353.339 -370.701)" fill="#404040"/>
            <path id="Path_3813" data-name="Path 3813" d="M402.328,371.426h1.064v10.187h-1.064Z" transform="translate(-351.474 -371.426)" fill="#404040"/>
            <path id="Path_3814" data-name="Path 3814" d="M407.032,380.48a2.263,2.263,0,0,1-.508-1.591,2.012,2.012,0,0,1,.521-1.518,2.747,2.747,0,0,1,1.653-.609l2.228-.209v-.61q0-1.348-1.163-1.348a25.912,25.912,0,0,0-2.794.185l-.043-.808a13.838,13.838,0,0,1,2.767-.313,1.972,1.972,0,0,1,2.295,2.283v3.632q.042.521.823.626l-.043.834a2.3,2.3,0,0,1-1.694-.567,6.183,6.183,0,0,1-2.552.567,1.931,1.931,0,0,1-1.49-.555Zm3.561-.668.326-.115v-2.341l-2.1.2a1.366,1.366,0,0,0-.922.369,1.3,1.3,0,0,0-.284.908q0,1.3,1.079,1.306a5.821,5.821,0,0,0,1.9-.326Z" transform="translate(-350.091 -370.704)" fill="#404040"/>
            <path id="Path_3815" data-name="Path 3815" d="M412.1,373.788h1.049v.5a5.307,5.307,0,0,1,1.171-.5,4.358,4.358,0,0,1,1.114-.141,2.466,2.466,0,0,1,1.406.339,1.852,1.852,0,0,1,.7,1.085,8.119,8.119,0,0,1,.209,2.065v3.746H416.7v-3.717a7.5,7.5,0,0,0-.121-1.546,1.314,1.314,0,0,0-.432-.78,1.46,1.46,0,0,0-.907-.241,4.22,4.22,0,0,0-.987.122,3.879,3.879,0,0,0-.817.275l-.27.128v5.758H412.1Z" transform="translate(-348.249 -370.694)" fill="#404040"/>
            <path id="Path_3816" data-name="Path 3816" d="M418.073,380.879a4.912,4.912,0,0,1-.582-2.687,4.776,4.776,0,0,1,.7-2.921,2.774,2.774,0,0,1,2.32-.894,8.286,8.286,0,0,1,1.689.184v-3.129h1.05v10.187H422.2v-.488a4.394,4.394,0,0,1-2.2.626A2.144,2.144,0,0,1,418.073,380.879Zm3.025-.2a4.677,4.677,0,0,0,.823-.277l.284-.127v-4.81a8.99,8.99,0,0,0-1.6-.169,1.763,1.763,0,0,0-1.565.652,3.933,3.933,0,0,0-.447,2.156,4.39,4.39,0,0,0,.362,2.037,1.311,1.311,0,0,0,1.252.659,3.687,3.687,0,0,0,.892-.119Z" transform="translate(-346.474 -371.423)" fill="#404040"/>
            <path id="Path_3817" data-name="Path 3817" d="M424.983,371.7h1.13l2.256,8.854h.795l2.256-8.854h1.135l-2.569,9.822h-2.44Z" transform="translate(-343.994 -371.334)" fill="#404040"/>
            <path id="Path_3818" data-name="Path 3818" d="M432.254,380.646a2.086,2.086,0,0,1-.95-1.17,7.949,7.949,0,0,1,.015-4.264,2.153,2.153,0,0,1,.964-1.191,3.6,3.6,0,0,1,1.773-.377,3.53,3.53,0,0,1,1.773.384,2.19,2.19,0,0,1,.959,1.191,7.92,7.92,0,0,1,.013,4.257,2.1,2.1,0,0,1-.939,1.17,4.519,4.519,0,0,1-3.611,0Zm3.008-.808a1.39,1.39,0,0,0,.574-.834,6.216,6.216,0,0,0,.164-1.625,6.478,6.478,0,0,0-.169-1.7,1.4,1.4,0,0,0-.581-.851,2.241,2.241,0,0,0-1.178-.254,2.282,2.282,0,0,0-1.185.254,1.417,1.417,0,0,0-.592.851A8.2,8.2,0,0,0,432.28,379a1.384,1.384,0,0,0,.582.847,2.288,2.288,0,0,0,1.213.263,2.22,2.22,0,0,0,1.19-.267Z" transform="translate(-342 -370.696)" fill="#404040"/>
            <path id="Path_3819" data-name="Path 3819" d="M437.72,380.657a2.078,2.078,0,0,1-.894-1.177,6.894,6.894,0,0,1-.269-2.135,5.5,5.5,0,0,1,.567-2.7,2.3,2.3,0,0,1,2.2-1.008q.424,0,.88.043t1.234.185l-.043.866a16.153,16.153,0,0,0-1.716-.129,2.53,2.53,0,0,0-1.241.249,1.369,1.369,0,0,0-.61.835,6.144,6.144,0,0,0-.177,1.68,5.947,5.947,0,0,0,.169,1.608,1.377,1.377,0,0,0,.618.834,2.608,2.608,0,0,0,1.3.263l1.669-.128.043.879a15.408,15.408,0,0,1-2.044.2A3.257,3.257,0,0,1,437.72,380.657Z" transform="translate(-340.174 -370.7)" fill="#404040"/>
            <path id="Path_3820" data-name="Path 3820" d="M441.491,380.471a2.263,2.263,0,0,1-.508-1.59,2.017,2.017,0,0,1,.521-1.519,2.751,2.751,0,0,1,1.653-.609l2.229-.209v-.61q0-1.348-1.163-1.348a26,26,0,0,0-2.794.185l-.043-.808a13.822,13.822,0,0,1,2.767-.313,1.973,1.973,0,0,1,2.3,2.284v3.632q.044.521.823.626l-.043.834a2.3,2.3,0,0,1-1.689-.568,6.194,6.194,0,0,1-2.554.568A1.931,1.931,0,0,1,441.491,380.471Zm3.562-.668.326-.115v-2.339l-2.1.2a1.369,1.369,0,0,0-.923.369,1.307,1.307,0,0,0-.283.908q0,1.3,1.078,1.306a5.821,5.821,0,0,0,1.906-.327Z" transform="translate(-338.713 -370.694)" fill="#404040"/>
            <path id="Path_3821" data-name="Path 3821" d="M447.85,381.308a1.326,1.326,0,0,1-.582-.795,5.43,5.43,0,0,1-.177-1.565v-3.734h-1.014v-.924h1.013V372.12h1.05v2.171h2.252v.924h-2.256V378.6a9.056,9.056,0,0,0,.056,1.186.835.835,0,0,0,.965.8l1.263-.085.07.88a10.887,10.887,0,0,1-1.519.157,2.259,2.259,0,0,1-1.128-.229Z" transform="translate(-337.03 -371.197)" fill="#404040"/>
            <path id="Path_3822" data-name="Path 3822" d="M450.2,371.618h1.049v1.234H450.2Zm0,2.836h1.049v7.093H450.2Z" transform="translate(-335.669 -371.363)" fill="#404040"/>
            <path id="Path_3823" data-name="Path 3823" d="M453.352,380.645a2.086,2.086,0,0,1-.951-1.17,7.975,7.975,0,0,1,.015-4.264,2.149,2.149,0,0,1,.965-1.191,3.6,3.6,0,0,1,1.773-.377,3.538,3.538,0,0,1,1.773.384,2.2,2.2,0,0,1,.958,1.191,7.938,7.938,0,0,1,.014,4.257,2.1,2.1,0,0,1-.939,1.17,4.518,4.518,0,0,1-3.611,0Zm3.008-.808a1.391,1.391,0,0,0,.574-.834,6.206,6.206,0,0,0,.164-1.625,6.508,6.508,0,0,0-.169-1.7,1.4,1.4,0,0,0-.581-.851,2.241,2.241,0,0,0-1.178-.255,2.278,2.278,0,0,0-1.185.255,1.415,1.415,0,0,0-.592.851,8.164,8.164,0,0,0-.015,3.321,1.382,1.382,0,0,0,.582.847,2.293,2.293,0,0,0,1.212.264,2.226,2.226,0,0,0,1.189-.267Z" transform="translate(-335.034 -370.696)" fill="#404040"/>
            <path id="Path_3824" data-name="Path 3824" d="M457.877,373.788h1.05v.5a5.24,5.24,0,0,1,1.171-.5,4.354,4.354,0,0,1,1.114-.141,2.461,2.461,0,0,1,1.405.339,1.85,1.85,0,0,1,.7,1.085,8.123,8.123,0,0,1,.209,2.066v3.745h-1.05v-3.717a7.512,7.512,0,0,0-.12-1.546,1.317,1.317,0,0,0-.432-.78,1.46,1.46,0,0,0-.909-.241,4.222,4.222,0,0,0-.986.122,3.9,3.9,0,0,0-.817.276l-.269.128v5.758h-1.064Z" transform="translate(-333.132 -370.694)" fill="#404040"/>
            <path id="Path_3825" data-name="Path 3825" d="M463.67,380.48a2.264,2.264,0,0,1-.508-1.59,2.016,2.016,0,0,1,.522-1.518,2.753,2.753,0,0,1,1.652-.609l2.229-.209v-.61q0-1.348-1.163-1.348a25.965,25.965,0,0,0-2.794.185l-.043-.808a13.812,13.812,0,0,1,2.767-.313,1.971,1.971,0,0,1,2.295,2.283v3.632q.043.521.823.626l-.043.834a2.3,2.3,0,0,1-1.689-.567,6.18,6.18,0,0,1-2.553.567,1.932,1.932,0,0,1-1.495-.553Zm3.561-.668.326-.115v-2.341l-2.1.2a1.37,1.37,0,0,0-.922.369,1.306,1.306,0,0,0-.283.908q0,1.3,1.078,1.306a5.814,5.814,0,0,0,1.9-.326Z" transform="translate(-331.39 -370.704)" fill="#404040"/>
            <path id="Path_3826" data-name="Path 3826" d="M468.8,371.426h1.064v10.187H468.8Z" transform="translate(-329.525 -371.426)" fill="#404040"/>
            <path id="Path_3827" data-name="Path 3827" d="M475.727,372.683H472.7V371.7h7.093v.979H476.8v8.84h-1.077Z" transform="translate(-328.239 -371.334)" fill="#404040"/>
            <path id="Path_3828" data-name="Path 3828" d="M477.92,373.79h1.049v.965a7.1,7.1,0,0,1,2.6-1.12v1.078a8.4,8.4,0,0,0-1.2.347,8.932,8.932,0,0,0-1.029.432l-.355.185v5.207H477.92Z" transform="translate(-326.515 -370.696)" fill="#404040"/>
            <path id="Path_3829" data-name="Path 3829" d="M481.674,380.471a2.264,2.264,0,0,1-.508-1.59,2.019,2.019,0,0,1,.521-1.519,2.753,2.753,0,0,1,1.653-.609l2.229-.209v-.61q0-1.348-1.163-1.348a25.9,25.9,0,0,0-2.794.185l-.043-.808a13.826,13.826,0,0,1,2.767-.313,1.973,1.973,0,0,1,2.3,2.284v3.632q.044.521.823.626l-.042.834a2.3,2.3,0,0,1-1.689-.568,6.194,6.194,0,0,1-2.554.568,1.932,1.932,0,0,1-1.5-.556Zm3.562-.668.326-.115v-2.339l-2.1.2a1.371,1.371,0,0,0-.923.369,1.306,1.306,0,0,0-.283.908q0,1.3,1.077,1.306a5.825,5.825,0,0,0,1.9-.326Z" transform="translate(-325.445 -370.694)" fill="#404040"/>
            <path id="Path_3830" data-name="Path 3830" d="M486.74,371.618h1.049v1.234H486.74Zm0,2.836h1.049v7.093H486.74Z" transform="translate(-323.602 -371.363)" fill="#404040"/>
            <path id="Path_3831" data-name="Path 3831" d="M488.959,373.788h1.05v.5a5.268,5.268,0,0,1,1.171-.5,4.347,4.347,0,0,1,1.113-.141,2.464,2.464,0,0,1,1.4.339,1.85,1.85,0,0,1,.7,1.085,8.122,8.122,0,0,1,.209,2.066v3.745h-1.05v-3.717a7.6,7.6,0,0,0-.12-1.546,1.31,1.31,0,0,0-.434-.78,1.461,1.461,0,0,0-.908-.241,4.21,4.21,0,0,0-.986.122,3.9,3.9,0,0,0-.816.275l-.269.128v5.758h-1.064Z" transform="translate(-322.87 -370.694)" fill="#404040"/>
            <path id="Path_3832" data-name="Path 3832" d="M494.582,371.618h1.049v1.234h-1.049Zm0,2.836h1.049v7.093h-1.049Z" transform="translate(-321.013 -371.363)" fill="#404040"/>
            <path id="Path_3833" data-name="Path 3833" d="M496.8,373.788h1.049v.5a5.284,5.284,0,0,1,1.171-.5,4.365,4.365,0,0,1,1.114-.142,2.467,2.467,0,0,1,1.4.339,1.857,1.857,0,0,1,.7,1.085,8.159,8.159,0,0,1,.209,2.066v3.745H501.4v-3.717a7.586,7.586,0,0,0-.12-1.546,1.314,1.314,0,0,0-.433-.78,1.46,1.46,0,0,0-.907-.241,4.22,4.22,0,0,0-.987.122,3.9,3.9,0,0,0-.816.276l-.269.128v5.758H496.8Z" transform="translate(-320.28 -370.694)" fill="#404040"/>
            <path id="Path_3834" data-name="Path 3834" d="M502.847,383.744a1.817,1.817,0,0,1-.659-1.582,2.195,2.195,0,0,1,.1-.745,1.416,1.416,0,0,1,.334-.521,7.84,7.84,0,0,1,.677-.583.77.77,0,0,1-.3-.383,1.474,1.474,0,0,1-.1-.539,1.123,1.123,0,0,1,.085-.4,7.15,7.15,0,0,1,.4-.775,2.076,2.076,0,0,1-1.12-2.128,2.357,2.357,0,0,1,.666-1.838,2.921,2.921,0,0,1,2.014-.6,6.515,6.515,0,0,1,1.448.185l2.1-.056v.909l-1.348-.029a1.48,1.48,0,0,1,.355.592,2.941,2.941,0,0,1,.113.887,2.217,2.217,0,0,1-.653,1.8,3.207,3.207,0,0,1-2.058.539,3.758,3.758,0,0,1-.723-.057c-.075.19-.138.355-.185.5a1.19,1.19,0,0,0-.071.369.462.462,0,0,0,.291.483,2.668,2.668,0,0,0,.9.114h.554a6.6,6.6,0,0,1,1.511.142,1.488,1.488,0,0,1,.887.576,2.126,2.126,0,0,1,.313,1.252,2.094,2.094,0,0,1-.767,1.8,4.329,4.329,0,0,1-2.525.568,3.986,3.986,0,0,1-2.246-.48Zm3.994-.737a1.235,1.235,0,0,0,.468-1.1,1.251,1.251,0,0,0-.155-.688.827.827,0,0,0-.522-.319,4.975,4.975,0,0,0-1.064-.085l-1.532-.071a2.489,2.489,0,0,0-.632.592,1.251,1.251,0,0,0-.163.677,1.13,1.13,0,0,0,.432,1.022,2.956,2.956,0,0,0,1.524.284,3.078,3.078,0,0,0,1.645-.312Zm-.653-5.737a1.628,1.628,0,0,0,.368-1.206,1.609,1.609,0,0,0-.368-1.191,1.728,1.728,0,0,0-1.221-.355,1.772,1.772,0,0,0-1.252.362,1.608,1.608,0,0,0-.375,1.2,1.584,1.584,0,0,0,.375,1.191,1.774,1.774,0,0,0,1.242.355,1.75,1.75,0,0,0,1.236-.356Z" transform="translate(-318.505 -370.698)" fill="#404040"/>
            <path id="Path_3835" data-name="Path 3835" d="M511.3,381.142a2.833,2.833,0,0,1-1.107-1.64,13.755,13.755,0,0,1,0-5.7,2.874,2.874,0,0,1,1.087-1.646,3.87,3.87,0,0,1,2.262-.56,13.26,13.26,0,0,1,2.654.313l-.044.922a14.332,14.332,0,0,0-2.468-.254,2.921,2.921,0,0,0-1.675.4,2.054,2.054,0,0,0-.773,1.279,11.952,11.952,0,0,0-.209,2.552,10.422,10.422,0,0,0,.191,2.263,2,2,0,0,0,.788,1.235,3.158,3.158,0,0,0,1.8.417,12.989,12.989,0,0,0,2.342-.254l.044.931a13.084,13.084,0,0,1-2.583.3,4.039,4.039,0,0,1-2.314-.557Z" transform="translate(-315.957 -371.373)" fill="#404040"/>
            <path id="Path_3836" data-name="Path 3836" d="M516.624,380.646a2.086,2.086,0,0,1-.95-1.17,7.956,7.956,0,0,1,.015-4.264,2.153,2.153,0,0,1,.964-1.191,3.6,3.6,0,0,1,1.773-.377,3.528,3.528,0,0,1,1.773.384,2.189,2.189,0,0,1,.959,1.191,7.917,7.917,0,0,1,.013,4.257,2.1,2.1,0,0,1-.939,1.17,4.519,4.519,0,0,1-3.611,0Zm3.008-.808a1.391,1.391,0,0,0,.573-.834,6.216,6.216,0,0,0,.164-1.625,6.462,6.462,0,0,0-.169-1.7,1.4,1.4,0,0,0-.581-.851,2.242,2.242,0,0,0-1.178-.254,2.281,2.281,0,0,0-1.185.253,1.415,1.415,0,0,0-.592.851A8.2,8.2,0,0,0,516.65,379a1.385,1.385,0,0,0,.582.847,2.287,2.287,0,0,0,1.213.264,2.22,2.22,0,0,0,1.187-.267Z" transform="translate(-314.143 -370.696)" fill="#404040"/>
            <path id="Path_3837" data-name="Path 3837" d="M521.15,373.789h1.05v.965a7.107,7.107,0,0,1,2.6-1.12v1.078a8.411,8.411,0,0,0-1.2.347,8.9,8.9,0,0,0-1.029.432l-.354.185v5.207h-1.064Z" transform="translate(-312.24 -370.697)" fill="#404040"/>
            <path id="Path_3838" data-name="Path 3838" d="M524.734,373.789h1.054v.508a5.261,5.261,0,0,1,1.072-.489,3.658,3.658,0,0,1,1.1-.163,2.17,2.17,0,0,1,1.922.872,4.973,4.973,0,0,1,.6,2.774,6.2,6.2,0,0,1-.313,2.163,2.19,2.19,0,0,1-.993,1.191,3.8,3.8,0,0,1-1.831.377,7.566,7.566,0,0,1-1.547-.157v3.165H524.74Zm4.2,5.663a3.7,3.7,0,0,0,.468-2.116,4.1,4.1,0,0,0-.4-2.093,1.348,1.348,0,0,0-1.228-.646,3.214,3.214,0,0,0-.887.137,5.553,5.553,0,0,0-.815.29l-.27.142v4.781a11.693,11.693,0,0,0,1.565.156,1.806,1.806,0,0,0,1.575-.651Z" transform="translate(-311.057 -370.696)" fill="#404040"/>
            <path id="Path_3839" data-name="Path 3839" d="M531.249,380.646a2.086,2.086,0,0,1-.951-1.17,7.953,7.953,0,0,1,.015-4.264,2.154,2.154,0,0,1,.965-1.191,3.6,3.6,0,0,1,1.773-.377,3.534,3.534,0,0,1,1.773.383,2.19,2.19,0,0,1,.958,1.191,7.928,7.928,0,0,1,.014,4.257,2.1,2.1,0,0,1-.939,1.17,4.521,4.521,0,0,1-3.611,0Zm3.008-.808a1.391,1.391,0,0,0,.574-.835,6.253,6.253,0,0,0,.164-1.625,6.506,6.506,0,0,0-.169-1.7,1.4,1.4,0,0,0-.582-.851,2.241,2.241,0,0,0-1.178-.255,2.277,2.277,0,0,0-1.186.253,1.418,1.418,0,0,0-.592.851,8.2,8.2,0,0,0-.015,3.321,1.385,1.385,0,0,0,.583.847,2.285,2.285,0,0,0,1.212.263,2.223,2.223,0,0,0,1.189-.265Z" transform="translate(-309.315 -370.696)" fill="#404040"/>
            <path id="Path_3840" data-name="Path 3840" d="M535.772,373.789h1.05v.965a7.11,7.11,0,0,1,2.6-1.12v1.078a8.342,8.342,0,0,0-1.2.347,8.912,8.912,0,0,0-1.03.432l-.354.185v5.207h-1.066Z" transform="translate(-307.412 -370.697)" fill="#404040"/>
            <path id="Path_3841" data-name="Path 3841" d="M539.529,380.477a2.264,2.264,0,0,1-.508-1.591,2.016,2.016,0,0,1,.521-1.518,2.746,2.746,0,0,1,1.653-.609l2.228-.209v-.61q0-1.348-1.163-1.348a25.945,25.945,0,0,0-2.794.185l-.043-.809a13.835,13.835,0,0,1,2.768-.313,1.972,1.972,0,0,1,2.295,2.286v3.632q.042.521.823.626l-.044.834a2.3,2.3,0,0,1-1.689-.568,6.177,6.177,0,0,1-2.553.568A1.931,1.931,0,0,1,539.529,380.477Zm3.561-.668.325-.115v-2.341l-2.1.2a1.369,1.369,0,0,0-.923.369,1.307,1.307,0,0,0-.284.909q0,1.3,1.077,1.306a5.82,5.82,0,0,0,1.9-.326Z" transform="translate(-306.342 -370.701)" fill="#404040"/>
            <path id="Path_3842" data-name="Path 3842" d="M545.881,381.307a1.334,1.334,0,0,1-.583-.794,5.435,5.435,0,0,1-.176-1.565v-3.734h-1.008v-.924h1.008V372.12h1.05v2.171h2.256v.924h-2.256V378.6a9.1,9.1,0,0,0,.056,1.186.834.834,0,0,0,.965.8l1.263-.084.071.88a10.9,10.9,0,0,1-1.518.157A2.258,2.258,0,0,1,545.881,381.307Z" transform="translate(-304.658 -371.196)" fill="#404040"/>
            <path id="Path_3843" data-name="Path 3843" d="M548.232,371.618h1.05v1.234h-1.05Zm0,2.836h1.05v7.093h-1.05Z" transform="translate(-303.299 -371.363)" fill="#404040"/>
            <path id="Path_3844" data-name="Path 3844" d="M551.386,380.645a2.093,2.093,0,0,1-.951-1.17,7.975,7.975,0,0,1,.015-4.264,2.156,2.156,0,0,1,.965-1.191,3.6,3.6,0,0,1,1.773-.377,3.539,3.539,0,0,1,1.773.384,2.189,2.189,0,0,1,.958,1.191,7.937,7.937,0,0,1,.014,4.257,2.1,2.1,0,0,1-.939,1.17,4.518,4.518,0,0,1-3.61,0Zm3.007-.808a1.4,1.4,0,0,0,.575-.834,6.266,6.266,0,0,0,.163-1.625,6.554,6.554,0,0,0-.169-1.7,1.4,1.4,0,0,0-.582-.851,2.241,2.241,0,0,0-1.178-.253,2.28,2.28,0,0,0-1.186.255,1.415,1.415,0,0,0-.593.851,8.166,8.166,0,0,0-.015,3.321,1.39,1.39,0,0,0,.582.847,2.294,2.294,0,0,0,1.213.264,2.223,2.223,0,0,0,1.19-.268Z" transform="translate(-302.665 -370.696)" fill="#404040"/>
            <path id="Path_3845" data-name="Path 3845" d="M555.911,373.788h1.054v.5a5.271,5.271,0,0,1,1.171-.5,4.361,4.361,0,0,1,1.114-.141,2.461,2.461,0,0,1,1.4.339,1.847,1.847,0,0,1,.7,1.085,8.124,8.124,0,0,1,.209,2.066v3.744h-1.055v-3.717a7.547,7.547,0,0,0-.12-1.546,1.312,1.312,0,0,0-.433-.78,1.46,1.46,0,0,0-.908-.241,4.225,4.225,0,0,0-.986.122,3.9,3.9,0,0,0-.816.275l-.269.128v5.758h-1.064Z" transform="translate(-300.763 -370.694)" fill="#404040"/>
          </g>
          <g id="Group_5851" data-name="Group 5851" transform="translate(0.003 0)">
            <path id="Path_3846" data-name="Path 3846" d="M377.1,365.816h-1.8v.074a3.736,3.736,0,0,1-.855,2.617,3.129,3.129,0,0,1-2.434.932h-3.918a4.966,4.966,0,0,1-1.967-.388,3.508,3.508,0,0,1-1.468-1.124,2.778,2.778,0,0,1-.556-1.719,22.177,22.177,0,0,1,.38-3.129l1.3.209a23.69,23.69,0,0,0-.293,2.661,2.078,2.078,0,0,0,.339,1.169,2.271,2.271,0,0,0,.914.8,2.847,2.847,0,0,0,1.28.286h3.9a1.835,1.835,0,0,0,1.477-.585,2.428,2.428,0,0,0,.5-1.622v-.173h-.263a4.96,4.96,0,0,1-1.023-.1,2.652,2.652,0,0,1-.921-.394l.585-1.053a1.461,1.461,0,0,0,.6.254,5.7,5.7,0,0,0,.877.051H377.1Zm-8.962,4.679h1.238v1.4h-1.242Zm1.96,0h1.231v1.4H370.1Z" transform="translate(-364.1 -353.83)" fill="#313133"/>
            <path id="Path_3847" data-name="Path 3847" d="M379.987,366.4v1.243h-6.181V366.4h2.179v-6.066h1.388V366.4Zm-3.979-8.859h1.331v1.433h-1.331Z" transform="translate(-360.895 -355.656)" fill="#313133"/>
            <path id="Path_3848" data-name="Path 3848" d="M390.3,365.9v1.244H378.453V365.9h1.638V365a2.653,2.653,0,0,1,.373-1.366,2.844,2.844,0,0,1,1-1.016,2.625,2.625,0,0,1,1.388-.38,2.67,2.67,0,0,1,1.388.373A2.768,2.768,0,0,1,385.6,365v.906h1.918v-1.827a3.51,3.51,0,0,0-1.089-2.946,4.215,4.215,0,0,0-2.654-.842,20.084,20.084,0,0,0-3.189.394l-.1-1.081a14.135,14.135,0,0,1,3.567-.555,5.672,5.672,0,0,1,2.493.522,3.913,3.913,0,0,1,1.725,1.653,5.7,5.7,0,0,1,.636,2.836V365.9Zm-8.421-2a1.4,1.4,0,0,0-.393,1.011v.993h2.748v-1.01a1.376,1.376,0,0,0-2.354-.994Z" transform="translate(-359.361 -355.16)" fill="#313133"/>
            <path id="Path_3849" data-name="Path 3849" d="M399.945,365.746V367h-.571a1.126,1.126,0,0,1-.556-.169,1.7,1.7,0,0,1-.5-.432v.6H387.355v-1.251h4.607a13.966,13.966,0,0,1-.209-2.354,13.457,13.457,0,0,1,.131-1.863,14.812,14.812,0,0,1,.293-1.572,5.959,5.959,0,0,1,1.09-.292,8.069,8.069,0,0,1,1.5-.132,3.572,3.572,0,0,1,2.726.892,4.207,4.207,0,0,1,.826,2.909v1.813a1.3,1.3,0,0,0,.432.432,1.148,1.148,0,0,0,.626.169ZM393.2,364.7q.067.652.139,1.043h3.6v-2.441a2.756,2.756,0,0,0-.562-1.936,2.371,2.371,0,0,0-1.792-.592,5.7,5.7,0,0,0-1.228.132,15.442,15.442,0,0,0-.219,2.486,13.017,13.017,0,0,0,.066,1.309Z" transform="translate(-356.421 -355.008)" fill="#313133"/>
            <path id="Path_3850" data-name="Path 3850" d="M400.007,357.31V367.72h-3.188v-1.243h1.8V357.31Z" transform="translate(-353.296 -355.734)" fill="#313133"/>
            <path id="Path_3851" data-name="Path 3851" d="M401.127,357.31h1.389V367.72h-1.389Z" transform="translate(-351.874 -355.734)" fill="#313133"/>
            <path id="Path_3852" data-name="Path 3852" d="M408.344,359.532q.87.1,1.425.209V366a8.209,8.209,0,0,1-.578,3.428,2.163,2.163,0,0,1-2.157,1.22,20.437,20.437,0,0,1-2.309-.234v-1.242a14.843,14.843,0,0,0,2.207.235,1.616,1.616,0,0,0,.8-.175,1.147,1.147,0,0,0,.467-.695,5.4,5.4,0,0,0,.161-1.513h-2a2.262,2.262,0,0,1-2.229-1.043,5.586,5.586,0,0,1-.533-2.573,7.442,7.442,0,0,1,.313-2.31,2.247,2.247,0,0,1,.994-1.265,3.782,3.782,0,0,1,1.893-.4,14.466,14.466,0,0,1,1.544.1Zm-3,5.57a1.5,1.5,0,0,0,1.477.677h1.565v-5a9.033,9.033,0,0,0-1.27-.1,1.922,1.922,0,0,0-1.645.626,3.622,3.622,0,0,0-.475,2.068,3.755,3.755,0,0,0,.348,1.73Z" transform="translate(-351.058 -355.037)" fill="#313133"/>
            <path id="Path_3853" data-name="Path 3853" d="M424.718,365.816h-1.8v.074a3.738,3.738,0,0,1-.856,2.617,3.128,3.128,0,0,1-2.434.932h-3.918a4.97,4.97,0,0,1-1.967-.388,3.508,3.508,0,0,1-1.469-1.124,2.784,2.784,0,0,1-.555-1.719,22.272,22.272,0,0,1,.38-3.129l1.3.209a23.934,23.934,0,0,0-.293,2.661,2.086,2.086,0,0,0,.339,1.169,2.28,2.28,0,0,0,.914.8,2.846,2.846,0,0,0,1.28.286h3.9a1.833,1.833,0,0,0,1.477-.585,2.428,2.428,0,0,0,.5-1.622v-.173h-.263a4.961,4.961,0,0,1-1.023-.1,2.652,2.652,0,0,1-.921-.394l.584-1.054a1.451,1.451,0,0,0,.6.255,5.676,5.676,0,0,0,.876.051h3.348Zm-8.962,4.679H417v1.4h-1.243Zm1.958,0h1.229v1.4h-1.229Z" transform="translate(-348.377 -353.83)" fill="#313133"/>
            <path id="Path_3854" data-name="Path 3854" d="M427.172,366.4v1.243h-5.746V366.4H423.6v-6.066H425V366.4Zm-3.54-8.859h1.33v1.433h-1.33Z" transform="translate(-345.171 -355.656)" fill="#313133"/>
            <path id="Path_3855" data-name="Path 3855" d="M434.823,366.4v1.243h-9.074V366.4h1.9a6.429,6.429,0,0,1-.339-2.338,5.744,5.744,0,0,1,.35-2.245,2.123,2.123,0,0,1,1.118-1.133,5.478,5.478,0,0,1,2.141-.339,18.87,18.87,0,0,1,2.061.1l.508.058V366.4Zm-5.994-.8a2.7,2.7,0,0,0,.339.8h2.938V361.62q-.906-.073-1.27-.074a2.815,2.815,0,0,0-1.33.249,1.32,1.32,0,0,0-.626.8,5.427,5.427,0,0,0-.175,1.565,5.924,5.924,0,0,0,.127,1.438Zm.1-8.048h1.243v1.418h-1.243Zm1.959,0h1.226v1.418h-1.229Z" transform="translate(-343.743 -355.653)" fill="#313133"/>
            <path id="Path_3856" data-name="Path 3856" d="M438.316,366.4v1.243H432.57V366.4h2.179v-6.066h1.389V366.4Zm-4.473-8.845h1.243v1.418h-1.243Zm1.959,0h1.228v1.418H435.8Z" transform="translate(-341.491 -355.653)" fill="#313133"/>
            <path id="Path_3857" data-name="Path 3857" d="M440.076,357.31V367.72H436.89v-1.243h1.8V357.31Z" transform="translate(-340.065 -355.734)" fill="#313133"/>
            <path id="Path_3858" data-name="Path 3858" d="M441.2,357.31h1.388V367.72H441.2Z" transform="translate(-338.643 -355.734)" fill="#313133"/>
            <path id="Path_3859" data-name="Path 3859" d="M458.011,365.705v1.243h-7.866a9.028,9.028,0,0,1-2.19-.219,2.285,2.285,0,0,1-1.279-.768,2.414,2.414,0,0,1-.431-1.524,10.076,10.076,0,0,1,.139-1.505c.092-.592.2-1.16.313-1.694l1.1.058-.131,1.082a14.408,14.408,0,0,0-.175,1.74,1.356,1.356,0,0,0,.563,1.22,3.916,3.916,0,0,0,2.027.372h4.4v-6.066h1.387v6.062Zm-7.354,2.413h1.331v1.434h-1.331Z" transform="translate(-336.977 -354.962)" fill="#313133"/>
            <path id="Path_3860" data-name="Path 3860" d="M458.656,359.64v7.311h-3.566v-1.243h2.175v-6.066Zm-2.295,8.48H457.6v1.4h-1.242Zm1.959,0h1.231v1.4h-1.229Z" transform="translate(-334.056 -354.965)" fill="#313133"/>
            <path id="Path_3861" data-name="Path 3861" d="M459.407,370.541l-.351-.03v-1.228c.322.028.585.044.79.044a1.106,1.106,0,0,0,1-.522,2.746,2.746,0,0,0,.339-1.476v-7.676h1.373v7.383a4.825,4.825,0,0,1-.6,2.639,2.022,2.022,0,0,1-1.814.914,6.753,6.753,0,0,1-.73-.044Z" transform="translate(-332.746 -354.959)" fill="#313133"/>
            <path id="Path_3862" data-name="Path 3862" d="M470.414,365.787v1.244h-7.543v-1.244H467.6v-1.343a4.242,4.242,0,0,0-.805-2.932,2.5,2.5,0,0,0-1.886-.856h-1.271l-.1-1.037a4.78,4.78,0,0,1,.717-.146,6.61,6.61,0,0,1,.931-.073,3.679,3.679,0,0,1,1.908.508,3.5,3.5,0,0,1,1.367,1.616,6.854,6.854,0,0,1,.508,2.851v1.418Z" transform="translate(-331.487 -355.044)" fill="#313133"/>
            <path id="Path_3863" data-name="Path 3863" d="M474.287,366.4v1.243h-5.746V366.4h2.178v-6.066h1.389V366.4Zm-4.474-8.845h1.242v1.418h-1.242Zm1.959,0H473v1.418h-1.229Z" transform="translate(-329.615 -355.653)" fill="#313133"/>
            <path id="Path_3864" data-name="Path 3864" d="M477.8,366.477v1.243H472.86v-1.243h1.8V357.31h1.388v9.166Z" transform="translate(-328.188 -355.734)" fill="#313133"/>
            <path id="Path_3865" data-name="Path 3865" d="M479.762,357.31V367.72h-3.186v-1.243h1.8V357.31Z" transform="translate(-326.962 -355.734)" fill="#313133"/>
            <path id="Path_3866" data-name="Path 3866" d="M491.337,366.4v1.243h-4.955a5.23,5.23,0,0,1-2.116-.35,2.175,2.175,0,0,1-1.127-1.156,5.687,5.687,0,0,1-.35-2.222,5.877,5.877,0,0,1,.339-2.2,2.15,2.15,0,0,1,1.1-1.17,5,5,0,0,1,2.086-.358q.643,0,1.773.058t1.638.117V366.4Zm-6.937-1.01a1.424,1.424,0,0,0,.738.776,3.443,3.443,0,0,0,1.4.234h1.8v-4.868q-1.17-.085-1.857-.085a3.21,3.21,0,0,0-1.367.24,1.424,1.424,0,0,0-.723.776,3.875,3.875,0,0,0-.219,1.44,3.965,3.965,0,0,0,.226,1.486Zm.651-7.836h1.243v1.42h-1.238Zm1.959,0h1.229v1.42H487.01Z" transform="translate(-324.912 -355.653)" fill="#313133"/>
            <path id="Path_3867" data-name="Path 3867" d="M497.115,360.427a4.206,4.206,0,0,1,.826,2.909v3.651h-8.727v-1.24h2.371a13.951,13.951,0,0,1-.209-2.354,13.463,13.463,0,0,1,.131-1.863,14.784,14.784,0,0,1,.292-1.572,5.962,5.962,0,0,1,1.09-.292,8.052,8.052,0,0,1,1.5-.132A3.575,3.575,0,0,1,497.115,360.427Zm-4.3,4.276c.044.434.09.782.14,1.043h3.6v-2.441a2.753,2.753,0,0,0-.563-1.936,2.369,2.369,0,0,0-1.791-.593,5.676,5.676,0,0,0-1.228.132,15.581,15.581,0,0,0-.219,2.485,12.935,12.935,0,0,0,.063,1.311Z" transform="translate(-322.789 -355.006)" fill="#313133"/>
            <path id="Path_3868" data-name="Path 3868" d="M500.125,366.477v1.243h-2.778V357.31h1.388v9.166Z" transform="translate(-320.103 -355.734)" fill="#313133"/>
            <path id="Path_3869" data-name="Path 3869" d="M508.632,365.746v1.243h-1.655a6.434,6.434,0,0,1-1.469-.175,7.155,7.155,0,0,1-1.41-.483,6.543,6.543,0,0,1-1.375.483,6.3,6.3,0,0,1-1.448.175h-1.843v-1.243h1.8a4.6,4.6,0,0,0,1.535-.277,7.187,7.187,0,0,1-1.7-1.892,4.014,4.014,0,0,1-.666-1.908l-.045-1.112a9.021,9.021,0,0,1,1.835-.762,6.784,6.784,0,0,1,1.892-.279,6.934,6.934,0,0,1,1.909.278,9.24,9.24,0,0,1,1.863.761l-.058,1.112a4.018,4.018,0,0,1-.665,1.908,7.108,7.108,0,0,1-1.717,1.892,4.719,4.719,0,0,0,1.549.277Zm-6.249-2.53a5.482,5.482,0,0,0,1.718,1.638,5.7,5.7,0,0,0,1.739-1.645,3.473,3.473,0,0,0,.626-1.947,7.159,7.159,0,0,0-2.371-.483,7,7,0,0,0-2.34.483,3.525,3.525,0,0,0,.627,1.958Z" transform="translate(-319.415 -355.006)" fill="#313133"/>
            <path id="Path_3870" data-name="Path 3870" d="M509.536,357.31V367.72h-3.188v-1.243h1.8V357.31Z" transform="translate(-317.132 -355.734)" fill="#313133"/>
            <path id="Path_3871" data-name="Path 3871" d="M510.657,357.31h1.388V367.72h-1.388Z" transform="translate(-315.708 -355.734)" fill="#313133"/>
            <path id="Path_3872" data-name="Path 3872" d="M524.1,366.4v1.243h-4.956a5.231,5.231,0,0,1-2.116-.35,2.174,2.174,0,0,1-1.126-1.156,5.691,5.691,0,0,1-.35-2.222,5.871,5.871,0,0,1,.339-2.2,2.149,2.149,0,0,1,1.1-1.17,5,5,0,0,1,2.086-.358q.643,0,1.773.058t1.638.117V366.4Zm-6.938-1.01a1.425,1.425,0,0,0,.739.776,3.441,3.441,0,0,0,1.4.234h1.8v-4.868q-1.17-.085-1.857-.085a3.211,3.211,0,0,0-1.367.24,1.425,1.425,0,0,0-.723.776,3.875,3.875,0,0,0-.219,1.44,3.967,3.967,0,0,0,.226,1.486Zm.651-7.836h1.244v1.42h-1.244Zm1.96,0H521v1.42h-1.229Z" transform="translate(-314.094 -355.653)" fill="#313133"/>
            <path id="Path_3873" data-name="Path 3873" d="M534.535,365.7v1.243h-4.149a2.5,2.5,0,0,1-1.622-.584,1.846,1.846,0,0,1-1.419.584h-5.367V365.7H524.3v-5.334h1.389V365.7h1.2a1,1,0,0,0,.939-.541,2.778,2.778,0,0,0,.3-1.356v-3.434h1.388v3.421a5.376,5.376,0,0,1-.19,1.49,2.368,2.368,0,0,0,.5.292,1.419,1.419,0,0,0,.585.131h1.4v-2.816q0-1.022-.234-3.2l1.17-.044q.174.863.313,1.806a10.806,10.806,0,0,1,.14,1.439v2.821Z" transform="translate(-311.971 -354.962)" fill="#313133"/>
            <path id="Path_3874" data-name="Path 3874" d="M542.5,361.44a10.656,10.656,0,0,1,.14,1.439v4.068h-2.816a2.5,2.5,0,0,1-1.623-.584,1.844,1.844,0,0,1-1.419.584H531.42v-1.241h2.325v-5.334h1.387v5.334h1.2a1,1,0,0,0,.939-.541,2.769,2.769,0,0,0,.3-1.356v-3.434h1.389V363.8a5.373,5.373,0,0,1-.191,1.491,2.354,2.354,0,0,0,.5.292,1.413,1.413,0,0,0,.585.131h1.4v-2.816q0-1.022-.235-3.2l1.17-.044Q542.365,360.5,542.5,361.44Z" transform="translate(-308.852 -354.96)" fill="#313133"/>
            <path id="Path_3875" data-name="Path 3875" d="M549,368.11h-1.828a5.588,5.588,0,0,1-.708,2.674,2.19,2.19,0,0,1-2,.95,20.454,20.454,0,0,1-2.309-.234v-1.243a14.834,14.834,0,0,0,2.208.235,1.613,1.613,0,0,0,.8-.175,1.148,1.148,0,0,0,.468-.7,5.425,5.425,0,0,0,.161-1.513h-2a2.263,2.263,0,0,1-2.23-1.043,5.589,5.589,0,0,1-.533-2.573,7.473,7.473,0,0,1,.313-2.31,2.248,2.248,0,0,1,.994-1.265,3.788,3.788,0,0,1,1.894-.4,14.552,14.552,0,0,1,1.542.095q.871.1,1.426.209v6.037H549Zm-6.228-1.923a1.5,1.5,0,0,0,1.478.677h1.565v-5a9.051,9.051,0,0,0-1.27-.1,1.924,1.924,0,0,0-1.645.626,3.615,3.615,0,0,0-.475,2.068,3.768,3.768,0,0,0,.348,1.73Zm3.261-7.492-3.056.6-.146-.522.7-.19a1.308,1.308,0,0,1-.4-.489,1.393,1.393,0,0,1-.13-.592,1.374,1.374,0,0,1,1.417-1.375,1.927,1.927,0,0,1,1.083.352l-.161.658a1.01,1.01,0,0,0-.263-.146.972.972,0,0,0-.379-.073.819.819,0,0,0-.483,1.491l1.638-.439Z" transform="translate(-305.679 -356.125)" fill="#313133"/>
            <path id="Path_3876" data-name="Path 3876" d="M557.373,365.746V367H556.8a1.127,1.127,0,0,1-.556-.169,1.686,1.686,0,0,1-.5-.432v.6h-8.728v-1.251h2.371a13.958,13.958,0,0,1-.208-2.354,13.455,13.455,0,0,1,.131-1.863,14.655,14.655,0,0,1,.293-1.571,5.955,5.955,0,0,1,1.09-.292,8.011,8.011,0,0,1,1.5-.133,3.575,3.575,0,0,1,2.727.889,4.212,4.212,0,0,1,.826,2.909v1.813a1.293,1.293,0,0,0,.431.432,1.147,1.147,0,0,0,.621.169Zm-6.746-1.043q.065.652.138,1.043h3.6v-2.441a2.753,2.753,0,0,0-.563-1.937,2.371,2.371,0,0,0-1.791-.592,5.716,5.716,0,0,0-1.229.132,15.47,15.47,0,0,0-.219,2.486,13.055,13.055,0,0,0,.068,1.307Z" transform="translate(-303.701 -355.007)" fill="#313133"/>
            <path id="Path_3877" data-name="Path 3877" d="M557.993,357.31V367.72h-3.188v-1.243h1.8V357.31Z" transform="translate(-301.131 -355.734)" fill="#313133"/>
            <path id="Path_3878" data-name="Path 3878" d="M559.113,357.31H560.5V367.72h-1.389Z" transform="translate(-299.709 -355.734)" fill="#313133"/>
          </g>
        </g>
        <g id="Group_5854" data-name="Group 5854" transform="translate(271.315 0)">
          <g id="Group_5853" data-name="Group 5853" transform="translate(1.446 0)">
            <path id="Path_3879" data-name="Path 3879" d="M609.042,336.658h-.006a2.31,2.31,0,0,0-4-1.636h0l-6.519,7.837,2.341,8.124,7.36-4.161Z" transform="translate(-559.454 -334.285)" fill="#a3d09d"/>
            <path id="Path_3880" data-name="Path 3880" d="M623.947,352.228h0a2.311,2.311,0,0,0-1.669-3.986v-.005l-10.153.931-4.09,7.4,8.146,2.261Z" transform="translate(-556.31 -329.678)" fill="#3b7d98"/>
            <path id="Path_3881" data-name="Path 3881" d="M622.421,374.166h0a2.311,2.311,0,0,0,1.635-4h0l-7.836-6.519-8.124,2.341,4.161,7.36Z" transform="translate(-556.294 -324.59)" fill="#25afa5"/>
            <path id="Path_3882" data-name="Path 3882" d="M605.127,389.076h0a2.31,2.31,0,0,0,3.985-1.669h.006l-.931-10.153-7.4-4.09-1.421,9.137Z" transform="translate(-559.175 -321.446)" fill="#126c66"/>
            <path id="Path_3883" data-name="Path 3883" d="M587.281,389.076h0a2.311,2.311,0,0,1-3.986-1.669h-.006l.932-10.153,7.4-4.09,1.422,9.137Z" transform="translate(-564.483 -321.446)" fill="#25afa5"/>
            <path id="Path_3884" data-name="Path 3884" d="M569.985,370.465h0a2.311,2.311,0,0,0,1.669,3.986v.006l10.153-.931,4.09-7.4-8.146-2.262Z" transform="translate(-569.114 -324.518)" fill="#a3d09d"/>
            <path id="Path_3885" data-name="Path 3885" d="M571.527,348.506v.007a2.31,2.31,0,0,0-1.635,4h0l7.836,6.52,8.124-2.341-4.155-7.36Z" transform="translate(-569.152 -329.589)" fill="#00b1c2"/>
            <path id="Path_3886" data-name="Path 3886" d="M587.1,335.117h0a2.31,2.31,0,0,0-3.985,1.669h-.006l.931,10.152,7.4,4.09,2.261-8.145Z" transform="translate(-564.543 -334.25)" fill="#25afa5"/>
          </g>
          <path id="Path_3887" data-name="Path 3887" d="M615.346,343.839a.578.578,0,0,0-.73-.065L600.5,352.055,598.13,356.2c.255.12.516.235.762.375l3.177-2.156a.871.871,0,0,1,1.155.068l1.475,1.476a.87.87,0,0,1,.069,1.155l-2.156,3.177c.14.241.255.5.372.753l4.149-2.371h0l8.28-14.116a.578.578,0,0,0-.067-.726Z" transform="translate(-558.138 -331.185)" fill="#404040"/>
          <path id="Path_3888" data-name="Path 3888" d="M568.117,384.774a.584.584,0,0,1,.626-.351l30.952,10.7,1,6.408-9.843-4.7-22.573-11.369a.568.568,0,0,1-.157-.681Z" transform="translate(-568.064 -317.732)" fill="#404040"/>
          <path id="Path_3889" data-name="Path 3889" d="M629.785,384.774a.584.584,0,0,0-.626-.351l-30.954,10.7-1,6.408,9.843-4.7,22.573-11.369a.567.567,0,0,0,.16-.682Z" transform="translate(-558.441 -317.732)" fill="#404040"/>
          <path id="Path_3890" data-name="Path 3890" d="M622.494,360.576l-15.833-4.125-4.614,1.258c.1.265.2.527.273.8l3.768.722a.871.871,0,0,1,.769.865v2.086a.871.871,0,0,1-.77.866l-3.769.721c-.074.273-.176.533-.271.8l4.611,1.258v.005l15.833-4.127a.573.573,0,0,0,0-1.125Z" transform="translate(-556.845 -326.967)" fill="#404040"/>
          <path id="Path_3891" data-name="Path 3891" d="M615.414,379.691l-8.281-14.113-4.149-2.371c-.12.255-.235.516-.374.762l2.156,3.177a.871.871,0,0,1-.069,1.156l-1.475,1.475a.87.87,0,0,1-1.155.068l-3.177-2.156c-.242.14-.5.255-.754.372l2.371,4.148h0l14.115,8.28a.573.573,0,0,0,.8-.8Z" transform="translate(-558.135 -324.735)" fill="#404040"/>
          <path id="Path_3892" data-name="Path 3892" d="M598.694,367.395l-.722,3.768a.871.871,0,0,1-.865.769h-2.086a.871.871,0,0,1-.865-.769l-.722-3.768c-.272-.074-.533-.176-.8-.272l-1.258,4.612h-.005l4.126,35.032a.573.573,0,0,0,1.126,0l4.125-35.032-1.258-4.613C599.231,367.213,598.969,367.318,598.694,367.395Z" transform="translate(-560.368 -323.442)" fill="#404040"/>
          <path id="Path_3893" data-name="Path 3893" d="M595.226,367.681l-3.177,2.156a.871.871,0,0,1-1.155-.068l-1.475-1.475a.87.87,0,0,1-.068-1.156l2.156-3.177c-.14-.241-.255-.5-.372-.754l-4.149,2.371h0l-8.279,14.115a.573.573,0,0,0,.8.8l14.113-8.281,2.371-4.148C595.729,367.936,595.469,367.821,595.226,367.681Z" transform="translate(-564.582 -324.735)" fill="#404040"/>
          <path id="Path_3894" data-name="Path 3894" d="M592.675,363.769l-3.772-.721a.871.871,0,0,1-.769-.866V360.1a.871.871,0,0,1,.769-.865l3.768-.722c.074-.273.176-.533.271-.8l-4.611-1.257v-.006L572.5,360.577a.573.573,0,0,0,0,1.127l15.833,4.125,4.612-1.257C592.851,364.306,592.749,364.044,592.675,363.769Z" transform="translate(-566.755 -326.967)" fill="#404040"/>
          <path id="Path_3895" data-name="Path 3895" d="M591.137,361.062c.12-.255.234-.515.375-.761l-2.156-3.177a.87.87,0,0,1,.068-1.155l1.475-1.476a.871.871,0,0,1,1.155-.068l3.177,2.156c.242-.14.5-.254.754-.372l-2.371-4.149h0L579.5,343.781a.572.572,0,0,0-.8.8l8.28,14.114Z" transform="translate(-564.586 -331.183)" fill="#404040"/>
          <path id="Path_3896" data-name="Path 3896" d="M593.435,357.749l.722-3.768a.872.872,0,0,1,.866-.769h2.086a.871.871,0,0,1,.865.769l.722,3.769c.272.074.533.176.8.271l1.257-4.612h.006l-4.127-15.833a.573.573,0,0,0-1.126,0l-4.125,15.833,1.257,4.613C592.9,357.926,593.161,357.822,593.435,357.749Z" transform="translate(-560.367 -333.354)" fill="#404040"/>
        </g>
      </g>
    </g>
  </g>
</svg>
