<svg id="logo" xmlns="http://www.w3.org/2000/svg" width="139.061" height="92.749" viewBox="0 0 139.061 92.749">
  <g id="Group_5843" data-name="Group 5843" transform="translate(112.944)">
    <path id="Path_5" data-name="Path 5" d="M196.942,76.919c-.09-.4-.353-.531-.406-.189a6.215,6.215,0,0,1-2.729,4.4,44.8,44.8,0,0,1-8,3.5,15,15,0,0,0-5.279,2.779,5.955,5.955,0,0,0-1.786,4.788c.02.244.2.428.467.157,4.9-4.348,12.207-5.018,16.743-9.942.19-.206.327-.125.2.127-2.887,5.817-9.227,8.593-14.031,12.618-3.122,2.55-4.965,6.261-3.859,10.466.245.447.458.525.68.268a3.664,3.664,0,0,0,.391-.851c2.7-5.862,8.659-9.875,13.352-14.241a14.882,14.882,0,0,0,4.252-13.879" transform="translate(-177.945 -57.788)" fill="#b09d6d"/>
    <path id="Path_6" data-name="Path 6" d="M198.689,59.394l.582-.279c-1.054,3.749-5.636,2.653-8.108,4.669,1.111-2.951,4.84-3.331,7.525-4.39m-5.02,6.061a27.734,27.734,0,0,0,3.95-1c1.941-1.1,2.044-3.915,2.544-5.941,2.338-2.127,2.009-5.6,1.518-7.7-.08-.288-.2-.36-.294-.326a.215.215,0,0,0-.123.17,1.252,1.252,0,0,0,.055.478,4.9,4.9,0,0,1-2.014,4.89,5.894,5.894,0,0,1-1.627.621,14.292,14.292,0,0,0-5.49,2.606c-2.726,2.076-2.823,6.007-2.757,9.1.721-1.7,2.435-2.434,4.236-2.9" transform="translate(-184.886 -42.069)" fill="#b09d6d"/>
    <path id="Path_7" data-name="Path 7" d="M186.694,115.49c.719-5.978,5.995-9.983,8.836-15.04a6.875,6.875,0,0,0-.887-7.276s-.072-.08-.133-.085-.109.067-.092.178c.033.221.05.32.065.475.537,5.192-4.54,8.628-7.344,12.485a13.513,13.513,0,0,0-2.05,5.219c-.05.284-.276.164-.351-.106-2.247-8,2.485-14.481,8.738-21.3,3.2-3.428,6.561-7.014,8.466-11.192,2.049-5.706.676-12.317-1.739-17.384-.59-1.06-1.355-3.191-1.857-3.045-.083.086-.086.252-.032.47.1.426,1.65,3.285,1.865,3.714,2.439,4.845,2.217,11.285-.581,15.288-4.47,7.713-14,12.806-16.727,21.337-2.123,6.278.113,12.933,3.641,18.013.626.54.112-1.176.184-1.75" transform="translate(-180.424 -46.86)" fill="#b09d6d"/>
    <path id="Path_8" data-name="Path 8" d="M216.965,109.621c2.7-6.121,2.558-14.691-.8-20.423l-.253-.067c3.912,7.234.46,15.356-2.945,21.982a130.277,130.277,0,0,0-7.469,16.264,51.945,51.945,0,0,0-3,12.49,39.508,39.508,0,0,0,2.274,16.425c.627,1.746,1.365,2.416,1.028,1.049a43.526,43.526,0,0,1-.984-16.333c2.111-11.254,8.061-20.85,12.141-31.386" transform="translate(-192.734 -65.322)" fill="#b09d6d"/>
    <path id="Path_9" data-name="Path 9" d="M212.457,32.5c.14-.391.118-.794.229-1.191.651-1.638-1.512-1.345-2.188-2.125a8.4,8.4,0,0,0-.774,2.562l1.74.877-.611,2.211c.533.282,1.153.482,1.673.809a2.815,2.815,0,0,1,.365.279c.139.116.364.315.73.664a22.014,22.014,0,0,1,.451-2.516c.091-.932-1.1-1.031-1.615-1.57" transform="translate(-197.168 -29.183)" fill="#026bb7"/>
    <path id="Path_10" data-name="Path 10" d="M191.211,214.895a7.715,7.715,0,0,1,1.34,2.263c-.275,1.017-1.345,1.344-2.034,2l-1.25-1.891c-.468-.574.506-.747.786-1.079,2.345-1-.506-2.2-.695-3.369a8.425,8.425,0,0,0,1.83-1.63,12.072,12.072,0,0,1,1.4,1.952c.1.929-1.048,1.078-1.376,1.749" transform="translate(-184.652 -139.153)" fill="#026bb7"/>
  </g>
  <g id="Group_3" data-name="Group 3" transform="translate(0 31.122)">
    <path id="Path_11" data-name="Path 11" d="M187.1,320.164V319.2l-4.14.053c-.062.141-6.3,14.147-8.468,17.793-1.719,2.884-4.183,6.2-8,6.2h0a10.044,10.044,0,0,1-4.58-1.319l-.394.386.063.062a7.386,7.386,0,0,0,4.981,1.716h.206c3.262-.064,7.959-1.872,11.807-10.142,3.732-8.025,6.453-13.735,6.422-13.784Z" transform="translate(-148.983 -287.902)" fill="#b09d6d"/>
    <path id="Path_12" data-name="Path 12" d="M175.131,320.124c.9,0,1.227,1.028,1.234,1.048,0,0,1.767,3.987,3.516,7.917l.072.17.864-1.749c-.733-1.708-.958-2.222-1.165-2.706-.308-.707-.585-1.339-2.464-5.6h-3.523v.939h.092s.585-.015,1.374-.015" transform="translate(-151.974 -287.903)" fill="#b09d6d"/>
    <path id="Path_13" data-name="Path 13" d="M198.6,322.1c.509,1.154,1.411,3.223,2.311,5.259h-4.617c.9-2.036,1.8-4.108,2.308-5.259m6.854,9.866c-.594-1.372-2.272-5.288-3.612-8.411L200.318,320h0l-.4-.795H195.5v.939h.091s.594-.015,1.372-.015a1.272,1.272,0,0,1,1.009.524c-.429,1.009-4.209,9.9-4.863,11.322-.863,1.866-1.866,2.63-3.469,2.63h-.085v.919h6.706v-.836h-1.272a1.562,1.562,0,0,1-1.109-.616,1.689,1.689,0,0,1,.134-1.569c.365-.783,1.119-2.478,1.849-4.266l5.409-.053.679,1.522c.539,1.211,1,2.238,1.255,2.8a1.7,1.7,0,0,1,.132,1.572,1.535,1.535,0,0,1-1.1.613H200.95v.835h8.058V334.6h-.085c-1.771,0-2.43-.2-3.462-2.63" transform="translate(-155.887 -287.902)" fill="#b09d6d"/>
    <path id="Path_14" data-name="Path 14" d="M220.766,319.2h-7.285v1.051h1.1c.062,0,1.515.068,1.515,2.911v12.354h2.256V320.287H220.7c.058,0,5.744.109,5.744,6.71,0,6.362-4.665,6.548-5.229,6.548h-.724v1.148h.886c1.728,0,7.374-.536,7.374-7.415,0-7.688-6.652-8.076-7.986-8.076" transform="translate(-161.781 -287.902)" fill="#b09d6d"/>
    <path id="Path_15" data-name="Path 15" d="M240.7,322.113c.509,1.154,1.412,3.223,2.312,5.252H238.4Zm24.09-2h1.1V319.2h-4.886l0,8.164h-6.654V319.2h-4.835v1.051h1.1c.054,0,1.332.056,1.493,2.39v9.783c0,1.892-.917,2.143-1.6,2.167-1.442-.062-2.041-.43-2.978-2.62L242.4,320H242.4l.006-.011-.4-.789h-4.424v.939h.092s.594-.015,1.375-.015a1.273,1.273,0,0,1,1.006.528l-.183.433c-1.341,3.15-4.134,9.7-4.679,10.887-.868,1.866-1.873,2.629-3.473,2.629h-.085v.919h6.715v-.836h-1.279a1.542,1.542,0,0,1-1.1-.61,1.714,1.714,0,0,1,.131-1.579c.3-.635.854-1.892,1.5-3.338l.352-.925,5.408-.053.463,1.045c.629,1.416,1.173,2.643,1.465,3.273a1.7,1.7,0,0,1,.137,1.572,1.532,1.532,0,0,1-1.1.612h-1.265v.835H256.2v-.639h-.09a1.565,1.565,0,0,1-1.362-.535,3.361,3.361,0,0,1-.4-1.938l.009-4.175h6.654l.008,4.193a3.448,3.448,0,0,1-.393,1.943,1.546,1.546,0,0,1-1.357.527h-.085v.624h6.715v-.856H264.8c-.062,0-1.517-.073-1.517-2.918l.007-8.705c0-2.841,1.455-2.92,1.514-2.923" transform="translate(-166.253 -287.902)" fill="#b09d6d"/>
    <path id="Path_16" data-name="Path 16" d="M149.768,320h1.6a4.156,4.156,0,0,1,2.9.993,3.308,3.308,0,0,1,1.09,2.573,3.539,3.539,0,0,1-.981,2.635,3.69,3.69,0,0,1-2.721.989l-1.892-.005Zm17.176,15.518v-.668h-.085a1.549,1.549,0,0,1-1.357-.53,3.447,3.447,0,0,1-.394-1.946l.006-13.171H160.23v.869h1.1c.014,0,1.518.074,1.518,2.918l.005,8.705c0,2.847-1.456,2.92-1.518,2.92h-.17V334.6h-.092c-.124.009-.226.009-.322.009v.085h0l-.13-.085a1.166,1.166,0,0,1-.891-.4,14.4,14.4,0,0,1-2.026-2.8,21.436,21.436,0,0,0-1.835-2.722,6.7,6.7,0,0,0-1.289-1.2c2.127-.689,3.206-2.028,3.206-3.987a3.847,3.847,0,0,0-1.491-3.091,6.112,6.112,0,0,0-3.97-1.219h-7.442v.871H146c.06,0,1.512.076,1.512,2.914v8.706c0,2.847-1.45,2.918-1.509,2.918h-1.114v.907h6.72v-.668h-.085a1.556,1.556,0,0,1-1.363-.538,3.426,3.426,0,0,1-.39-1.937v-4.339h1.22a2.954,2.954,0,0,1,1.877.679,13.54,13.54,0,0,1,2.39,3.154,28.183,28.183,0,0,0,2.525,3.656Z" transform="translate(-144.886 -287.9)" fill="#b09d6d"/>
    <path id="Path_17" data-name="Path 17" d="M264.385,284.107l-.047.1c-.064.141-6.233,14.064-8.408,17.705-1.708,2.859-4.145,6.144-7.909,6.144a9.044,9.044,0,0,1-4.411-1.325l-.118-.064-.551.554.124.124a7.3,7.3,0,0,0,5.028,1.728h.2c3.289-.074,8.011-1.9,11.863-10.166,3.473-7.464,5.962-12.71,6.332-13.487l2.193-.015v-1.3Z" transform="translate(-169.038 -279.258)" fill="#026bb7"/>
    <path id="Path_18" data-name="Path 18" d="M244,308.537l-1.872-1.875-1.625,1.625-1.623-1.625-1.872,1.875,1.872,1.875,1.623-1.619,1.625,1.619Z" transform="translate(-167.577 -284.814)" fill="#026bb7"/>
    <path id="Path_19" data-name="Path 19" d="M153.609,279.812l1.639,1.64,1.89-1.89-1.891-1.881-1.638,1.627-1.645-1.634-1.881,1.881,1.881,1.893Z" transform="translate(-146.166 -277.674)" fill="#026bb7"/>
    <path id="Path_20" data-name="Path 20" d="M186.047,296.177l-.011-5.649a6.326,6.326,0,0,0-1.813-4.187c-1.454-1.466-3.633-2.206-6.479-2.206l-6.332-.008v3.865h.857v-1.654a.855.855,0,0,1,.22-.574,1.215,1.215,0,0,1,.9-.317h4.58c.217,0,5.328.056,5.328,5.082l.01,5.6c0,.62-.1,2.63-1.414,2.63h-9.713a2.283,2.283,0,0,1-1.177-.359,2.572,2.572,0,0,1-1.027-2.332v-.175h-1.272v4.048h19.9v-1.163h-1.6c-.009,0-.905-.118-.959-2.606" transform="translate(-150.752 -279.262)" fill="#026bb7"/>
    <path id="Path_21" data-name="Path 21" d="M152.533,297.972a5.173,5.173,0,0,1-2.714-.854c-1.606-1.071-2.418-2.969-2.418-5.647,0-6.551,5.451-6.669,5.683-6.671H158.5l.01,13.169Zm3.628-16.5v.866h1.518c.192,0,.813.085.813,1.174l-5.48.051c-1.357,0-8.119.4-8.119,8.187,0,7.013,5.748,7.557,7.509,7.557h8.561V281.467Z" transform="translate(-144.887 -278.608)" fill="#026bb7"/>
    <path id="Path_22" data-name="Path 22" d="M242.34,298.1h-.176a2.629,2.629,0,0,1-1.937-.614,1.338,1.338,0,0,1-.4-.909v-9.81h-5.089v.86h1.674c.19,0,.817.085.817,1.188l.025,9.277H204.578a5.5,5.5,0,0,1-4.121-1.484c-1.7-1.748-1.623-4.534-1.593-5.579,0-.136.008-.241.005-.309l-.022-7.231c0-1.089.64-1.21.91-1.169H201.4v-.862h-5.089v9.262c-.109,3.138.5,5.344,1.854,6.748,1.767,1.825,4.46,1.825,6.427,1.825h37.752Z" transform="translate(-157.55 -278.605)" fill="#026bb7"/>
  </g>
</svg>
