<svg xmlns="http://www.w3.org/2000/svg" xmlns:xlink="http://www.w3.org/1999/xlink" width="197" height="92" viewBox="0 0 197 92">
  <defs>
    <clipPath id="clip-path">
      <rect id="Rectangle_2441" data-name="Rectangle 2441" width="197" height="92" transform="translate(628 3664)" fill="#717d85"/>
    </clipPath>
  </defs>
  <g id="logo05" transform="translate(-709 -3684)">
    <g id="Mask_Group_18" data-name="Mask Group 18" transform="translate(81 20)" clip-path="url(#clip-path)">
      <g id="_369134" data-name="369134" transform="translate(534.205 3295.79)">
        <path id="Path_3792" data-name="Path 3792" d="M686.9,401.224l11.321-3.052v28.55L686.9,430Zm28.948,32.512V394.457h-46.2v39.28Z" transform="translate(-425.052)" fill="#400500"/>
        <path id="Path_3793" data-name="Path 3793" d="M103.942,509.812a3.736,3.736,0,0,1-2.018.616c-1.256,0-2.018-.564-2.018-1.575,0-1.329,1.821-1.649,4.037-1.7v2.658Zm-1.477-9.057a27.3,27.3,0,0,0-5,.664l.739,2.215a20.227,20.227,0,0,1,3.421-.492c1.649,0,2.289.47,2.314,2.043v.049c-4.356.148-7.137,1.128-7.137,3.79,0,1.92,1.846,3.347,4.011,3.347a7.635,7.635,0,0,0,3.643-.664,3.906,3.906,0,0,0,.172.492l2.585-.024c0-.689.024-1.575.024-2.363v-5.119c.024-3.47-2.486-3.938-4.774-3.938Z" transform="translate(-2.22 -78.462)" fill="#400500"/>
        <path id="Path_3794" data-name="Path 3794" d="M353.686,509.812a3.759,3.759,0,0,1-2.043.616c-1.23,0-2.018-.564-2.018-1.575,0-1.329,1.821-1.649,4.061-1.7Zm-1.477-9.057a27.3,27.3,0,0,0-5,.664l.713,2.215a20.227,20.227,0,0,1,3.421-.492c1.649,0,2.289.47,2.314,2.043v.049c-4.356.148-7.137,1.128-7.137,3.79,0,1.92,1.821,3.347,4.011,3.347a7.581,7.581,0,0,0,3.643-.664,2.06,2.06,0,0,0,.2.492l2.559-.024c0-.689.049-1.575.049-2.363v-5.119c.024-3.47-2.486-3.938-4.774-3.938Z" transform="translate(-186.545 -78.462)" fill="#400500"/>
        <path id="Path_3795" data-name="Path 3795" d="M481.457,509.812a3.736,3.736,0,0,1-2.018.616c-1.256,0-2.018-.564-2.018-1.575,0-1.329,1.821-1.649,4.037-1.7v2.658Zm-1.474-9.057a27.3,27.3,0,0,0-5,.664l.739,2.215a20.57,20.57,0,0,1,3.421-.492c1.674,0,2.289.47,2.314,2.043v.049c-4.356.148-7.113,1.128-7.113,3.79,0,1.92,1.846,3.347,4.011,3.347a7.734,7.734,0,0,0,3.665-.664,3.906,3.906,0,0,0,.172.492l2.559-.024c0-.689.024-1.575.024-2.363v-5.119c0-3.47-2.51-3.938-4.8-3.938Z" transform="translate(-280.893 -78.462)" fill="#400500"/>
        <path id="Path_3796" data-name="Path 3796" d="M427.164,497.594a9.4,9.4,0,0,1-1.821-.148v-6.473a9.8,9.8,0,0,1,1.945-.222c1.378,0,2.953.094,2.953,3.4a3.122,3.122,0,0,1-3.076,3.446Zm.3-9.328a13.148,13.148,0,0,0-2.092.2l.024-4.627h-3.372l-.024,15.481a19.07,19.07,0,0,0,5.218.64c3.643,0,6.5-2.117,6.5-5.808,0-4.75-2.609-5.883-6.251-5.883Z" transform="translate(-242.252 -65.974)" fill="#400500"/>
        <path id="Path_3797" data-name="Path 3797" d="M590.085,493.12l4.651-4.528H591.02l-4.774,4.849v-9.673l-3.348-.024v15.9h3.347V494.5H587.3l3.593,5.144h3.914Z" transform="translate(-361.02 -65.904)" fill="#400500"/>
        <path id="Path_3798" data-name="Path 3798" d="M179.7,513.309h3.372V502.258H179.7Z" transform="translate(-63.407 -79.572)" fill="#400500"/>
        <path id="Path_3799" data-name="Path 3799" d="M181.027,484.683a1.556,1.556,0,1,0,1.8,1.526,1.692,1.692,0,0,0-1.8-1.526Z" transform="translate(-63.06 -66.599)" fill="#400500"/>
        <path id="Path_3800" data-name="Path 3800" d="M211.115,500.754a30.533,30.533,0,0,0-6.227.689v10.777h3.372v-8.614a16.462,16.462,0,0,1,2.436-.172c2.264,0,2.632,1.206,2.632,3.175v5.611H216.7V505.5c-.024-3.027-1.747-4.75-5.587-4.75Z" transform="translate(-81.999 -78.462)" fill="#400500"/>
        <path id="Path_3801" data-name="Path 3801" d="M532.263,500.754a30.532,30.532,0,0,0-6.227.689v10.777h3.372v-8.614a16.241,16.241,0,0,1,2.437-.172c2.264,0,2.609,1.206,2.609,3.175v5.611h3.372V505.5c0-3.027-1.747-4.75-5.562-4.75Z" transform="translate(-319.049 -78.462)" fill="#400500"/>
        <path id="Path_3802" data-name="Path 3802" d="M276.241,500.754a12.262,12.262,0,0,0-4.627.862,6.92,6.92,0,0,0-3.665-.862,30.072,30.072,0,0,0-6.1.689v10.777h3.372v-8.614a15.263,15.263,0,0,1,2.363-.172c2.215,0,2.559,1.206,2.559,3.175v5.611h3.372V505.5a4.626,4.626,0,0,0-.123-1.058l-.024-.123c-.024-.123-.024-.222-.049-.345a6.42,6.42,0,0,1,2.559-.564c2.191,0,2.538,1.181,2.538,3.175V512.2h3.372v-6.719c-.024-3.027-1.772-4.726-5.538-4.726Z" transform="translate(-124.04 -78.462)" fill="#400500"/>
        <path id="Path_3803" data-name="Path 3803" d="M153.84,497.521c-.836,0-1.5-.345-1.5-1.575V483.837h-3.369v12.208c0,3.322,2.117,3.692,3.692,3.692.59,0,1.206,0,2.141-.024l-.074-2.162c-.148,0-.664-.024-.886-.024Z" transform="translate(-40.722 -65.974)" fill="#400500"/>
        <path id="Path_3804" data-name="Path 3804" d="M121.486,405.975c0,1.353-.369,1.945-1.353,1.945a4.041,4.041,0,0,1-2.732-1.8,2.513,2.513,0,0,1-.246-.345v-.222c0-1.993.271-3.175,2.461-3.175a16.625,16.625,0,0,1,1.87.123v3.47Zm8.048.094c0,1.353-.886,1.747-1.969,1.747-1.3,0-2.412-.59-2.412-2.585V400.19a29.911,29.911,0,0,0-6.129-.689c-3.766,0-5.463,1.674-5.489,4.605v1.969c0,1.353-.689,1.747-1.6,1.747h-1.181c-.886,0-1.6-.369-1.6-1.747V394.481h-3.643v11.691c0,2.708,1.23,3.938,3.938,3.938h3.741c1.772,0,2.855-.47,3.47-1.5a2.946,2.946,0,0,0,.345.3,5.381,5.381,0,0,0,3.47,1.353,4.772,4.772,0,0,0,3.4-1.157,7.469,7.469,0,0,0,4.578.984c2.412,0,4.774-.345,4.774-3.938V400.19h-3.692v5.883Zm-30.545.59c0-.763,1.009-1.157,2.141-1.157a5.152,5.152,0,0,1,.64.024l.836-2.412a9.454,9.454,0,0,0-2.092-.2c-2.338,0-5.169,1.034-5.169,3.225a3.251,3.251,0,0,0,.493,1.649h-1.23l-.812,2.289h8.393l.788-2.289h-2.117c-1.128,0-1.87-.418-1.87-1.128Zm32.367-12.2a1.682,1.682,0,1,0,1.676.744,1.685,1.685,0,0,0-1.676-.744Zm50.454,11.617c0,1.107-.564,1.723-1.8,1.723-.64,0-2.486-1.772-2.486-3.274,0-1.157.616-2.117,2.412-2.117a16.259,16.259,0,0,1,1.87.123v3.544Zm3.665-5.907a34.49,34.49,0,0,0-6.129-.64c-3.79,0-5.513,1.7-5.513,4.7a5.857,5.857,0,0,0,1.723,3.571c-2.609,0-6.35.024-6.35.024-1.353,0-2.363-.616-2.363-1.747v-3.665l-3.665.984v3.076c0,2.117,1.993,3.643,4.356,3.643h12.454c3.1-.024,5.439-1.083,5.439-3.938v-6.006ZM139.081,412.35c0-.246.3-.369.64-.369a.481.481,0,0,1,.2.024l.271-.713a2.048,2.048,0,0,0-.64-.074c-.713,0-1.551.271-1.551.96a.832.832,0,0,0,.148.492h-.363l-.222.689h2.51l.246-.689h-.64c-.369.024-.59-.148-.59-.32Zm4.9-6.276c0,1.353-.713,1.747-1.6,1.747h-2.043V394.481h-2.732v13.339h-1.428l-.788,2.289h8.245c2.757,0,4.011-1.157,4.011-3.938v-11.69H144v11.592Zm7.26-11.617v15.629h3.649V394.457Zm28.7,3.347a1.682,1.682,0,1,0-1.945-1.674,1.811,1.811,0,0,0,1.945,1.674Zm49.718,8.171c0,1.353-.369,1.945-1.353,1.945a3.992,3.992,0,0,1-2.737-1.8,2.514,2.514,0,0,1-.246-.345v-.222c0-1.993.271-3.175,2.437-3.175a15.908,15.908,0,0,1,1.87.123v3.47ZM201.573,407.8v-2.708a39.381,39.381,0,0,1,8.417-1.256c2.215,0,3.839,1.157,4.11,3.938H201.573Zm25.6-8.294c-3.766,0-5.464,1.674-5.489,4.605v1.969c0,1.353-.713,1.747-1.6,1.747h-2.29c-.492-4.184-2.412-6.842-7.187-6.842a39.62,39.62,0,0,0-9.033,1.428v-1.43l-3.643.96v5.883h-4.405V400.19h-3.643v8c0,2.953-2.708,3.938-4.43,3.938l.788,2.363c2.88,0,6.03-1.256,6.99-4.381h28.107c1.772,0,2.831-.47,3.47-1.5a2.947,2.947,0,0,0,.345.3,5.38,5.38,0,0,0,3.47,1.353c2.88,0,4.7-1.624,4.7-4.479V400.19a30.167,30.167,0,0,0-6.153-.689Z" fill="#400500"/>
      </g>
    </g>
  </g>
</svg>
