<svg xmlns="http://www.w3.org/2000/svg" xmlns:xlink="http://www.w3.org/1999/xlink" width="163" height="76" viewBox="0 0 163 76">
  <defs>
    <clipPath id="clip-path">
      <rect id="Rectangle_2434" data-name="Rectangle 2434" width="163" height="76" transform="translate(1562.87 3664)" fill="#717d85"/>
    </clipPath>
  </defs>
  <g id="logo01" transform="translate(-1597 -3692)">
    <g id="Mask_Group_14" data-name="Mask Group 14" transform="translate(34.13 28)" clip-path="url(#clip-path)">
      <g id="XMLID_47_" transform="translate(1572.454 3664)">
        <path id="Path_3789" data-name="Path 3789" d="M801.583,752.846c0-2.279.379-2.659,2.405-2.659s2.405.254,2.405,2.659v23.678a2.042,2.042,0,0,0,1.9,2.279h16.966c1.52,0,1.773-1.266,1.773-2.279v-8.356c0-2.405.379-2.659,2.405-2.659s2.405.254,2.405,2.659v8.356a2.042,2.042,0,0,0,1.9,2.279h11.4c1.52,0,1.266-1.266,1.266-2.279v-8.356c0-2.405,1.013-2.659,3.039-2.659s3.039.254,3.039,2.659v8.356c0,1.139,0,2.279,1.52,2.279h8.61a2.049,2.049,0,0,0,2.026-2.279v-8.356c0-2.405.379-2.659,2.405-2.659s2.405.254,2.405,2.659v8.356c0,5.065-1.266,6.077-6.077,6.077H807.534c-4.81,0-5.951-1.139-5.951-6.077Zm-35.832-1.773c1.266,1.646,1.266,2.153-.633,3.545L752.2,765a.614.614,0,0,0,.379,1.139h18.359c4.432,0,5.065.506,5.065,4.81V776.4c0,1.139.506,2.279,1.773,2.279h11.4c1.393,0,1.266-1.266,1.266-2.279v-8.355c0-2.405,1.013-2.659,3.039-2.659s3.039.254,3.039,2.659V776.4c0,5.065-1.52,6.077-6.458,6.077H726.121c.379-2.532,3.17-3.8,6.837-3.8H769.3a1.7,1.7,0,0,0,1.773-1.9v-5.444c0-1.013-.506-1.52-1.773-1.52H749.165c-3.418,0-4.432-1.9-4.432-3.545,0-1.52,1.139-2.785,2.405-3.8l15.068-11.9c1.9-1.266,2.279-1.266,3.545.506m19.879,41.15-1.266,1.393c-1.52,1.52-2.785,1.646-4.051.506q-1.9-1.9.379-4.178l1.393-1.393c1.52-1.52,2.785-1.646,4.051-.506,1.139,1.266,1.013,2.659-.506,4.178" transform="translate(-726.121 -749.674)" fill="#0047af"/>
        <path id="Path_3790" data-name="Path 3790" d="M788.3,827.652c3.17,0,4.178-1.012,4.178-4.178v-1.9c0-3.292-.887-4.051-4.178-4.051H777.915c-.127,0-.254,0-.254-.127,0-.379,4.432-3.292,12.915-3.545,1.393,0,1.519-.633,1.519-1.9,0-1.139-.379-1.772-1.9-1.772-11.142,0-17.6,5.825-17.6,8.864,0,1.393.76,2.279,3.672,2.279h11.015c.886,0,.38,0,.38.633V823.1c0,.633.379.76-.38.76h-14.81c-2.659,0-4.684,1.266-5.065,3.8Zm55.584-22.031-.887.887c-1.266,1.266-2.153,1.393-3.17.38s-.887-2.152.379-3.292l.887-1.013c1.266-1.139,2.152-1.393,3.17-.38a2.333,2.333,0,0,1-.379,3.418m-47.1,22.031c-1.52,0-2.659-.506-2.659-2.659,0-8.864,9.116-14.814,12.79-14.814,1.266,0,1.52.887,1.52,2.026v5.575c0,1.52,0,2.026-1.773,2.026-1.646,0-1.773-.506-1.773-2.026v-2.912a.124.124,0,0,1,.127-.127c-1.52,0-6.711,4.684-6.711,8.483,0,.379.127.633,1.139.633h10.636c.886,0,.886-.254.886-1.012v-15.2c0-1.772.887-2.153,2.405-2.153s2.405.254,2.405,2.153v15.2c0,3.672-1.52,4.81-5.065,4.81H796.783Zm25.581,0c-3.545,0-4.432-1.139-4.432-4.81V798.151c0-1.773.254-2.026,1.772-2.026s1.773.254,1.773,2.026v24.69c0,.76.506,1.013,1.393,1.013h10.509c1.013,0,1.013-.254,1.013-.633,0-1.773-2.405-6.964-9.876-9.243-1.393-.379-1.52-1.139-1.013-2.405.506-1.393,1.393-1.393,2.405-1.139,8.737,2.659,12.535,8.737,12.535,14.561a2.337,2.337,0,0,1-2.659,2.659Zm18.613-2.532V814.358c0-.254.254-.633-.127-.633h-.76c-1.52,0-2.026-.506-2.026-1.9s.506-1.9,2.026-1.9h3.292c1.139,0,1.393.887,1.393,2.153V825.5c0,1.772-.379,2.152-1.773,2.152-1.52,0-1.9-.254-1.9-2.152v-.38Zm6.584-.127c0-6.458,5.318-14.814,16.207-14.814,1.266,0,1.52.887,1.52,2.026v5.575c0,1.52-.127,2.026-1.773,2.026s-1.773-.506-1.773-2.026v-2.912c0-.506,0-.633-.254-.633-5.825,0-10,6.2-10,8.989,0,.379.127.633,1.139.633h14.048c2.659,0,4.684,1.266,5.065,3.8H850.469c-1.646,0-2.912-.506-2.912-2.659" transform="translate(-727.905 -751.681)" fill="#ff9700"/>
      </g>
    </g>
  </g>
</svg>
