<svg xmlns="http://www.w3.org/2000/svg" xmlns:xlink="http://www.w3.org/1999/xlink" width="533" height="533" viewBox="0 0 533 533">
  <defs>
    <clipPath id="clip-path">
      <rect id="Rectangle_2428" data-name="Rectangle 2428" width="533" height="533" transform="translate(1427 903)" fill="#fff" stroke="#fff" stroke-width="1"/>
    </clipPath>
  </defs>
  <g id="watermark" transform="translate(-140 -1382)">
    <g id="Mask_Group_12" data-name="Mask Group 12" transform="translate(-1287 479)" clip-path="url(#clip-path)">
      <g id="Group_5846" data-name="Group 5846" transform="translate(1426.63 596.745)" opacity="0.58">
        <path id="Path_5" data-name="Path 5" d="M378.711,80.61c-.954-4.242-3.734-5.611-4.29-1.993a65.672,65.672,0,0,1-28.843,46.458c-35.461,20.452-61.561,28.465-84.509,37-13.787,5.134-38.712,13.047-55.787,29.367a62.93,62.93,0,0,0-18.879,50.6c.21,2.575,2.1,4.52,4.94,1.662,51.833-45.949,129.006-53.034,176.948-105.066,2-2.182,3.456-1.322,2.134,1.342-30.516,61.477-97.509,90.807-148.283,133.348-33,26.95-52.468,66.165-40.784,110.609,2.591,4.72,4.835,5.548,7.184,2.837a38.764,38.764,0,0,0,4.138-8.988c28.56-61.954,91.5-104.358,141.109-150.507,38.591-38.565,57.1-91.972,44.937-146.678" transform="translate(-177.945 120.183)" fill="none" stroke="#fff" stroke-width="1"/>
        <path id="Path_6" data-name="Path 6" d="M287.386,144.623l6.157-2.952c-11.139,39.625-59.568,28.04-85.684,49.347,11.736-31.192,51.151-35.2,79.527-46.395M234.331,208.68c9.366-2.4,34.727-6.555,41.748-10.535,20.51-11.632,21.606-41.371,26.887-62.783,24.71-22.476,21.233-59.133,16.047-81.352-.85-3.047-2.129-3.8-3.1-3.44a2.276,2.276,0,0,0-1.3,1.793,13.233,13.233,0,0,0,.582,5.055c4.683,19.445-6.24,41.612-21.286,51.676a62.284,62.284,0,0,1-17.2,6.56c-19.833,5.512-42.084,13.682-58.021,27.537-28.811,21.936-29.834,63.485-29.136,96.125,7.62-17.977,25.738-25.722,44.764-30.636" transform="translate(-141.516 38.471)" fill="none" stroke="#fff" stroke-width="1"/>
        <path id="Path_7" data-name="Path 7" d="M231.191,661.663c7.593-63.181,63.354-105.507,93.377-158.95a72.657,72.657,0,0,0-9.376-76.889s-.766-.85-1.406-.9-1.154.7-.975,1.877c.351,2.334.524,3.377.687,5.024,5.679,54.875-47.979,91.185-77.613,131.947a142.817,142.817,0,0,0-21.664,55.153c-.525,3-2.916,1.731-3.708-1.122-23.751-84.6,26.262-153.04,92.344-225.141,33.819-36.232,69.338-74.121,89.47-118.276,21.658-60.308,7.148-130.17-18.381-183.723-6.24-11.207-14.322-33.72-19.623-32.183-.881.912-.907,2.659-.341,4.971,1.1,4.5,17.437,34.716,19.713,39.247,25.78,51.2,23.426,119.257-6.141,161.566-47.239,81.515-147.921,135.341-176.774,225.5-22.434,66.343,1.19,136.683,38.476,190.362,6.618,5.711,1.18-12.428,1.946-18.5" transform="translate(-164.938 63.632)" fill="none" stroke="#fff" stroke-width="1"/>
        <path id="Path_8" data-name="Path 8" d="M356.354,305.672c28.528-64.692,27.039-155.253-8.433-215.838l-2.669-.7c41.34,76.454,4.861,162.285-31.124,232.315-14.217,28.843-51.77,94.856-78.935,171.882a549,549,0,0,0-31.659,132,417.53,417.53,0,0,0,24.034,173.581c6.623,18.449,14.421,25.528,10.861,11.091a460,460,0,0,1-10.4-172.61c22.309-118.932,85.186-220.348,128.314-331.7" transform="translate(-100.274 157.789)" fill="none" stroke="#fff" stroke-width="1"/>
        <path id="Path_9" data-name="Path 9" d="M238.6,64.23c1.479-4.127,1.248-8.391,2.423-12.586C247.9,34.338,225.043,37.432,217.9,29.183c-5.58,7.536-5.606,19.052-8.176,27.075l18.391,9.266-6.461,23.368c5.637,2.984,12.187,5.092,17.678,8.548a29.8,29.8,0,0,1,3.854,2.952c1.463,1.222,3.849,3.33,7.719,7.017a232.516,232.516,0,0,1,4.762-26.588c.965-9.854-11.658-10.9-17.064-16.592" transform="translate(-77.023 -29.183)" fill="none" stroke="#fff" stroke-width="1"/>
        <path id="Path_10" data-name="Path 10" d="M211.019,250.314a81.544,81.544,0,0,1,14.159,23.913c-2.91,10.75-14.212,14.206-21.5,21.186l-13.21-19.98c-4.951-6.067,5.344-7.9,8.3-11.406,24.779-10.567-5.344-23.279-7.342-35.608a89.031,89.031,0,0,0,19.34-17.227c4.866,7.127,11.448,12.785,14.757,20.63,1.017,9.822-11.081,11.39-14.542,18.48" transform="translate(-141.7 545.44)" fill="none" stroke="#fff" stroke-width="1"/>
      </g>
    </g>
  </g>
</svg>
